<?xml version="1.0" encoding="utf-8"?>
<!-- Generator: Adobe Illustrator 23.0.4, SVG Export Plug-In . SVG Version: 6.00 Build 0)  -->
<svg version="1.1" id="Layer_35" xmlns="http://www.w3.org/2000/svg" xmlns:xlink="http://www.w3.org/1999/xlink" x="0px" y="0px"
	 viewBox="0 0 747.5 445.4" style="enable-background:new 0 0 747.5 445.4;" xml:space="preserve">
<style type="text/css">
	.st0{clip-path:url(#SVGID_2_);}
	.st1{fill:#6F5016;}
	.st2{fill:#A4BE31;}
	.st3{fill:#597B31;}
	.st4{fill:#884518;}
	.st5{fill:#4A3713;}
	.st6{fill:#6298B3;}
	.st7{fill:#E7B845;}
	.st8{fill:#26200C;}
	.st9{fill:#5C953B;}
	.st10{fill:#A7628B;}
	.st11{fill:#C9B31A;}
	.st12{fill:#A6CEDB;}
	.st13{fill:#75B0C5;}
	.st14{fill:#8EC2D3;}
	.st15{fill:#45779B;}
	.st16{fill:#30418F;}
	.st17{fill:#7C3765;}
	.st18{fill:#AAC579;}
	.st19{fill:#76A539;}
	.st20{fill:#91B863;}
	.st21{fill:#6299BA;}
	.st22{fill:#BD4D72;}
	.st23{fill:#9BA72C;}
	.st24{fill:#E6B900;}
	.st25{fill:#DCABCB;}
	.st26{fill:#C5668F;}
	.st27{fill:#CE83AB;}
	.st28{fill:#6BAB97;}
	.st29{fill:#D68700;}
	.st30{fill:#976B1A;}
	.st31{fill:#BF486F;}
	.st32{fill:#9DAF30;}
	.st33{fill:#EED3AC;}
	.st34{fill:#E0AA54;}
	.st35{fill:#E5BD7C;}
	.st36{clip-path:url(#SVGID_2_);fill:none;}
</style>
<g id="New_Symbol_46">
</g>
<g>
	<defs>
		<rect id="SVGID_1_" width="747.5" height="445.4"/>
	</defs>
	<clipPath id="SVGID_2_">
		<use xlink:href="#SVGID_1_"  style="overflow:visible;"/>
	</clipPath>
	<g class="st0">
		<g>
			<path class="st1" d="M352.4,278.2c1.2,1.8,0.7,4.2-1.2,5.4c0,0-5,3.4-13.6,9.4c-4.4,2.9-9.8,6.3-16,10.3c-3.1,1.9-6.5,3.9-10,6
				c-3.5,2.1-7.2,4.4-11.2,6.6c-3.9,2.2-8.1,4.5-12.3,6.9c-4.3,2.3-8.8,4.6-13.4,7c-4.6,2.5-9.4,4.7-14.3,7.1
				c-2.5,1.2-4.9,2.4-7.4,3.6c-2.5,1.1-5.1,2.3-7.7,3.5c-20.6,9.4-43.1,18.3-66.1,26c-22.9,7.7-46.3,14.4-68.4,19.6
				c-22.1,5.2-43,9.1-61.1,11.8c-18,2.7-33.2,4.3-43.8,5.2c-10.7,0.9-16.8,1.2-16.8,1.2c-7.6,0.2-13.9-5.6-13.7-12.8
				c0.2-7.1,5.8-12.9,13-13.1c0,0,5.8,0,16-0.4c10.2-0.4,24.9-1.2,42.5-3c17.6-1.8,38-4.6,59.8-8.6c21.8-4,44.8-9.4,67.5-15.9
				c22.7-6.5,45.2-14.2,65.8-22.4c2.6-1,5.1-2,7.7-3.1c2.5-1,5-2.1,7.5-3.2c4.9-2.1,9.8-4.1,14.3-6.3c4.6-2.2,9.1-4.2,13.5-6.3
				c4.3-2.1,8.4-4.2,12.4-6.2c4-1.9,7.7-4,11.3-5.9c3.6-1.9,7-3.8,10.1-5.5c6.3-3.6,11.7-6.8,16.2-9.4c8.8-5.5,13.9-8.6,13.9-8.6
				C348.7,276,351.2,276.4,352.4,278.2z"/>
		</g>
		<g>
			<path class="st1" d="M345.6,333.6c0.1,1.1-0.2,2-0.7,2c0,0-5.3,0.7-13.3,1.8c-8,1-18.6,2.4-29.5,3.1c-10.8,0.8-21.9,0.7-30.2-0.1
				c-2.1-0.2-4-0.5-5.7-0.7c-1.7-0.3-3.2-0.5-4.4-0.7c-1.2-0.2-2.2-0.4-2.8-0.6c-0.7-0.1-1-0.2-1-0.2c-1.7-0.5-2.2-3.6-1.2-7
				c1.1-3.4,3.1-5.8,4.6-5.4c0,0,0.3,0.1,0.8,0.3c0.6,0.2,1.4,0.5,2.4,0.8c1.1,0.3,2.4,0.7,3.8,1.1c1.5,0.3,3.2,0.7,5.1,1.2
				c7.5,1.5,17.9,2.7,28.4,3.1c10.5,0.4,21.2,0.2,29.2,0c8-0.2,13.4-0.4,13.4-0.4C345,331.7,345.5,332.6,345.6,333.6z"/>
		</g>
		<g>
			<path class="st1" d="M313.5,264.8c1.1-0.2,1.9,0,2,0.3c0,0,0.2,0.9,0.5,2.5c0.1,0.8,0.2,1.8,0.4,2.9c0.1,1.1,0.2,2.4,0.2,3.7
				c0.1,5.5-0.3,12.9-2.7,20.1c-1.1,3.6-2.7,7.1-4.5,10.3c-1,1.5-1.8,3.1-2.9,4.4c-0.5,0.7-1,1.3-1.5,2c-0.5,0.6-1.1,1.2-1.6,1.7
				c-2,2.3-4,3.8-5.4,5c-1.5,1-2.3,1.6-2.3,1.6c-1.1,0.6-3.3-1.4-4.9-4.6c-1.6-3.2-2.3-6.1-1.6-6.6c0,0,0.7-0.3,1.8-0.8
				c1.1-0.7,2.7-1.5,4.5-2.9c0.4-0.4,0.9-0.7,1.4-1.1c0.4-0.4,0.9-0.8,1.4-1.3c1-0.8,1.8-2,2.8-3c1.8-2.3,3.6-4.9,5-7.8
				c3-5.7,4.5-12.3,5.2-17.2c0.1-1.2,0.2-2.4,0.3-3.4c0-1,0.1-1.9,0.1-2.6c0-1.5,0-2.3,0-2.3C311.6,265.3,312.5,264.9,313.5,264.8z"
				/>
		</g>
		<g>
			<path class="st1" d="M85.9,412.7c0.2,1.1,0,2-0.5,2c0,0-1.2,0.2-3.2,0.6c-1,0.2-2.3,0.3-3.7,0.5c-0.7,0.1-1.5,0.2-2.3,0.2
				c-0.8,0-1.7,0-2.6,0.1c-3.6,0.1-7.8-0.2-12.2-0.8c-4.4-0.7-9.1-1.6-13.7-2.8c-9.2-2.5-18-5.8-24.5-8.3
				c-6.4-2.5-10.7-4.2-10.7-4.2c-1.3-0.6-1.1-3.7,0.3-6.9c1.5-3.3,3.7-5.4,5-4.8c0,0,4.1,2.2,10.2,5.4c6.1,3.2,14.1,7.4,22.4,10.8
				c4.1,1.7,8.4,3.1,12.4,4.2c4,1,7.8,1.8,11.1,2.1c0.8,0.1,1.6,0.2,2.4,0.2c0.8,0.1,1.5,0,2.1,0.1c1.3,0,2.5,0.1,3.5,0
				c1.9-0.1,3-0.2,3-0.2C85.2,410.8,85.7,411.6,85.9,412.7z"/>
		</g>
		<g>
			<path class="st1" d="M358.8,294c-0.2,0.5-0.5,0.8-0.7,0.8c0,0-0.4-0.1-1.1-0.4c-0.7-0.2-1.7-0.6-3-0.9c-1.3-0.3-2.7-0.7-4.3-0.9
				c-1.6-0.3-3.3-0.4-4.9-0.5c-3.4-0.1-6.7,0-9,0.6c-0.6,0.1-1.1,0.2-1.6,0.3c-0.5,0.1-0.9,0.3-1.2,0.4c-0.6,0.2-1,0.3-1,0.3
				c-0.4,0.1-1.2-1.2-1.8-2.9c-0.5-1.7-0.5-3.2,0.1-3.3c0,0,0.5-0.1,1.3-0.2c0.4-0.1,0.9-0.2,1.5-0.2c0.6,0,1.2,0,2-0.1
				c2.9-0.2,6.6,0.3,10.2,1c1.8,0.4,3.6,0.8,5.2,1.4c1.6,0.5,3.1,1.1,4.3,1.6c1.3,0.5,2.2,1.1,3,1.4c0.7,0.4,1.1,0.6,1.1,0.6
				C359.1,293.1,359,293.5,358.8,294z"/>
		</g>
		<path class="st2" d="M298.9,278.5c6.8,4.9,7.7,15.2,7.7,15.2s-10.1,2.4-16.8-2.5c-6.8-4.9-7.7-15.2-7.7-15.2
			S292.2,273.7,298.9,278.5z"/>
		<path class="st2" d="M306.3,352.8c-1.9,8.1-11,13-11,13s-6.1-8.4-4.2-16.5c1.9-8.1,11-13,11-13S308.2,344.7,306.3,352.8z"/>
		<path class="st3" d="M338.9,331.5c-6.7,4.9-16.8,2.6-16.8,2.6s0.8-10.3,7.6-15.3c6.7-4.9,16.8-2.6,16.8-2.6
			S345.7,326.5,338.9,331.5z"/>
		<path class="st2" d="M313.3,256c4.1,7.2,0.7,17,0.7,17s-10.2-2-14.3-9.2c-4.1-7.2-0.7-17-0.7-17S309.1,248.7,313.3,256z"/>
		<path class="st2" d="M367.4,300.2c4.1,7.3,0.7,17,0.7,17s-10.2-2-14.3-9.2c-4.1-7.2-0.7-17-0.7-17S363.3,293,367.4,300.2z"/>
		<path class="st2" d="M344.4,266.9c4.4-7.1,14.7-8.6,14.7-8.6s3,9.9-1.4,17c-4.4,7.1-14.7,8.6-14.7,8.6S339.9,274,344.4,266.9z"/>
		<path class="st3" d="M359.1,271.5c8.2-1.6,16.3,4.8,16.3,4.8s-5.1,9-13.3,10.6c-8.2,1.6-16.3-4.8-16.3-4.8
			S350.9,273.1,359.1,271.5z"/>
		<path class="st3" d="M39.3,417.8c5.2-6.6,15.5-7.1,15.5-7.1s2,10.2-3.2,16.7c-5.2,6.6-15.5,7.1-15.5,7.1S34.1,424.4,39.3,417.8z"
			/>
		<path class="st3" d="M59.8,426.2c-3.2-7.7,1.4-17,1.4-17s9.8,3.2,13.1,10.9c3.2,7.7-1.4,17-1.4,17S63,433.9,59.8,426.2z"/>
		<path class="st3" d="M322.5,264.7c6.6-5.1,16.8-3,16.8-3s-0.6,10.3-7.2,15.4c-6.6,5.1-16.8,3-16.8,3S315.9,269.8,322.5,264.7z"/>
	</g>
	<g class="st0">
		<g>
			<path class="st4" d="M313.2,32.3c0.2,0,0.5,0,0.7,0c0.5,0,1.1,0,1.8-0.1c0.2,0,0.5-0.1,0.7-0.1c0.5-0.1,1.1-0.3,1.7-0.5
				c0.2-0.1,0.4-0.2,0.7-0.3c0.5-0.3,1.1-0.6,1.6-1c0.1,0,0.1-0.1,0.2-0.1c0.2-0.1,0.3-0.2,0.4-0.3c0.6-0.4,1.1-0.9,1.6-1.3
				c0.2-0.2,0.4-0.3,0.6-0.5c0.6-0.5,1.1-0.9,1.6-1.2c0.2-0.2,0.4-0.3,0.6-0.4c0.6-0.4,1.1-0.6,1.7-0.7c0.2,0,0.5,0,0.7,0
				c0.3,0,0.6,0.1,0.9,0.3c0.5,0.3,0.9,0.7,1.1,1c0.3,0.5,0.4,1,0.3,1.5c-0.1,0.8-0.5,1.4-0.9,1.6c0,0,0.6-0.1,1.3,0.2
				c0.3,0.1,0.5,0.2,0.8,0.4c0.7,0.4,1.3,1.1,1.6,2.3c0,0,0.1,0.9-0.7,2.2c-0.2,0.2-0.3,0.5-0.6,0.8c-0.4,0.4-0.9,0.9-1.5,1.3
				c0,0,0,0,0,0c-0.2,0.1-0.4,0.3-0.6,0.4c-0.5,0.2-1.1,0.4-1.7,0.6c-0.2,0-0.5,0.1-0.7,0.1c-0.6,0.1-1.1,0.1-1.8,0.1
				c-0.2,0-0.5,0-0.7,0c-0.6,0-1.2-0.1-1.8-0.2c-0.2,0-0.5-0.1-0.7-0.1c-0.6-0.1-1.3-0.3-1.9-0.5c-0.3-0.1-0.5-0.2-0.8-0.3
				c-0.7-0.3-1.3-0.6-2-0.9c-0.3-0.1-0.5-0.3-0.8-0.5c-0.7-0.4-1.4-1-2.1-1.6c-0.3-0.3-0.6-0.5-0.9-0.8c-0.4-0.5-0.9-0.9-1.3-1.5
				C312.2,32.1,312.6,32.2,313.2,32.3z"/>
			<g>
				<g>
					<path class="st5" d="M312.6,68.6c0.1,0,0.3,0,0.4,0c0.2-0.1,0.2-0.4,0.1-0.6l-2.4-3.5l0.9-6.6c0-0.2-0.1-0.4-0.4-0.5
						c-0.2,0-0.4,0.1-0.5,0.4l-0.9,6.8c0,0.1,0,0.2,0.1,0.3l2.5,3.6C312.5,68.5,312.6,68.6,312.6,68.6z"/>
				</g>
				<g>
					<path class="st5" d="M309.4,69.2C309.4,69.2,309.5,69.2,309.4,69.2c0.3,0.1,0.5-0.1,0.5-0.3l0.7-4.2c0-0.2-0.1-0.4-0.3-0.5
						c-0.2,0-0.4,0.1-0.5,0.3l-0.7,4.2C309.1,68.9,309.2,69.1,309.4,69.2z"/>
				</g>
				<g>
					<path class="st5" d="M306.5,67.3c0.1,0,0.3,0,0.4-0.1l3.6-2.3c0.2-0.1,0.2-0.4,0.1-0.6c-0.1-0.2-0.4-0.2-0.6-0.1l-3.6,2.3
						c-0.2,0.1-0.2,0.4-0.1,0.6C306.4,67.2,306.4,67.3,306.5,67.3z"/>
				</g>
			</g>
			<path class="st6" d="M288.1,32.3c0,0-0.1-8.9,9.5-13.2c9.5-4.4,20.3,1.7,23.7,10c1.6,4,3.1,7,4.6,9.5c-0.5,2.7-4.3,3.8-7,1.1
				c0.6,2,2,5.5,0.2,7.4c-1.8,2-5.9,1.2-7.8-0.4c0.8,5.1-5.7,7-8.2,2.5c0.6,5.1-6.5,4.9-7.6,0.4c0.2,1.7-0.6,2.7-1.7,3.1
				c-1.6-1.9-2.9-4-3.8-6.2C286.9,38.1,288.1,32.3,288.1,32.3z"/>
			<path class="st7" d="M288.3,30.7l-3.8,1.6l3.5,2.2C288.1,34.6,290,32.7,288.3,30.7z"/>
			<path class="st8" d="M294.3,28.2c0,0.9,0.8,1.7,1.7,1.7c0.9,0,1.7-0.8,1.7-1.7c0-0.9-0.8-1.7-1.7-1.7
				C295.1,26.5,294.3,27.3,294.3,28.2z"/>
			<g>
				<path class="st9" d="M314.2,29.3l6.5,6.5c-0.7,0.3-1.4,0.5-2.2,0.7l-5.3-5.3C313.6,30.7,313.9,30,314.2,29.3z"/>
				<path class="st9" d="M317.6,20.5l10,10c-0.3,0.5-0.7,1.1-1.3,1.6l-9.9-9.9C316.8,21.5,317.1,21,317.6,20.5z"/>
				<path class="st9" d="M327.9,23.8c0,0,0.7,0.8,0.8,2.6l-3.8-3.8C325.8,22.6,326.8,22.8,327.9,23.8z"/>
				<path class="st9" d="M315.1,26.2l8.3,8.3c-0.6,0.4-1.2,0.7-1.9,1l-7-7C314.7,27.7,314.9,26.9,315.1,26.2z"/>
				<path class="st9" d="M316.1,23.1l9.6,9.6c-0.5,0.4-1,0.9-1.6,1.3l-8.7-8.7C315.6,24.5,315.9,23.8,316.1,23.1z"/>
				<path class="st9" d="M319.4,19.8c0.7-0.1,1.3,0,1.8,0.3l1.2,1.2c0.4,0.8,0.4,1.7,0.2,2.2c0,0,0.5-0.4,1.3-0.7l4.7,4.7
					c-0.1,0.7-0.3,1.4-0.6,2.3c0,0,0,0,0,0l-9.7-9.7C318.6,19.9,319,19.8,319.4,19.8z"/>
				<path class="st9" d="M312.8,32l4.9,4.9c-0.8,0.2-1.6,0.3-2.5,0.4l-3.7-3.7C311.9,33.1,312.3,32.6,312.8,32z"/>
				<path class="st9" d="M308.5,35.8l1.1,1.1c-0.7-0.2-1.5-0.3-2.2-0.6C307.4,36.3,307.8,36.1,308.5,35.8z"/>
				<path class="st9" d="M310.8,34.1l3.2,3.2c-1,0-2,0-3.1-0.1l-1.8-1.8C309.7,35,310.3,34.6,310.8,34.1z"/>
				<path class="st10" d="M322.4,21.3l-1.2-1.2C321.7,20.3,322.1,20.8,322.4,21.3z"/>
				<path class="st10" d="M324.9,22.6l3.8,3.8c0,0.3,0,0.7-0.1,1.1l-4.7-4.7C324.2,22.7,324.5,22.6,324.9,22.6z"/>
				<path class="st10" d="M318.3,20.1l9.7,9.7c-0.1,0.2-0.2,0.5-0.4,0.8l-10-10C317.8,20.3,318,20.2,318.3,20.1z"/>
				<path class="st10" d="M316.4,22.3l9.9,9.9c-0.2,0.2-0.4,0.4-0.6,0.6l-9.6-9.6C316.2,22.8,316.3,22.5,316.4,22.3z"/>
				<path class="st10" d="M315.4,25.3l8.7,8.7c-0.2,0.2-0.5,0.3-0.7,0.5l-8.3-8.3C315.2,25.9,315.3,25.6,315.4,25.3z"/>
				<path class="st10" d="M314.2,29c0.1-0.2,0.1-0.4,0.2-0.6l7,7c-0.3,0.1-0.5,0.2-0.8,0.4l-6.5-6.5C314.2,29.2,314.2,29.1,314.2,29
					z"/>
				<path class="st10" d="M313.2,31.3l5.3,5.3c-0.3,0.1-0.6,0.2-0.9,0.2l-4.9-4.9C312.9,31.7,313.1,31.5,313.2,31.3z"/>
				<path class="st10" d="M311.4,33.6l3.7,3.7c-0.4,0-0.7,0.1-1.1,0.1l-3.2-3.2C311,33.9,311.2,33.8,311.4,33.6z"/>
				<path class="st10" d="M309.2,35.4l1.8,1.8c-0.5-0.1-0.9-0.1-1.4-0.2l-1.1-1.1C308.7,35.7,308.9,35.5,309.2,35.4z"/>
			</g>
			<g>
				<g>
					<path class="st5" d="M321.4,69.5c0.1,0,0.3-0.1,0.3-0.2c0.1-0.2,0.1-0.4-0.1-0.6l-3.4-2.5l-1.3-6.5c0-0.2-0.3-0.4-0.5-0.3
						c-0.2,0-0.4,0.3-0.3,0.5l1.4,6.7c0,0.1,0.1,0.2,0.2,0.2l3.5,2.6C321.2,69.5,321.3,69.5,321.4,69.5z"/>
				</g>
				<g>
					<path class="st5" d="M318.5,71.2C318.6,71.2,318.6,71.2,318.5,71.2c0.3,0,0.4-0.3,0.4-0.5l-0.7-4.2c0-0.2-0.2-0.4-0.5-0.3
						c-0.2,0-0.4,0.2-0.3,0.5l0.7,4.2C318.2,71,318.3,71.2,318.5,71.2z"/>
				</g>
				<g>
					<path class="st5" d="M315.7,69.9c0.1,0,0.3-0.1,0.3-0.2l2.1-3c0.1-0.2,0.1-0.4-0.1-0.6c-0.2-0.1-0.4-0.1-0.6,0.1l-2.1,3
						c-0.1,0.2-0.1,0.4,0.1,0.6C315.5,69.9,315.6,69.9,315.7,69.9z"/>
				</g>
			</g>
			<path class="st11" d="M336.5,47.5c0.5-3.4,2.8-10.1,6.6-11.1c1.6-0.4,2.8,0.5,2.7,2.2c-0.1,1.5-1.5,2.7-2.6,3.6
				c2.1-1.5,8.2-3.1,9.2,0.3c1,3-2,4-4.4,4.1c2,0.7,4,3,2.6,5.2c-1.3,2-4.5,1.2-6.5,0.6C341,51.3,339,49.3,336.5,47.5z"/>
		</g>
		<path class="st12" d="M324.1,55.6c3.1,0,8.7-2.1,4.8-6c2-0.4,3.8-2.2,3.5-4.1c1.2,0.8,2.6,1.4,4.1,2c0,0-3.6,8.8-13.1,12.5
			C325.3,58.8,326.6,57.3,324.1,55.6z"/>
		<path class="st13" d="M293.8,52.5c1.2-0.4,2-1.4,1.7-3.1c1,4.5,8.2,4.7,7.6-0.4c2.5,4.5,9,2.7,8.2-2.5c1.8,1.6,5.9,2.5,7.8,0.4
			c1.8-1.8,0.4-5.3-0.2-7.4c2.6,2.8,6.5,1.6,7-1.1c0.9,1.5,1.9,2.8,2.9,3.8c-0.6,2-3.5,3.3-5.8,2.7c4.7,4.2-1.9,7.2-5.9,7
			c4.1,4.7-2.6,7.3-6,3.8c1.4,5.5-4.2,3.8-6.9,1.8c0.3,0.8,0.3,1.4,0.1,2C300.1,58.1,296.5,55.7,293.8,52.5z"/>
		<path class="st14" d="M304.1,57.7c2.7,2,8.3,3.7,6.9-1.8c3.4,3.5,10.1,0.9,6-3.8c4,0.2,10.6-2.8,5.9-7c2.3,0.6,5.2-0.7,5.8-2.7
			c1.1,1.2,2.3,2.1,3.6,3c0.3,1.9-1.5,3.7-3.5,4.1c3.9,3.9-1.7,6-4.8,6c2.5,1.7,1.3,3.2-0.8,4.3c-1.3,0.5-2.8,0.9-4.3,1.2
			c-5.2,0.9-10.3,0.3-14.8-1.4C304.4,59.1,304.4,58.5,304.1,57.7z"/>
	</g>
	<g class="st0">
		<g>
			<path class="st15" d="M299.4,207.3c-0.6,0.1-1.3,0.1-2,0.1c-1.4,0-3.1,0-4.9-0.3c-0.6-0.1-1.3-0.2-1.9-0.3
				c-1.5-0.3-3.1-0.8-4.7-1.4c-0.6-0.2-1.2-0.5-1.8-0.8c-1.5-0.7-3-1.6-4.4-2.6c-0.2-0.1-0.3-0.2-0.5-0.4c-0.4-0.3-0.8-0.6-1.2-0.9
				c-1.5-1.2-3-2.4-4.3-3.5c-0.6-0.5-1.1-1-1.7-1.4c-1.5-1.3-3-2.5-4.3-3.4c-0.6-0.4-1.2-0.8-1.7-1.2c-1.6-1-3.1-1.7-4.6-1.9
				c-0.7-0.1-1.3-0.1-2,0c-0.8,0.1-1.7,0.4-2.6,0.9c-1.5,0.8-2.5,1.8-3.1,2.9c-0.8,1.3-1,2.8-0.8,4.1c0.3,2.1,1.4,3.9,2.5,4.5
				c0,0-1.6-0.1-3.5,0.4c-0.7,0.2-1.4,0.5-2.2,1c-1.8,1.1-3.5,3-4.3,6.4c0,0-0.3,2.6,1.9,6c0.4,0.7,0.9,1.4,1.6,2.1
				c1,1.2,2.4,2.4,4.1,3.7c0,0,0.1,0,0.1,0.1c0.5,0.4,1.1,0.7,1.8,1c1.3,0.6,2.9,1.1,4.7,1.5c0.6,0.1,1.2,0.2,1.9,0.3
				c1.5,0.2,3.2,0.4,4.9,0.4c0.7,0,1.3,0,2,0c1.6-0.1,3.3-0.2,5.1-0.5c0.7-0.1,1.4-0.2,2-0.4c1.7-0.3,3.5-0.8,5.2-1.4
				c0.7-0.2,1.4-0.5,2.1-0.8c1.8-0.7,3.7-1.5,5.5-2.5c0.7-0.4,1.5-0.8,2.2-1.3c2-1.2,4-2.7,5.8-4.3c0.8-0.7,1.6-1.5,2.4-2.3
				c1.2-1.3,2.4-2.6,3.5-4.1C302.2,206.9,301.2,207.2,299.4,207.3z"/>
			<g>
				<g>
					<path class="st5" d="M301,307.4c-0.3,0.1-0.7,0.1-1-0.1c-0.5-0.4-0.6-1.1-0.3-1.6l6.6-9.6l-2.5-18.2c-0.1-0.6,0.4-1.2,1-1.3
						c0.6-0.1,1.2,0.3,1.3,1l2.5,18.6c0,0.3,0,0.6-0.2,0.8l-6.9,10C301.4,307.2,301.2,307.3,301,307.4z"/>
				</g>
				<g>
					<path class="st5" d="M309.8,309.1c-0.1,0-0.1,0-0.2,0c-0.6,0.1-1.2-0.3-1.3-0.9l-2-11.6c-0.1-0.6,0.3-1.2,0.9-1.3
						c0.6-0.1,1.2,0.3,1.3,0.9l2,11.6C310.7,308.4,310.3,308.9,309.8,309.1z"/>
				</g>
				<g>
					<path class="st5" d="M317.8,303.9c-0.3,0.1-0.7,0.1-1-0.1l-10-6.4c-0.5-0.4-0.6-1.1-0.3-1.6c0.4-0.5,1.1-0.6,1.6-0.3l10,6.4
						c0.5,0.4,0.6,1.1,0.3,1.6C318.2,303.7,318,303.8,317.8,303.9z"/>
				</g>
			</g>
			<path class="st3" d="M368.7,207.5c0,0,0.2-24.4-26.1-36.4c-26.3-12-55.8,4.6-65.2,27.6c-4.4,10.9-8.5,19.4-12.7,26.2
				c1.3,7.3,12,10.6,19.2,2.9c-1.7,5.6-5.6,15.2-0.6,20.3c5.1,5.6,16.3,3.4,21.4-1.1c-2.3,14.1,15.8,19.2,22.5,6.8
				c-1.7,14.1,18,13.5,20.8,1.1c-0.6,4.7,1.5,7.4,4.7,8.4c4.4-5.1,8-10.9,10.4-17.2C372,223.5,368.7,207.5,368.7,207.5z"/>
			<path class="st7" d="M367.9,203.1l10.5,4.5l-9.8,6C368.7,213.7,363.4,208.4,367.9,203.1z"/>
			<path class="st8" d="M351.5,196.2c0,2.6-2.1,4.7-4.7,4.7c-2.6,0-4.7-2.1-4.7-4.7s2.1-4.7,4.7-4.7
				C349.4,191.5,351.5,193.6,351.5,196.2z"/>
			<g>
				<path class="st7" d="M296.8,199.1l-18,18c1.9,0.8,3.9,1.5,5.9,2.1l14.7-14.7C298.4,202.9,297.5,201.1,296.8,199.1z"/>
				<path class="st7" d="M287.3,175l-27.6,27.6c0.9,1.5,2.1,3,3.5,4.5l27.2-27.2C289.6,177.8,288.6,176.2,287.3,175z"/>
				<path class="st7" d="M258.9,184.1c0,0-2,2.3-2.1,7l10.4-10.4C264.8,180.6,261.9,181.3,258.9,184.1z"/>
				<path class="st7" d="M294.1,190.7l-22.7,22.7c1.6,1,3.4,1.9,5.2,2.8l19.4-19.4C295.3,194.6,294.6,192.6,294.1,190.7z"/>
				<path class="st7" d="M291.4,182.1l-26.5,26.5c1.3,1.2,2.8,2.4,4.5,3.5l23.9-23.9C292.7,186,292.1,183.9,291.4,182.1z"/>
				<path class="st7" d="M282.4,172.9c-2-0.2-3.6,0.1-4.9,0.7l-3.4,3.4c-1.1,2.2-1.1,4.7-0.5,6c0,0-1.4-1.1-3.6-1.8L257,194.1
					c0.2,1.8,0.7,3.9,1.6,6.2c0,0,0,0.1,0,0.1l26.7-26.7C284.6,173.3,283.6,173,282.4,172.9z"/>
				<path class="st7" d="M300.6,206.5l-13.4,13.4c2.2,0.5,4.5,0.9,6.9,1.1l10.1-10.1C303,209.6,301.8,208.2,300.6,206.5z"/>
				<path class="st7" d="M312.5,217l-3.1,3.1c2-0.4,4-1,6-1.6C315.5,218.5,314.3,218,312.5,217z"/>
				<path class="st7" d="M305.9,212.4l-8.8,8.8c2.7,0.1,5.5,0,8.4-0.4l4.9-4.9C309.1,215,307.5,213.8,305.9,212.4z"/>
				<path class="st16" d="M274.1,177l3.4-3.4C275.9,174.4,274.8,175.7,274.1,177z"/>
				<path class="st16" d="M267.2,180.7l-10.4,10.4c0,0.9,0,1.9,0.2,3l12.9-12.9C269.2,180.9,268.2,180.8,267.2,180.7z"/>
				<path class="st16" d="M285.4,173.7l-26.7,26.7c0.3,0.7,0.6,1.4,1.1,2.1l27.6-27.6C286.8,174.5,286.1,174,285.4,173.7z"/>
				<path class="st16" d="M290.5,179.8L263.3,207c0.5,0.5,1.1,1,1.6,1.6l26.5-26.5C291.1,181.3,290.8,180.5,290.5,179.8z"/>
				<path class="st16" d="M293.4,188.2l-23.9,23.9c0.6,0.4,1.3,0.8,1.9,1.3l22.7-22.7C293.8,189.8,293.6,189,293.4,188.2z"/>
				<path class="st16" d="M296.5,198.5c-0.2-0.6-0.4-1.1-0.6-1.7l-19.4,19.4c0.7,0.3,1.5,0.7,2.2,1l18-18
					C296.7,198.9,296.6,198.7,296.5,198.5z"/>
				<path class="st16" d="M299.4,204.6l-14.7,14.7c0.8,0.2,1.7,0.4,2.5,0.6l13.4-13.4C300.2,205.9,299.8,205.2,299.4,204.6z"/>
				<path class="st16" d="M304.3,210.9L294.2,221c1,0.1,2,0.2,3,0.2l8.8-8.8C305.4,211.9,304.8,211.4,304.3,210.9z"/>
				<path class="st16" d="M310.5,215.9l-4.9,4.9c1.3-0.2,2.6-0.4,3.9-0.7l3.1-3.1C311.9,216.7,311.2,216.3,310.5,215.9z"/>
			</g>
			<g>
				<g>
					<path class="st5" d="M276.9,310c-0.3,0-0.7-0.2-0.9-0.5c-0.4-0.5-0.3-1.2,0.2-1.6l9.4-6.9l3.7-18c0.1-0.6,0.7-1,1.3-0.9
						c0.6,0.1,1,0.7,0.9,1.3l-3.8,18.4c-0.1,0.3-0.2,0.5-0.4,0.7l-9.8,7.1C277.4,309.9,277.1,310,276.9,310z"/>
				</g>
				<g>
					<path class="st5" d="M284.7,314.5c-0.1,0-0.1,0-0.2,0c-0.6-0.1-1-0.7-0.9-1.3l1.9-11.6c0.1-0.6,0.7-1,1.3-0.9
						c0.6,0.1,1,0.7,0.9,1.3l-1.9,11.6C285.7,314.1,285.3,314.5,284.7,314.5z"/>
				</g>
				<g>
					<path class="st5" d="M292.6,311.1c-0.4,0-0.7-0.2-0.9-0.5l-5.9-8.3c-0.4-0.5-0.2-1.2,0.3-1.6c0.5-0.4,1.2-0.2,1.6,0.3l5.9,8.3
						c0.4,0.5,0.2,1.2-0.3,1.6C293,311,292.8,311.1,292.6,311.1z"/>
				</g>
			</g>
			<path class="st17" d="M235.3,249.3c-1.4-9.3-7.6-27.9-18.3-30.7c-4.5-1.1-7.6,1.4-7.3,6.2c0.3,4.2,4.2,7.3,7,9.9
				c-5.9-4.2-22.5-8.5-25.4,0.8c-2.8,8.2,5.6,11,12.1,11.3c-5.6,2-11,8.2-7,14.4c3.7,5.6,12.4,3.4,18,1.7
				C222.9,259.7,228.3,254.4,235.3,249.3z"/>
		</g>
		<g>
			<path class="st18" d="M269.4,271.5c-8.5,0-23.9-5.9-13.3-16.5c-5.5-1.2-10.5-6.1-9.6-11.4c-3.4,2.1-7.1,3.9-11.2,5.4
				c0,0,9.9,24.4,36.2,34.3C266,280.4,262.5,276.3,269.4,271.5z"/>
			<path class="st19" d="M352.8,263.2c-3.2-1.1-5.4-3.7-4.7-8.4c-2.8,12.4-22.5,13-20.8-1.1c-6.8,12.4-24.8,7.3-22.5-6.8
				c-5.1,4.5-16.3,6.8-21.4,1.1c-5.1-5.1-1.1-14.6,0.6-20.3c-7.2,7.6-17.9,4.4-19.2-2.9c-2.6,4.1-5.3,7.6-8.1,10.6
				c1.6,5.5,9.6,9.2,16,7.5c-12.9,11.5,5.3,19.7,16.2,19.2c-11.2,12.9,7.2,20.2,16.6,10.5c-4,15.1,11.5,10.4,19,4.9
				c-0.8,2.1-0.8,3.9-0.2,5.4C335.5,278.6,345.4,271.8,352.8,263.2z"/>
			<path class="st20" d="M324.4,277.4c-7.4,5.5-22.9,10.2-19-4.9c-9.4,9.7-27.8,2.4-16.6-10.5c-10.9,0.6-29.1-7.7-16.2-19.2
				c-6.4,1.7-14.3-2-16-7.5c-3.1,3.2-6.4,5.9-10,8.1c-0.9,5.3,4.1,10.2,9.6,11.4c-10.7,10.7,4.8,16.5,13.3,16.5
				c-6.9,4.8-3.4,8.9,2.1,11.8c3.6,1.4,7.6,2.5,11.9,3.2c14.4,2.4,28.4,0.9,40.8-3.7C323.6,281.3,323.6,279.5,324.4,277.4z"/>
		</g>
	</g>
	<g class="st0">
		<g>
			<path class="st21" d="M633,205.3c0.6,0.1,1.3,0.1,2,0.1c1.4,0,3.1,0,4.9-0.3c0.6-0.1,1.3-0.2,1.9-0.3c1.5-0.3,3.1-0.8,4.7-1.4
				c0.6-0.2,1.2-0.5,1.8-0.8c1.5-0.7,3-1.6,4.4-2.6c0.2-0.1,0.3-0.2,0.5-0.4c0.4-0.3,0.8-0.6,1.2-0.9c1.5-1.2,3-2.4,4.3-3.5
				c0.6-0.5,1.1-1,1.7-1.4c1.5-1.3,3-2.5,4.3-3.4c0.6-0.4,1.2-0.8,1.7-1.2c1.6-1,3.1-1.7,4.6-1.9c0.7-0.1,1.3-0.1,2,0
				c0.9,0.1,1.7,0.4,2.6,0.9c1.5,0.8,2.5,1.8,3.1,2.9c0.8,1.3,1,2.8,0.8,4.1c-0.3,2.1-1.4,3.9-2.5,4.5c0,0,1.6-0.1,3.5,0.4
				c0.7,0.2,1.4,0.5,2.2,1c1.8,1.1,3.5,3,4.3,6.4c0,0,0.3,2.6-1.9,6c-0.4,0.7-0.9,1.4-1.6,2.1c-1,1.2-2.4,2.4-4.1,3.7
				c0,0-0.1,0-0.1,0.1c-0.5,0.4-1.1,0.7-1.8,1c-1.3,0.6-2.9,1.1-4.7,1.5c-0.6,0.1-1.2,0.2-1.9,0.3c-1.5,0.2-3.2,0.4-4.9,0.4
				c-0.7,0-1.3,0-2,0c-1.6-0.1-3.3-0.2-5.1-0.5c-0.7-0.1-1.4-0.2-2-0.4c-1.7-0.3-3.5-0.8-5.2-1.4c-0.7-0.2-1.4-0.5-2.1-0.8
				c-1.8-0.7-3.7-1.5-5.5-2.5c-0.7-0.4-1.5-0.8-2.2-1.3c-2-1.2-4-2.7-5.8-4.3c-0.8-0.7-1.6-1.5-2.4-2.3c-1.2-1.3-2.4-2.6-3.5-4.1
				C630.2,204.9,631.2,205.1,633,205.3z"/>
			<g>
				<g>
					<path class="st5" d="M631.4,305.3c0.3,0.1,0.7,0.1,1-0.1c0.5-0.4,0.6-1.1,0.3-1.6l-6.6-9.6l2.4-18.2c0.1-0.6-0.4-1.2-1-1.3
						c-0.6-0.1-1.2,0.4-1.3,1l-2.5,18.6c0,0.3,0,0.6,0.2,0.8l6.9,10C631,305.1,631.2,305.3,631.4,305.3z"/>
				</g>
				<g>
					<path class="st5" d="M622.5,307c0.1,0,0.1,0,0.2,0c0.6,0.1,1.2-0.3,1.3-0.9l2-11.6c0.1-0.6-0.3-1.2-0.9-1.3
						c-0.6-0.1-1.2,0.3-1.3,0.9l-2,11.6C621.7,306.3,622,306.8,622.5,307z"/>
				</g>
				<g>
					<path class="st5" d="M614.6,301.8c0.3,0.1,0.7,0.1,1-0.1l10-6.4c0.5-0.4,0.6-1.1,0.3-1.6c-0.4-0.5-1.1-0.6-1.6-0.3l-10,6.4
						c-0.5,0.4-0.6,1.1-0.3,1.6C614.2,301.6,614.3,301.7,614.6,301.8z"/>
				</g>
			</g>
			<path class="st22" d="M563.7,205.4c0,0-0.2-24.4,26.1-36.4c26.3-12,55.8,4.6,65.2,27.6c4.4,10.9,8.5,19.4,12.7,26.2
				c-1.3,7.3-12,10.6-19.2,2.9c1.7,5.6,5.6,15.2,0.6,20.3c-5.1,5.6-16.3,3.4-21.4-1.1c2.3,14.1-15.8,19.2-22.5,6.8
				c1.7,14.1-18,13.5-20.8,1.1c0.6,4.7-1.5,7.4-4.7,8.4c-4.4-5.1-8-10.9-10.4-17.2C560.4,221.5,563.7,205.4,563.7,205.4z"/>
			<path class="st7" d="M564.4,201.1l-10.5,4.5l9.8,6C563.7,211.6,568.9,206.3,564.4,201.1z"/>
			<path class="st8" d="M580.9,194.1c0,2.6,2.1,4.7,4.7,4.7c2.6,0,4.7-2.1,4.7-4.7c0-2.6-2.1-4.7-4.7-4.7
				C583,189.5,580.9,191.6,580.9,194.1z"/>
			<path class="st23" d="M673.4,182c-3-2.7-5.9-3.5-8.3-3.4c-1,0-1.9,0.2-2.7,0.5c-2.2,0.7-3.6,1.8-3.6,1.8c0.6-1.3,0.6-3.8-0.5-6
				c-0.7-1.4-1.8-2.6-3.4-3.4c-1.3-0.6-2.9-0.9-4.9-0.7c-1.2,0.1-2.2,0.4-3,0.8c-0.7,0.3-1.3,0.8-1.9,1.3c-1.3,1.2-2.3,2.8-3.2,4.8
				c-0.3,0.7-0.6,1.5-0.9,2.3c-0.7,1.8-1.3,3.8-1.9,6.1c-0.2,0.8-0.5,1.6-0.7,2.5c-0.6,1.9-1.2,4-1.9,6.1c-0.2,0.6-0.4,1.1-0.6,1.7
				c-0.1,0.2-0.2,0.4-0.3,0.7c-0.7,2-1.6,3.8-2.6,5.4c-0.4,0.7-0.8,1.3-1.2,1.9c-1.2,1.6-2.4,3.1-3.6,4.4c-0.5,0.5-1.1,1.1-1.6,1.5
				c-1.6,1.4-3.2,2.6-4.6,3.4c-0.7,0.5-1.4,0.9-2,1.2c-1.8,1-3,1.4-3,1.4c2,0.7,4,1.2,6,1.6c1.3,0.3,2.6,0.5,3.9,0.7
				c2.9,0.4,5.7,0.5,8.4,0.4c1,0,2-0.1,3-0.2c2.4-0.2,4.7-0.6,6.9-1.1c0.9-0.2,1.7-0.4,2.5-0.6c2.1-0.6,4.1-1.3,5.9-2.1
				c0.8-0.3,1.5-0.6,2.2-1c1.8-0.9,3.6-1.8,5.2-2.8c0.7-0.4,1.3-0.8,1.9-1.3c1.7-1.1,3.2-2.3,4.5-3.5c0.6-0.5,1.1-1,1.6-1.6
				c1.5-1.5,2.7-3,3.5-4.5c0.4-0.7,0.8-1.4,1.1-2.1c0,0,0-0.1,0-0.1c0.9-2.3,1.4-4.4,1.6-6.2c0.1-1.1,0.2-2.1,0.2-3
				C675.4,184.3,673.4,182,673.4,182z"/>
			<g>
				<g>
					<path class="st5" d="M655.5,307.9c0.3,0,0.7-0.2,0.9-0.5c0.4-0.5,0.3-1.2-0.2-1.6l-9.4-6.9l-3.7-18c-0.1-0.6-0.7-1-1.3-0.9
						c-0.6,0.1-1,0.7-0.9,1.3l3.8,18.4c0.1,0.3,0.2,0.5,0.4,0.7l9.8,7.1C655,307.9,655.2,307.9,655.5,307.9z"/>
				</g>
				<g>
					<path class="st5" d="M647.6,312.4c0.1,0,0.1,0,0.2,0c0.6-0.1,1-0.7,0.9-1.3l-1.9-11.6c-0.1-0.6-0.7-1-1.3-0.9
						c-0.6,0.1-1,0.7-0.9,1.3l1.9,11.6C646.6,312,647.1,312.4,647.6,312.4z"/>
				</g>
				<g>
					<path class="st5" d="M639.8,309c0.4,0,0.7-0.2,0.9-0.5l5.9-8.3c0.4-0.5,0.2-1.2-0.3-1.6c-0.5-0.4-1.2-0.2-1.6,0.3l-5.9,8.3
						c-0.4,0.5-0.2,1.2,0.3,1.6C639.4,309,639.6,309,639.8,309z"/>
				</g>
			</g>
			<path class="st24" d="M697,247.2c1.4-9.3,7.6-27.9,18.3-30.7c4.5-1.1,7.6,1.4,7.3,6.2c-0.3,4.2-4.2,7.3-7,9.9
				c5.9-4.2,22.5-8.5,25.4,0.8c2.8,8.2-5.6,11-12.1,11.3c5.6,2,11,8.2,7,14.4c-3.7,5.6-12.4,3.4-18,1.7
				C709.4,257.7,704.1,252.3,697,247.2z"/>
		</g>
		<path class="st25" d="M662.9,269.4c8.5,0,23.9-5.9,13.3-16.5c5.5-1.2,10.5-6.1,9.6-11.4c3.4,2.1,7.1,3.9,11.2,5.4
			c0,0-9.9,24.4-36.2,34.3C666.4,278.4,669.9,274.2,662.9,269.4z"/>
		<path class="st26" d="M579.5,261.1c3.2-1.1,5.4-3.7,4.7-8.4c2.8,12.4,22.5,13,20.8-1.1c6.8,12.4,24.8,7.3,22.5-6.8
			c5.1,4.5,16.3,6.8,21.4,1.1c5.1-5.1,1.1-14.6-0.6-20.3c7.2,7.6,17.9,4.4,19.2-2.9c2.6,4.1,5.3,7.6,8.1,10.6
			c-1.6,5.5-9.6,9.2-16,7.5c12.9,11.5-5.3,19.7-16.2,19.2c11.2,12.9-7.2,20.2-16.6,10.5c4,15.1-11.5,10.4-19,4.9
			c0.8,2.1,0.8,3.9,0.2,5.4C596.9,276.5,587,269.8,579.5,261.1z"/>
		<path class="st27" d="M608,275.3c7.4,5.5,22.9,10.2,19-4.9c9.4,9.7,27.8,2.4,16.6-10.5c10.9,0.6,29.1-7.7,16.2-19.2
			c6.4,1.7,14.3-2,16-7.5c3.1,3.2,6.4,5.9,10,8.1c0.9,5.3-4.1,10.2-9.6,11.4c10.7,10.7-4.8,16.5-13.3,16.5c6.9,4.8,3.4,8.9-2.1,11.8
			c-3.6,1.4-7.6,2.5-11.9,3.2c-14.4,2.4-28.4,0.9-40.8-3.7C608.8,279.2,608.8,277.5,608,275.3z"/>
	</g>
	<g class="st0">
		<g>
			<path class="st28" d="M482.3,90.8c-0.4-0.1-0.8-0.3-1.2-0.5c-0.9-0.4-1.8-0.9-2.9-1.5c-0.3-0.2-0.7-0.5-1.1-0.7
				c-0.8-0.6-1.6-1.3-2.4-2.1c-0.3-0.3-0.6-0.6-0.9-1c-0.7-0.8-1.3-1.8-1.9-2.8c-0.1-0.1-0.1-0.2-0.2-0.4c-0.2-0.3-0.3-0.6-0.5-0.9
				c-0.6-1.1-1.1-2.2-1.6-3.3c-0.2-0.5-0.4-0.9-0.6-1.3c-0.6-1.2-1.1-2.3-1.6-3.3c-0.2-0.4-0.5-0.8-0.7-1.2
				c-0.7-1.1-1.4-1.9-2.2-2.4c-0.4-0.2-0.8-0.4-1.2-0.6c-0.5-0.2-1.1-0.2-1.8-0.2c-1.1,0.1-2,0.4-2.7,0.8c-0.8,0.6-1.4,1.4-1.6,2.2
				c-0.4,1.3-0.2,2.7,0.2,3.4c0,0-0.9-0.5-2.2-0.7c-0.5-0.1-1-0.1-1.6,0c-1.4,0.2-3,0.8-4.4,2.6c0,0-0.9,1.5-0.6,4.1
				c0.1,0.5,0.2,1.1,0.4,1.7c0.3,1,0.7,2.1,1.5,3.4c0,0,0,0,0,0.1c0.2,0.4,0.5,0.7,0.8,1.1c0.6,0.7,1.4,1.5,2.4,2.2
				c0.3,0.3,0.7,0.5,1,0.7c0.9,0.6,1.8,1.1,2.8,1.6c0.4,0.2,0.8,0.4,1.2,0.5c1,0.4,2.1,0.8,3.2,1.1c0.4,0.1,0.9,0.2,1.3,0.4
				c1.1,0.3,2.3,0.5,3.5,0.6c0.5,0.1,1,0.1,1.5,0.1c1.3,0.1,2.6,0.1,4,0c0.6,0,1.1-0.1,1.7-0.2c1.5-0.2,3.1-0.5,4.7-1
				c0.7-0.2,1.4-0.4,2.1-0.7c1.1-0.4,2.2-0.9,3.3-1.4C484.1,91.4,483.4,91.2,482.3,90.8z"/>
			<g>
				<g>
					<path class="st5" d="M455.3,151.2c-0.2,0-0.4-0.2-0.6-0.4c-0.2-0.4-0.1-0.8,0.3-1l6.7-3.9l3.6-11.6c0.1-0.4,0.5-0.6,0.9-0.5
						c0.4,0.1,0.6,0.5,0.5,0.9l-3.7,11.9c-0.1,0.2-0.2,0.3-0.3,0.4l-6.9,4C455.6,151.2,455.4,151.3,455.3,151.2z"/>
				</g>
				<g>
					<path class="st5" d="M460.1,154.7c0,0-0.1,0-0.1,0c-0.4-0.1-0.6-0.5-0.5-0.9l2.1-7.5c0.1-0.4,0.5-0.6,0.9-0.5
						c0.4,0.1,0.6,0.5,0.5,0.9l-2.1,7.5C460.8,154.5,460.5,154.8,460.1,154.7z"/>
				</g>
				<g>
					<path class="st5" d="M466.4,153.8c-0.2,0-0.4-0.2-0.6-0.4l-4.2-6.6c-0.2-0.4-0.1-0.8,0.3-1c0.4-0.2,0.8-0.1,1,0.3l4.2,6.6
						c0.2,0.4,0.1,0.8-0.3,1C466.7,153.8,466.5,153.8,466.4,153.8z"/>
				</g>
			</g>
			<path class="st29" d="M523.8,110.2c0,0,6.9-14.6-5.5-29.1c-12.4-14.5-34.7-12.9-46.8-1.7c-5.7,5.3-10.5,9.3-14.9,12.1
				c-1.3,4.8,4.2,9.7,10.7,7.1c-2.6,2.9-7.6,7.5-6,12c1.5,4.8,8.9,6.6,13.1,5.3c-5.3,7.8,4.1,15.9,11.6,10.3c-4.9,8,7,13.1,12.2,6.5
				c-1.7,2.6-1.1,4.8,0.5,6.4c4.1-1.8,7.8-4.3,11.1-7.4C521.3,120.8,523.8,110.2,523.8,110.2z"/>
			<path class="st30" d="M524.6,107.5l5,5.6l-7.5,0.9C522.1,114,520.4,109.3,524.6,107.5z"/>
			<path class="st8" d="M516.6,98.7c-0.7,1.5-2.6,2.2-4.1,1.5c-1.5-0.7-2.2-2.6-1.5-4.1c0.7-1.5,2.6-2.2,4.1-1.5
				C516.7,95.3,517.3,97.1,516.6,98.7z"/>
			<path class="st31" d="M464.5,65.6c2.5-0.8,4.5-0.4,5.9,0.3c0.6,0.3,1.1,0.7,1.5,1c1.1,1,1.7,2.1,1.7,2.1c0-0.9,0.7-2.4,2-3.4
				c0.8-0.6,1.8-1.1,3-1.1c0.9,0,2,0.2,3.1,0.9c0.7,0.4,1.2,0.8,1.6,1.3c0.3,0.4,0.6,0.8,0.8,1.3c0.4,1.1,0.6,2.3,0.5,3.8
				c0,0.5,0,1-0.1,1.6c-0.1,1.3-0.3,2.7-0.5,4.2c-0.1,0.5-0.2,1.1-0.3,1.7c-0.2,1.3-0.4,2.7-0.6,4.2c0,0.4-0.1,0.8-0.1,1.2
				c0,0.2,0,0.3,0,0.5c-0.1,1.4-0.1,2.7,0,4c0.1,0.5,0.1,1,0.2,1.5c0.2,1.3,0.6,2.5,1,3.6c0.2,0.5,0.4,0.9,0.5,1.4
				c0.6,1.3,1.2,2.4,1.8,3.3c0.3,0.5,0.6,0.9,0.9,1.3c0.8,1.1,1.4,1.7,1.4,1.7c-1.4-0.2-2.8-0.4-4.1-0.7c-0.9-0.2-1.7-0.4-2.5-0.7
				c-1.8-0.6-3.5-1.3-5.2-2.1c-0.6-0.3-1.2-0.6-1.7-1c-1.4-0.8-2.6-1.7-3.8-2.6c-0.5-0.4-0.9-0.7-1.3-1.1c-1.1-0.9-2.1-1.9-3-2.9
				c-0.4-0.4-0.7-0.8-1.1-1.2c-0.9-1-1.6-2.1-2.3-3.1c-0.3-0.4-0.6-0.9-0.8-1.3c-0.7-1.1-1.2-2.3-1.7-3.4c-0.2-0.5-0.4-0.9-0.5-1.4
				c-0.5-1.3-0.7-2.6-0.9-3.7c-0.1-0.6-0.1-1.1,0-1.6c0,0,0-0.1,0-0.1c0.1-1.7,0.4-3,0.8-4.2c0.2-0.7,0.5-1.3,0.7-1.9
				C462.7,66.4,464.5,65.6,464.5,65.6z"/>
			<g>
				<g>
					<path class="st5" d="M440.1,146.1c-0.2-0.1-0.4-0.3-0.4-0.5c-0.1-0.4,0.2-0.8,0.6-0.9l7.6-1.5l7.2-9.8c0.2-0.3,0.7-0.4,1-0.2
						c0.3,0.2,0.4,0.7,0.2,1l-7.4,10c-0.1,0.1-0.3,0.3-0.5,0.3l-7.8,1.5C440.4,146.2,440.3,146.1,440.1,146.1z"/>
				</g>
				<g>
					<path class="st5" d="M443.6,151c0,0-0.1,0-0.1-0.1c-0.3-0.2-0.4-0.7-0.2-1l4.4-6.4c0.2-0.3,0.7-0.4,1-0.2
						c0.3,0.2,0.4,0.7,0.2,1l-4.4,6.4C444.3,151,443.9,151.1,443.6,151z"/>
				</g>
				<g>
					<path class="st5" d="M449.2,151.1c-0.2-0.1-0.4-0.3-0.4-0.5l-1.2-6.6c-0.1-0.4,0.2-0.8,0.6-0.9c0.4-0.1,0.8,0.2,0.9,0.6
						l1.2,6.6c0.1,0.4-0.2,0.8-0.6,0.9C449.5,151.2,449.3,151.2,449.2,151.1z"/>
				</g>
			</g>
			<path class="st32" d="M432.2,98.1c1.8-6,3.2-18.8-2.4-23.5c-2.4-1.9-5-1.3-6.1,1.7c-1,2.6,0.5,5.6,1.5,7.9
				c-2.4-4.2-11.1-11.4-15.4-6.6c-4,4.1,0.3,8.2,4.1,10.1c-3.9-0.4-8.9,1.8-8.2,6.6c0.6,4.4,6.5,5.5,10.3,6
				C421.8,100.9,426.5,99.2,432.2,98.1z"/>
		</g>
		<path class="st33" d="M446.4,120.9c-5.1-2.4-12.7-10.2-3.3-13.6c-3-2.2-4.6-6.6-2.6-9.5c-2.6,0.3-5.3,0.3-8.2,0.1
			c0,0-0.9,17.4,12.1,30.7C441.8,125.3,440.9,121.9,446.4,120.9z"/>
		<path class="st34" d="M498.7,139.2c-1.6-1.5-2.2-3.7-0.5-6.4c-5.2,6.6-17.1,1.5-12.2-6.5c-7.5,5.5-16.9-2.5-11.6-10.3
			c-4.3,1.3-11.7-0.5-13.1-5.3c-1.6-4.5,3.4-9.1,6-12c-6.5,2.6-12-2.4-10.7-7.1c-2.7,1.8-5.3,3.1-7.8,4.1c-0.5,3.7,3.2,8.2,7.5,8.9
			c-10.9,3.3-2.4,13.3,4.4,16c-10.3,4.6-1.3,14.1,7,10.9c-6.6,7.9,4,9.4,10,8.2c-1.1,1.1-1.5,2.1-1.6,3.2
			C484,143.6,491.9,142.3,498.7,139.2z"/>
		<path class="st35" d="M477.7,139.8c-6,1.2-16.6-0.3-10-8.2c-8.4,3.2-17.3-6.4-7-10.9c-6.7-2.7-15.3-12.8-4.4-16
			c-4.3-0.8-8-5.2-7.5-8.9c-2.7,1.1-5.5,1.7-8.3,2.1c-2,2.9-0.4,7.3,2.6,9.5c-9.4,3.4-1.8,11.3,3.3,13.6c-5.5,1-4.6,4.4-2,7.7
			c1.8,1.8,3.8,3.6,6.2,5.2c7.9,5.5,16.8,8.5,25.5,9.1C476.1,141.9,476.6,140.9,477.7,139.8z"/>
	</g>
	<rect class="st36" width="747.5" height="445.4"/>
</g>
</svg>
