<svg id="efc5be23-90ac-4c86-b5ac-9b3432947a46" data-name="Layer 35" xmlns="http://www.w3.org/2000/svg" viewBox="0 0 776.89 381.1"><title>birs-01</title><path d="M65.13,178.42a7.21,7.21,0,0,0,5,9l29.34,9.34,34,9.66,21.1,5.31c7.44,1.83,15.23,3.92,23.47,5.61l25.64,5.59,27.6,5.23c9.46,1.91,19.27,3.24,29.27,4.89,5,.77,10.06,1.65,15.18,2.36l15.52,2c41.75,5.49,86.62,9.17,131.59,10.52s90.06.56,132.23-2.22,81.44-7.17,115-12.08,61.34-10.37,80.78-14.54,30.53-7,30.53-7c13.65-3.7,21.7-17.56,17.47-30.18a24.87,24.87,0,0,0-30.14-16.22s-10.31,3.17-28.72,8.06-44.93,11.37-77.15,17.69-70.12,12.4-111,17-84.78,7.51-128.74,8.26-88-.75-129.14-4.19l-15.31-1.28c-5.05-.45-10-1.08-15-1.6-9.87-1.16-19.58-2-28.93-3.44l-27.34-3.85L182,198c-8.18-1.27-15.92-3-23.32-4.42l-21-4.25-33.94-7.91-29.35-7.84A7.47,7.47,0,0,0,65.13,178.42Z" transform="translate(-23.11 -25.21)" fill="#6f5016"/><path d="M107.3,273.34c.43,1.94,1.51,3.36,2.41,3.16l24.53-4.05C149,270,168.69,266.59,188.36,262s39.23-10.65,53.64-16.61l9.77-4.29,7.44-3.69c2.07-1,3.65-1.91,4.73-2.53l1.67-.95c2.79-1.77,2-7.66-1.76-13.13s-8.73-8.7-11.1-7.19l-1.35,1c-.88.64-2.16,1.59-3.91,2.66l-6.24,4-8.4,4.81c-12.53,6.81-30.3,14.56-48.84,21s-37.55,11.87-51.9,15.85l-24,6.62C107.25,269.65,106.87,271.39,107.3,273.34Z" transform="translate(-23.11 -25.21)" fill="#6f5016"/><path d="M127,133.51c-2,.31-3.47,1.06-3.35,1.67,0,0,.2,1.69.53,4.64.26,1.46.56,3.24.92,5.28s1,4.28,1.58,6.76c2.69,9.78,7.56,22.75,15.64,34.31a94.14,94.14,0,0,0,13.56,16,81.5,81.5,0,0,0,7.63,6.28l3.77,2.69c1.23.88,2.54,1.51,3.74,2.23,4.78,3,9.25,4.54,12.27,5.92l4.95,1.59c2.33.54,5.12-4.34,6.23-10.88s.76-12.18-.8-12.55l-3.71-.51a70,70,0,0,1-9.51-2.79c-1-.39-2-.67-3-1.17l-3.15-1.55a64.06,64.06,0,0,1-6.64-3.84,77.38,77.38,0,0,1-13.1-11.12c-8.39-8.55-14.69-19.39-18.56-27.83-.92-2.13-1.73-4.12-2.43-5.88s-1.17-3.35-1.61-4.63c-.75-2.62-1.17-4.11-1.17-4.11C130.63,133.41,129,133.21,127,133.51Z" transform="translate(-23.11 -25.21)" fill="#6f5016"/><path d="M611.92,273.27c.23,2,1.08,3.47,1.9,3.33l6.08-.65c2-.12,4.23-.74,6.91-1.21,1.33-.28,2.78-.48,4.24-.89l4.62-1.27a146,146,0,0,0,21.36-8,227.08,227.08,0,0,0,22.81-12.48c15-9.35,28.85-20,39.08-28l16.85-13.2c2-1.72,0-7.17-4.37-12.17s-9.54-7.63-11.54-5.86l-15.12,15.17c-9,9-21,20.8-33.94,31.27a214.54,214.54,0,0,1-19.72,14.19,134.21,134.21,0,0,1-18.66,9.75L628.34,265c-1.31.55-2.59.88-3.77,1.29-2.39.72-4.45,1.57-6.21,1.9l-5.51,1.29C612.1,269.58,611.69,271.29,611.92,273.27Z" transform="translate(-23.11 -25.21)" fill="#6f5016"/><path d="M62.32,210c.67.75,1.39,1.2,1.62,1l1.81-1.24a52.11,52.11,0,0,1,4.84-3.14,71.42,71.42,0,0,1,7.16-3.85c2.63-1.39,5.61-2.46,8.51-3.63,5.92-2,11.92-3.58,16.38-3.86l3-.32c.9,0,1.66,0,2.29,0l2,0c.85-.06,1.57-2.81,1.59-6.13s-.89-6-2-5.88l-2.5.35c-.79.12-1.76.23-2.84.44l-3.53.94C95.39,186,89,188.84,83,192.06a96.32,96.32,0,0,0-8.42,5.33,76.78,76.78,0,0,0-6.85,5.25,57.48,57.48,0,0,0-4.5,4.08l-1.66,1.59C61.31,208.51,61.66,209.27,62.32,210Z" transform="translate(-23.11 -25.21)" fill="#6f5016"/><path d="M160.37,150.09C151,162.45,155,181.27,155,181.27s19.2-1.22,28.59-13.59S189,136.49,189,136.49,169.76,137.72,160.37,150.09Z" transform="translate(-23.11 -25.21)" fill="#a4be31"/><path d="M187.45,286.14c7.75,13.46,26.64,17.11,26.64,17.11s6.33-18.16-1.41-31.62S186,254.52,186,254.52,179.71,272.68,187.45,286.14Z" transform="translate(-23.11 -25.21)" fill="#a4be31"/><path d="M117.93,265.91c14.65,5.14,31.35-4.41,31.35-4.41s-7.05-17.9-21.7-23.05-31.35,4.41-31.35,4.41S103.29,260.76,117.93,265.91Z" transform="translate(-23.11 -25.21)" fill="#597b31"/><path d="M122.64,117.7c-3.45,15.14,7.94,30.64,7.94,30.64s17-9,20.43-24.18-7.94-30.64-7.94-30.64S126.09,102.56,122.64,117.7Z" transform="translate(-23.11 -25.21)" fill="#a4be31"/><path d="M50.28,225.72c-3.45,15.14,7.94,30.64,7.94,30.64s17-9,20.43-24.17-7.94-30.64-7.94-30.64S53.73,210.59,50.28,225.72Z" transform="translate(-23.11 -25.21)" fill="#a4be31"/><path d="M73.25,154c-11.74-10.16-30.77-7.4-30.77-7.4s0,19.23,11.72,29.4S85,183.43,85,183.43,85,164.2,73.25,154Z" transform="translate(-23.11 -25.21)" fill="#a4be31"/><path d="M49.57,170.24c-15.45,1.6-26.46,17.37-26.46,17.37s14,13.18,29.46,11.57S79,181.81,79,181.81,65,168.64,49.57,170.24Z" transform="translate(-23.11 -25.21)" fill="#597b31"/><path d="M697.56,257.13c-12.72-8.91-31.37-4.2-31.37-4.2s2,19.13,14.69,28,31.37,4.2,31.37,4.2S710.28,266,697.56,257.13Z" transform="translate(-23.11 -25.21)" fill="#597b31"/><path d="M665.74,283.18c1.58-15.45-11.6-29.45-11.6-29.45s-15.76,11-17.34,26.48,11.6,29.45,11.6,29.45S664.15,298.63,665.74,283.18Z" transform="translate(-23.11 -25.21)" fill="#597b31"/><path d="M111,138.23C96.45,132.79,79.56,142,79.56,142s6.7,18,21.24,23.48,31.43-3.78,31.43-3.78S125.53,143.67,111,138.23Z" transform="translate(-23.11 -25.21)" fill="#597b31"/><path d="M634.36,75c.74.07,1.56.12,2.47.14a38.33,38.33,0,0,0,6.07-.35c.76-.1,1.55-.23,2.36-.4a35.21,35.21,0,0,0,5.79-1.69c.75-.3,1.5-.62,2.25-1a33.47,33.47,0,0,0,5.48-3.26c.22-.16.43-.28.64-.44l1.49-1.17c1.89-1.49,3.65-2.93,5.28-4.29l2.09-1.74c1.91-1.59,3.66-3,5.29-4.24.74-.54,1.45-1,2.15-1.47a14.87,14.87,0,0,1,5.66-2.4,8.6,8.6,0,0,1,2.43,0A9.39,9.39,0,0,1,687,53.78a9.66,9.66,0,0,1,3.86,3.54,7.75,7.75,0,0,1,1,5c-.34,2.6-1.78,4.83-3.08,5.57a12.44,12.44,0,0,1,4.29.53,11.47,11.47,0,0,1,8,9.07s.35,3.21-2.31,7.43a20.94,20.94,0,0,1-1.93,2.56A28.13,28.13,0,0,1,691.74,92l-.1.07a18,18,0,0,1-2.19,1.24,27.15,27.15,0,0,1-5.77,1.87c-.76.16-1.54.3-2.36.42a45.61,45.61,0,0,1-6,.46c-.8,0-1.61,0-2.44,0a52.9,52.9,0,0,1-6.25-.59c-.84-.12-1.68-.28-2.53-.45a56.65,56.65,0,0,1-6.47-1.69c-.88-.28-1.75-.6-2.63-.93a56.31,56.31,0,0,1-6.74-3.09c-.93-.5-1.85-1-2.76-1.6a54.52,54.52,0,0,1-7.19-5.31c-1-.9-2-1.86-3-2.87a53.26,53.26,0,0,1-4.36-5A26.85,26.85,0,0,0,634.36,75Z" transform="translate(-23.11 -25.21)" fill="#884518"/><path d="M632.45,198.61a1.39,1.39,0,0,0,1.6-2.1l-8.18-11.85,3-22.46a1.39,1.39,0,0,0-2.76-.37l-3.1,23a1.41,1.41,0,0,0,.23,1l8.5,12.29A1.38,1.38,0,0,0,632.45,198.61Z" transform="translate(-23.11 -25.21)" fill="#4a3713"/><path d="M621.49,200.69a1,1,0,0,0,.23.06,1.39,1.39,0,0,0,1.61-1.14l2.46-14.37a1.39,1.39,0,0,0-2.74-.47l-2.47,14.37A1.41,1.41,0,0,0,621.49,200.69Z" transform="translate(-23.11 -25.21)" fill="#4a3713"/><path d="M611.64,194.26a1.42,1.42,0,0,0,1.27-.18l12.31-7.94a1.38,1.38,0,0,0,.33-1.94,1.4,1.4,0,0,0-1.94-.33l-12.32,7.94a1.39,1.39,0,0,0,.35,2.45Z" transform="translate(-23.11 -25.21)" fill="#4a3713"/><path d="M548.81,75.18s-.24-30.16,32.24-45,69,5.62,80.49,34.1c5.47,13.52,10.5,24,15.73,32.31-1.55,9.07-14.79,13-23.69,3.61,2.09,7,7,18.79.7,25-6.26,7-20.18,4.18-26.44-1.39,2.78,17.4-19.49,23.66-27.84,8.35,2.09,17.4-22.27,16.7-25.75,1.39.79,5.79-1.9,9.09-5.85,10.39a73.86,73.86,0,0,1-12.87-21.26C544.71,95,548.81,75.18,548.81,75.18Z" transform="translate(-23.11 -25.21)" fill="#6298b3"/><path d="M549.71,69.84l-13,5.57,12.07,7.42S555.28,76.34,549.71,69.84Z" transform="translate(-23.11 -25.21)" fill="#e7b845"/><path d="M570.06,61.28a5.77,5.77,0,1,0,5.77-5.77A5.77,5.77,0,0,0,570.06,61.28Z" transform="translate(-23.11 -25.21)" fill="#26200c"/><path d="M637.59,64.91l22.26,22.25a65.49,65.49,0,0,1-7.35,2.55l-18.1-18.1A38.81,38.81,0,0,0,637.59,64.91Z" transform="translate(-23.11 -25.21)" fill="#5c953b"/><path d="M649.26,35.08l34,34.05a30.85,30.85,0,0,1-4.36,5.53l-33.6-33.6A17.46,17.46,0,0,1,649.26,35.08Z" transform="translate(-23.11 -25.21)" fill="#5c953b"/><path d="M684.35,46.29s2.42,2.88,2.57,8.68L674.09,42.14C677.11,42,680.7,42.9,684.35,46.29Z" transform="translate(-23.11 -25.21)" fill="#5c953b"/><path d="M640.94,54.42,669,82.5A63.92,63.92,0,0,1,662.58,86l-24-24C639.47,59.32,640.24,56.79,640.94,54.42Z" transform="translate(-23.11 -25.21)" fill="#5c953b"/><path d="M644.21,43.87l32.73,32.72a52.21,52.21,0,0,1-5.55,4.35L641.83,51.38C642.66,48.61,643.41,46.09,644.21,43.87Z" transform="translate(-23.11 -25.21)" fill="#5c953b"/><path d="M655.37,32.46a11.3,11.3,0,0,1,6,.93l4.21,4.21c1.36,2.73,1.4,5.82.63,7.38a14.51,14.51,0,0,1,4.49-2.26l16,16a32.72,32.72,0,0,1-2,7.68l-.06.13-33-33A10.9,10.9,0,0,1,655.37,32.46Z" transform="translate(-23.11 -25.21)" fill="#5c953b"/><path d="M632.86,74l16.5,16.51a64.44,64.44,0,0,1-8.52,1.37L628.35,79.39A40.3,40.3,0,0,0,632.86,74Z" transform="translate(-23.11 -25.21)" fill="#5c953b"/><path d="M618.21,87,622,90.8a62.28,62.28,0,0,1-7.46-2A31.87,31.87,0,0,0,618.21,87Z" transform="translate(-23.11 -25.21)" fill="#5c953b"/><path d="M626.33,81.31l10.81,10.81a64.16,64.16,0,0,1-10.38-.49l-6.07-6.07A45.72,45.72,0,0,0,626.33,81.31Z" transform="translate(-23.11 -25.21)" fill="#5c953b"/><path d="M665.61,37.6l-4.21-4.21A9,9,0,0,1,665.61,37.6Z" transform="translate(-23.11 -25.21)" fill="#a7628b"/><path d="M674.09,42.14,686.92,55a24.89,24.89,0,0,1-.21,3.73l-16-16A13.61,13.61,0,0,1,674.09,42.14Z" transform="translate(-23.11 -25.21)" fill="#a7628b"/><path d="M651.6,33.49l33,33a18.38,18.38,0,0,1-1.32,2.62l-34-34A9.3,9.3,0,0,1,651.6,33.49Z" transform="translate(-23.11 -25.21)" fill="#a7628b"/><path d="M645.34,41.06l33.6,33.6c-.62.65-1.3,1.29-2,1.93L644.21,43.87C644.58,42.86,645,41.94,645.34,41.06Z" transform="translate(-23.11 -25.21)" fill="#a7628b"/><path d="M641.83,51.38l29.56,29.56c-.77.53-1.56,1-2.38,1.56L640.94,54.42C641.25,53.38,641.55,52.37,641.83,51.38Z" transform="translate(-23.11 -25.21)" fill="#a7628b"/><path d="M637.92,64.08c.24-.72.46-1.4.69-2.1l24,24c-.89.41-1.8.81-2.73,1.19L637.59,64.91C637.7,64.62,637.82,64.37,637.92,64.08Z" transform="translate(-23.11 -25.21)" fill="#a7628b"/><path d="M634.4,71.61l18.1,18.1c-1,.29-2.07.56-3.14.8L632.86,74C633.39,73.24,633.9,72.44,634.4,71.61Z" transform="translate(-23.11 -25.21)" fill="#a7628b"/><path d="M628.35,79.39l12.49,12.49c-1.22.11-2.45.19-3.7.24L626.33,81.31C627,80.71,627.68,80.07,628.35,79.39Z" transform="translate(-23.11 -25.21)" fill="#a7628b"/><path d="M620.69,85.56l6.07,6.07c-1.58-.21-3.16-.49-4.76-.83L618.21,87C619,86.61,619.79,86.13,620.69,85.56Z" transform="translate(-23.11 -25.21)" fill="#a7628b"/><path d="M662.17,201.8a1.4,1.4,0,0,0,.82-2.52l-11.63-8.49-4.53-22.21a1.39,1.39,0,0,0-2.73.56l4.64,22.73a1.42,1.42,0,0,0,.54.85l12.06,8.81A1.42,1.42,0,0,0,662.17,201.8Z" transform="translate(-23.11 -25.21)" fill="#4a3713"/><path d="M652.5,207.36h.23a1.41,1.41,0,0,0,1.15-1.61l-2.4-14.38a1.39,1.39,0,0,0-2.75.46l2.4,14.38A1.38,1.38,0,0,0,652.5,207.36Z" transform="translate(-23.11 -25.21)" fill="#4a3713"/><path d="M642.82,203.19a1.39,1.39,0,0,0,1.14-.58l7.28-10.21a1.39,1.39,0,0,0-2.27-1.62L641.69,201a1.38,1.38,0,0,0,.33,1.94A1.32,1.32,0,0,0,642.82,203.19Z" transform="translate(-23.11 -25.21)" fill="#4a3713"/><path d="M713.49,126.85c1.74-11.49,9.39-34.45,22.62-37.93,5.56-1.39,9.39,1.74,9,7.66-.35,5.21-5.22,9-8.7,12.17,7.31-5.22,27.84-10.43,31.32,1,3.48,10.09-7,13.57-15,13.91,7,2.44,13.57,10.09,8.69,17.75-4.52,7-15.3,4.17-22.26,2.09C728.8,139.72,722.19,133.11,713.49,126.85Z" transform="translate(-23.11 -25.21)" fill="#c9b31a"/><path d="M671.4,154.26c10.53,0,29.57-7.28,16.41-20.44,6.78-1.45,13-7.57,11.85-14.1a82.63,82.63,0,0,0,13.83,6.72s-12.19,30.08-44.73,42.42C675.65,165.31,680,160.21,671.4,154.26Z" transform="translate(-23.11 -25.21)" fill="#a6cedb"/><path d="M568.4,144c4-1.3,6.64-4.6,5.85-10.39,3.48,15.31,27.84,16,25.75-1.39,8.35,15.31,30.62,9,27.84-8.35,6.26,5.57,20.18,8.35,26.44,1.39,6.26-6.26,1.39-18.09-.7-25,8.9,9.43,22.14,5.46,23.69-3.61a81.72,81.72,0,0,0,10,13.08c-2,6.76-11.89,11.34-19.74,9.23,16,14.15-6.49,24.39-20,23.67,13.82,15.91-8.91,24.94-20.56,13,4.9,18.59-14.23,12.8-23.43,6a9,9,0,0,1,.22,6.66A86.07,86.07,0,0,1,568.4,144Z" transform="translate(-23.11 -25.21)" fill="#75b0c5"/><path d="M603.54,161.56c9.2,6.79,28.33,12.58,23.43-6,11.65,12,34.38,2.93,20.56-13,13.52.72,36-9.52,20-23.67,7.85,2.11,17.71-2.47,19.74-9.23a62.12,62.12,0,0,0,12.38,10c1.13,6.53-5.07,12.65-11.85,14.1C701,147,681.93,154.26,671.4,154.26c8.55,6,4.25,11.05-2.64,14.6a78.58,78.58,0,0,1-14.65,4,97.35,97.35,0,0,1-50.35-4.61A9,9,0,0,0,603.54,161.56Z" transform="translate(-23.11 -25.21)" fill="#8ec2d3"/><path d="M404,91.57c-.73.07-1.56.12-2.47.14a38.21,38.21,0,0,1-6.06-.35c-.77-.1-1.56-.24-2.37-.4a35.21,35.21,0,0,1-5.79-1.69c-.74-.3-1.49-.62-2.25-1A33.47,33.47,0,0,1,379.61,85c-.21-.16-.42-.28-.63-.44l-1.49-1.17c-1.89-1.49-3.65-2.93-5.29-4.29l-2.09-1.74c-1.91-1.59-3.65-3-5.29-4.24-.74-.54-1.45-1-2.15-1.47a14.9,14.9,0,0,0-5.65-2.4,8.68,8.68,0,0,0-2.44,0,9.39,9.39,0,0,0-3.19,1.07,9.73,9.73,0,0,0-3.86,3.54,7.75,7.75,0,0,0-1,5c.34,2.6,1.78,4.83,3.08,5.57a12.44,12.44,0,0,0-4.29.53,11.47,11.47,0,0,0-8,9.07s-.35,3.2,2.31,7.43a20.94,20.94,0,0,0,1.93,2.56,28.47,28.47,0,0,0,5.12,4.52l.11.07a17.26,17.26,0,0,0,2.19,1.24,26.87,26.87,0,0,0,5.76,1.87c.76.16,1.55.3,2.36.42a45.74,45.74,0,0,0,6,.46c.8,0,1.62,0,2.45,0a53.09,53.09,0,0,0,6.25-.59c.83-.13,1.68-.28,2.53-.45a57.75,57.75,0,0,0,6.47-1.69c.87-.28,1.74-.6,2.62-.93a57.17,57.17,0,0,0,6.75-3.09c.92-.5,1.84-1,2.75-1.6A53.23,53.23,0,0,0,400.12,99c1-.9,2-1.86,3-2.87a54.83,54.83,0,0,0,4.37-5A27.24,27.24,0,0,1,404,91.57Z" transform="translate(-23.11 -25.21)" fill="#597b31"/><path d="M405.94,215.16a1.39,1.39,0,0,1-1.6-2.1l8.18-11.85-3-22.46a1.39,1.39,0,0,1,2.76-.37l3.1,23a1.42,1.42,0,0,1-.24,1l-8.49,12.29A1.4,1.4,0,0,1,405.94,215.16Z" transform="translate(-23.11 -25.21)" fill="#4a3713"/><path d="M416.9,217.24a.86.86,0,0,1-.23.06,1.38,1.38,0,0,1-1.6-1.14l-2.47-14.37a1.39,1.39,0,1,1,2.75-.47l2.46,14.37A1.39,1.39,0,0,1,416.9,217.24Z" transform="translate(-23.11 -25.21)" fill="#4a3713"/><path d="M426.75,210.81a1.4,1.4,0,0,1-1.26-.18l-12.32-7.94a1.38,1.38,0,0,1-.33-1.94,1.4,1.4,0,0,1,1.94-.33l12.32,7.94a1.4,1.4,0,0,1,.33,1.94A1.37,1.37,0,0,1,426.75,210.81Z" transform="translate(-23.11 -25.21)" fill="#4a3713"/><path d="M489.59,91.73s.23-30.16-32.24-45-69,5.62-80.49,34.1c-5.47,13.52-10.51,24-15.74,32.31,1.56,9.07,14.79,13,23.69,3.61-2.09,7-7,18.79-.7,25.05,6.27,7,20.18,4.18,26.45-1.39-2.79,17.4,19.48,23.66,27.83,8.35-2.09,17.4,22.27,16.7,25.75,1.39-.79,5.79,1.91,9.09,5.86,10.39a74.05,74.05,0,0,0,12.86-21.26C493.68,111.58,489.59,91.73,489.59,91.73Z" transform="translate(-23.11 -25.21)" fill="#7d3761"/><path d="M488.68,86.39l13,5.57-12.06,7.42S483.11,92.89,488.68,86.39Z" transform="translate(-23.11 -25.21)" fill="#e7b845"/><path d="M468.33,77.83a5.77,5.77,0,1,1-5.77-5.77A5.76,5.76,0,0,1,468.33,77.83Z" transform="translate(-23.11 -25.21)" fill="#26200c"/><path d="M354,62.84c3.65-3.39,7.25-4.28,10.27-4.15a13.52,13.52,0,0,1,3.35.58,14.36,14.36,0,0,1,4.49,2.26c-.77-1.56-.72-4.65.63-7.38A9,9,0,0,1,377,49.94a11.26,11.26,0,0,1,6-.93,10.84,10.84,0,0,1,3.77,1,9.54,9.54,0,0,1,2.35,1.59,17.3,17.3,0,0,1,3.91,6c.39.88.77,1.8,1.13,2.81.8,2.22,1.56,4.74,2.38,7.51.29,1,.59,2,.89,3,.7,2.37,1.47,4.9,2.34,7.56.23.7.44,1.38.69,2.1.09.28.22.55.32.83a39.56,39.56,0,0,0,3.19,6.7c.5.83,1,1.63,1.54,2.39A41.86,41.86,0,0,0,410,95.94c.68.68,1.35,1.32,2,1.91a44.23,44.23,0,0,0,5.65,4.26c.89.57,1.72,1,2.47,1.46a32.38,32.38,0,0,0,3.68,1.75,63.31,63.31,0,0,1-7.46,2c-1.6.34-3.19.62-4.76.83a64.28,64.28,0,0,1-10.39.49c-1.25,0-2.48-.13-3.7-.24a64.44,64.44,0,0,1-8.52-1.37c-1.06-.25-2.11-.51-3.14-.8a65.49,65.49,0,0,1-7.35-2.55c-.93-.38-1.84-.78-2.73-1.19a65,65,0,0,1-6.43-3.47c-.82-.51-1.61-1-2.38-1.56a51.06,51.06,0,0,1-5.54-4.35c-.71-.64-1.39-1.28-2-1.93a30.85,30.85,0,0,1-4.36-5.53,18.38,18.38,0,0,1-1.32-2.62l-.06-.13a32.65,32.65,0,0,1-2-7.68,23.63,23.63,0,0,1-.21-3.73C351.63,65.72,354,62.84,354,62.84Z" transform="translate(-23.11 -25.21)" fill="#e6db13"/><path d="M376.23,218.35a1.39,1.39,0,0,1-.82-2.52L387,207.34l4.53-22.21a1.39,1.39,0,0,1,2.73.56l-4.64,22.73a1.42,1.42,0,0,1-.54.85l-12.06,8.81A1.41,1.41,0,0,1,376.23,218.35Z" transform="translate(-23.11 -25.21)" fill="#4a3713"/><path d="M385.89,223.92l-.23,0a1.39,1.39,0,0,1-1.14-1.61l2.4-14.38a1.39,1.39,0,1,1,2.74.46l-2.4,14.38A1.39,1.39,0,0,1,385.89,223.92Z" transform="translate(-23.11 -25.21)" fill="#4a3713"/><path d="M395.57,219.74a1.38,1.38,0,0,1-1.13-.58L387.16,209a1.38,1.38,0,0,1,.32-1.94,1.4,1.4,0,0,1,1.94.32l7.28,10.21a1.39,1.39,0,0,1-.32,1.94A1.37,1.37,0,0,1,395.57,219.74Z" transform="translate(-23.11 -25.21)" fill="#4a3713"/><path d="M324.9,143.39c-1.74-11.48-9.39-34.44-22.61-37.92-5.57-1.39-9.4,1.74-9.05,7.66.35,5.21,5.22,9,8.7,12.17-7.31-5.22-27.83-10.44-31.31,1-3.48,10.09,6.95,13.57,15,13.91-7,2.44-13.57,10.09-8.7,17.75,4.52,7,15.31,4.17,22.27,2.09C309.59,156.27,316.2,149.66,324.9,143.39Z" transform="translate(-23.11 -25.21)" fill="#bd4b70"/><path d="M367,170.81c-10.53,0-29.58-7.27-16.42-20.44-6.78-1.45-13-7.57-11.85-14.1A82.63,82.63,0,0,1,324.9,143s12.19,30.08,44.74,42.42C362.74,181.86,358.44,176.76,367,170.81Z" transform="translate(-23.11 -25.21)" fill="#c785b2"/><path d="M470,160.54c-3.95-1.3-6.65-4.6-5.86-10.39-3.48,15.31-27.84,16-25.75-1.39-8.35,15.31-30.62,9.05-27.83-8.35-6.27,5.57-20.18,8.35-26.45,1.39-6.26-6.26-1.39-18.09.7-25.05-8.9,9.43-22.13,5.46-23.69-3.61a81.72,81.72,0,0,1-10,13.08c2,6.76,11.89,11.34,19.74,9.23-16,14.15,6.49,24.39,20,23.67-13.82,15.91,8.92,24.94,20.56,13-4.9,18.59,14.23,12.8,23.43,6a9,9,0,0,0-.22,6.66A86.17,86.17,0,0,0,470,160.54Z" transform="translate(-23.11 -25.21)" fill="#96497a"/><path d="M434.85,178.11c-9.2,6.79-28.33,12.58-23.43-6-11.64,12-34.38,2.93-20.56-13-13.52.72-36-9.52-20-23.67-7.85,2.11-17.71-2.47-19.74-9.23a61.84,61.84,0,0,1-12.38,10.05c-1.13,6.53,5.07,12.65,11.85,14.1-13.16,13.17,5.89,20.44,16.42,20.44-8.56,5.95-4.26,11.05,2.64,14.6a78.27,78.27,0,0,0,14.64,4,97.34,97.34,0,0,0,50.35-4.61A9,9,0,0,1,434.85,178.11Z" transform="translate(-23.11 -25.21)" fill="#af5e97"/><path d="M286.53,322.86c-.49-.17-1-.39-1.61-.64a27,27,0,0,1-3.74-2c-.46-.29-.91-.61-1.38-.95a25,25,0,0,1-3.17-2.79c-.38-.4-.76-.83-1.14-1.28A23.84,23.84,0,0,1,273,311.5l-.27-.46-.6-1.18Q271,307.6,270,305.58l-.81-1.72c-.74-1.58-1.42-3-2.1-4.25-.31-.57-.62-1.08-.93-1.57a10.26,10.26,0,0,0-2.88-3.19,5.88,5.88,0,0,0-1.54-.73,6.23,6.23,0,0,0-2.33-.26A6.65,6.65,0,0,0,256,295a5.36,5.36,0,0,0-2.12,2.89,5.55,5.55,0,0,0,.3,4.44,8.8,8.8,0,0,0-2.87-.93,8.19,8.19,0,0,0-2,0,8.28,8.28,0,0,0-5.72,3.4,8.87,8.87,0,0,0-.73,5.4,15,15,0,0,0,.47,2.19,19.76,19.76,0,0,0,1.91,4.38l.05.07a11.2,11.2,0,0,0,1,1.43,18.2,18.2,0,0,0,3.1,2.89c.43.33.89.65,1.37,1a29.91,29.91,0,0,0,3.69,2.08c.51.24,1,.48,1.56.71a38.63,38.63,0,0,0,4.14,1.47c.56.16,1.14.31,1.73.46a41.17,41.17,0,0,0,4.6.84c.64.07,1.28.13,1.94.18a37.38,37.38,0,0,0,5.19,0c.73,0,1.47-.11,2.22-.19a38.89,38.89,0,0,0,6.12-1.25q1.38-.4,2.76-.93a37.48,37.48,0,0,0,4.24-1.89A19.17,19.17,0,0,1,286.53,322.86Z" transform="translate(-23.11 -25.21)" fill="#6bab97"/><path d="M251.24,401.75a1,1,0,0,1-.39-1.8l8.69-5.1,4.71-15.12a1,1,0,0,1,1.86.58l-4.83,15.48a1,1,0,0,1-.43.55l-9,5.29A1,1,0,0,1,251.24,401.75Z" transform="translate(-23.11 -25.21)" fill="#4a3713"/><path d="M257.58,406.31l-.16,0a1,1,0,0,1-.69-1.2l2.68-9.83a1,1,0,1,1,1.88.51l-2.68,9.83A1,1,0,0,1,257.58,406.31Z" transform="translate(-23.11 -25.21)" fill="#4a3713"/><path d="M265.72,405.14a1,1,0,0,1-.75-.49L259.51,396a1,1,0,0,1,1.69-1l5.46,8.67a1,1,0,0,1-.36,1.33A1,1,0,0,1,265.72,405.14Z" transform="translate(-23.11 -25.21)" fill="#4a3713"/><path d="M340.7,348.22s9.06-19-7.14-38-45.37-16.8-61.08-2.15A145.54,145.54,0,0,1,253,323.86c-1.69,6.21,5.52,12.63,14,9.29-3.38,3.79-10,9.85-7.84,15.67,1.92,6.26,11.56,8.6,17.17,6.92-6.9,10.21,5.37,20.75,15.18,13.51-6.46,10.41,9.18,17.16,15.9,8.49-2.2,3.43-1.47,6.32.65,8.31a51.55,51.55,0,0,0,14.43-9.68C337.44,362,340.7,348.22,340.7,348.22Z" transform="translate(-23.11 -25.21)" fill="#d68700"/><path d="M341.7,344.57l6.59,7.37-9.83,1.14S336.26,347,341.7,344.57Z" transform="translate(-23.11 -25.21)" fill="#976b1a"/><path d="M331.34,333.14a4,4,0,1,1-1.95-5.36A4,4,0,0,1,331.34,333.14Z" transform="translate(-23.11 -25.21)" fill="#26200c"/><path d="M263.33,289.89a9.67,9.67,0,0,1,7.73.4,9.54,9.54,0,0,1,2,1.36,10.11,10.11,0,0,1,2.18,2.76,6.44,6.44,0,0,1,2.57-4.49,6.35,6.35,0,0,1,3.92-1.43,7.92,7.92,0,0,1,4.09,1.19,7.46,7.46,0,0,1,2.08,1.77,6.51,6.51,0,0,1,1,1.7,12,12,0,0,1,.72,4.94c0,.68-.05,1.37-.12,2.12-.15,1.64-.41,3.46-.71,5.46q-.16,1.06-.33,2.19c-.25,1.71-.52,3.54-.75,5.48-.06.51-.13,1-.18,1.53,0,.22,0,.42,0,.63a27.14,27.14,0,0,0,0,5.19c.07.67.16,1.33.27,2a27.76,27.76,0,0,0,1.27,4.74c.22.63.46,1.24.71,1.81a31.76,31.76,0,0,0,2.32,4.37q.6.93,1.14,1.65a21.49,21.49,0,0,0,1.81,2.2,44.35,44.35,0,0,1-5.32-.92c-1.12-.26-2.21-.55-3.27-.88a42.81,42.81,0,0,1-6.72-2.76c-.78-.39-1.54-.81-2.28-1.24a45.89,45.89,0,0,1-5-3.38c-.6-.47-1.19-.95-1.76-1.43a46.82,46.82,0,0,1-3.9-3.79c-.48-.52-.94-1-1.38-1.57a44.22,44.22,0,0,1-3.05-4.09c-.37-.57-.72-1.13-1.05-1.69a36.45,36.45,0,0,1-2.23-4.4c-.26-.61-.49-1.22-.7-1.81a21.43,21.43,0,0,1-1.13-4.8,11.93,11.93,0,0,1-.06-2.05v-.09a22.86,22.86,0,0,1,1-5.47,16.91,16.91,0,0,1,1-2.42A10.28,10.28,0,0,1,263.33,289.89Z" transform="translate(-23.11 -25.21)" fill="#bf486f"/><path d="M231.47,395a1,1,0,0,1,.22-1.84l9.88-2L251,378.48a1,1,0,1,1,1.56,1.16l-9.65,13a.94.94,0,0,1-.59.38l-10.25,2A1,1,0,0,1,231.47,395Z" transform="translate(-23.11 -25.21)" fill="#4a3713"/><path d="M236,401.38l-.14-.08a1,1,0,0,1-.25-1.35l5.77-8.41a1,1,0,0,1,1.6,1.1l-5.76,8.41A1,1,0,0,1,236,401.38Z" transform="translate(-23.11 -25.21)" fill="#4a3713"/><path d="M243.32,401.59a1,1,0,0,1-.55-.7l-1.6-8.62a1,1,0,0,1,1.92-.35l1.6,8.61a1,1,0,0,1-.78,1.14A.91.91,0,0,1,243.32,401.59Z" transform="translate(-23.11 -25.21)" fill="#4a3713"/><path d="M221.08,332.34c2.28-7.79,4.21-24.6-3.14-30.71-3.12-2.53-6.47-1.67-8,2.18-1.32,3.41.63,7.27,1.91,10.28-3.08-5.46-14.55-14.83-20.15-8.58-5.18,5.37.4,10.65,5.37,13.24-5.13-.51-11.58,2.39-10.75,8.68.81,5.74,8.47,7.16,13.5,7.89C207.57,336,213.71,333.74,221.08,332.34Z" transform="translate(-23.11 -25.21)" fill="#9daf30"/><path d="M239.66,362.15c-6.67-3.11-16.6-13.35-4.37-17.8-3.87-2.93-6-8.63-3.34-12.44a57.06,57.06,0,0,1-10.75.17S220,354.75,237,372.18C233.7,367.89,232.48,363.39,239.66,362.15Z" transform="translate(-23.11 -25.21)" fill="#eed3ac"/><path d="M308,386.05c-2.12-2-2.85-4.88-.65-8.31-6.72,8.67-22.36,1.92-15.9-8.49-9.81,7.24-22.08-3.3-15.18-13.51-5.61,1.68-15.25-.66-17.17-6.92-2.12-5.82,4.46-11.88,7.84-15.67-8.43,3.34-15.64-3.08-14-9.29a57.12,57.12,0,0,1-10.21,5.34c-.7,4.88,4.2,10.69,9.79,11.68-14.29,4.25-3.08,17.37,5.7,20.91-13.46,6-1.72,18.43,9.19,14.29-8.59,10.34,5.24,12.32,13.08,10.73A6.31,6.31,0,0,0,278.4,391,60.16,60.16,0,0,0,308,386.05Z" transform="translate(-23.11 -25.21)" fill="#e0aa54"/><path d="M280.51,386.81c-7.84,1.59-21.67-.39-13.08-10.73-10.91,4.14-22.65-8.29-9.19-14.29-8.78-3.54-20-16.66-5.7-20.91-5.59-1-10.49-6.8-9.79-11.68a43.21,43.21,0,0,1-10.8,2.71c-2.65,3.81-.53,9.51,3.34,12.44-12.23,4.45-2.3,14.69,4.37,17.8-7.18,1.24-6,5.74-2.64,10a55.5,55.5,0,0,0,8.11,6.84A68,68,0,0,0,278.4,391,6.31,6.31,0,0,1,280.51,386.81Z" transform="translate(-23.11 -25.21)" fill="#e5bd7c"/></svg>