<?xml version="1.0" encoding="utf-8"?>
<!-- Generator: Adobe Illustrator 23.0.4, SVG Export Plug-In . SVG Version: 6.00 Build 0)  -->
<svg version="1.1" id="Capa_1" xmlns="http://www.w3.org/2000/svg" xmlns:xlink="http://www.w3.org/1999/xlink" x="0px" y="0px"
	 viewBox="0 0 583 359.8" style="enable-background:new 0 0 583 359.8;" xml:space="preserve">
<style type="text/css">
	.st0{fill:#93E187;}
	.st1{fill:#FABE2C;}
	.st2{fill-rule:evenodd;clip-rule:evenodd;fill:#5DB9A0;}
	.st3{fill-rule:evenodd;clip-rule:evenodd;fill:#E2508F;}
	.st4{fill:#B93D3D;}
	.st5{fill:#5EBCC4;}
	.st6{fill:#603913;}
	.st7{fill:#A24983;}
	.st8{fill:#E2508F;}
	.st9{fill:#F693C9;}
	.st10{fill:#7CC589;}
	.st11{fill:#68A88D;}
	.st12{fill:#B3DE68;}
	.st13{fill:#6EAA43;}
	.st14{fill:#8BC550;}
	.st15{fill:#558830;}
	.st16{fill:#8AC550;}
	.st17{fill:#6DAA43;}
	.st18{fill:#B1DE68;}
	.st19{display:none;}
	.st20{display:inline;}
	.st21{fill:#B6A8CF;}
	.st22{fill:#723215;}
	.st23{fill:#ECBA4E;}
	.st24{fill:#585EA5;}
	.st25{fill:#ECCDA9;}
	.st26{opacity:0.55;}
	.st27{fill:#A88658;}
	.st28{fill:#805C2C;}
	.st29{opacity:0.5;}
	.st30{fill:#D9BE93;}
	.st31{fill:#4E2C0A;}
	.st32{fill:#DF9376;}
	.st33{fill:#68B8BC;}
	.st34{fill:#9E7A43;}
	.st35{fill:#B49055;}
	.st36{display:inline;opacity:0.5;}
	.st37{fill:#3F5CA6;}
	.st38{fill:#ECD0AF;}
	.st39{fill:#20385E;}
	.st40{opacity:0.4;}
	.st41{fill:#EFCDAA;}
	.st42{fill:#F4D532;}
	.st43{fill:#CD2F52;}
	.st44{opacity:0.41;}
	.st45{fill:#F9E84D;}
	.st46{fill:#D25B76;}
	.st47{fill:#F8E9EC;}
	.st48{clip-path:url(#SVGID_2_);}
	.st49{fill:#C6D74A;}
	.st50{fill:#CD397D;}
	.st51{fill:#447960;}
	.st52{fill:#60AA72;}
	.st53{fill:#F4D7A6;}
	.st54{fill:#A13D48;}
	.st55{fill:#23334B;}
	.st56{fill:#405677;}
	.st57{fill:#55352D;}
	.st58{display:inline;opacity:0.51;}
</style>
<path class="st0" d="M569.1,310.4c0,24-123.8,43.4-276.5,43.4c-64.1,0-216.7-0.5-169.9-9.2S16.1,324.3,16.1,310.3
	c0-24,123.8-43.4,276.5-43.4c83.5,0,263.3,5.7,209.1,15C447.5,291.3,569.1,299.5,569.1,310.4z"/>
<g>
	<g>
		<path class="st1" d="M451.2,224.1h-0.1C415.6,211.8,344.4,104.2,451,66c0.1,0,0.2-0.1,0.3-0.1C558.3,104,486.7,212,451.2,224.1z"
			/>
		<path class="st2" d="M427.2,186.4c11,3.1,17,8.8,23.2,16c-9.1,2.9-17.1,4.6-28.1,1.5s-17-8.8-23.2-16
			C408.2,185,416.2,183.3,427.2,186.4z"/>
		<path class="st3" d="M420.8,160.4c13.6,2.6,21.4,8.8,29.6,16.8c-10.6,4.5-20.1,7.4-33.7,4.8c-13.6-2.6-21.4-8.8-29.6-16.8
			C397.7,160.8,407.2,157.9,420.8,160.4z"/>
		<path class="st2" d="M417,132.7c15,2.1,23.9,8.6,33.4,17c-11.4,5.4-21.8,9.1-36.8,6.9c-15.1-2.2-24-8.6-33.4-17
			C391.6,134.3,402,130.6,417,132.7z"/>
		<path class="st2" d="M423.7,108.8c13,4.6,19.8,11.9,26.8,21.1c-11.2,2.8-21,4.2-34.1-0.3c-13-4.6-19.8-11.9-26.8-21.1
			C400.7,105.7,410.6,104.2,423.7,108.8z"/>
		<path class="st3" d="M425,87.2c11.3,1.3,18.1,6,25.4,12.1c-8.5,4.3-16.2,7.3-27.5,6c-11.4-1.3-18.2-5.9-25.4-12.1
			C405.9,88.8,413.6,85.8,425,87.2z"/>
		<path class="st2" d="M501.5,187.9c-6.2,7.2-12.2,12.9-23.2,16s-19,1.4-28.1-1.5c6.2-7.2,12.2-12.9,23.2-16
			C484.4,183.3,492.4,185,501.5,187.9z"/>
		<path class="st3" d="M513.6,165.2c-8.2,8-16.1,14.2-29.6,16.8c-13.6,2.6-23.1-0.3-33.7-4.8c8.3-8,16.1-14.2,29.6-16.8
			C493.4,157.9,502.9,160.8,513.6,165.2z"/>
		<path class="st3" d="M520.4,139.7c-9.5,8.4-18.4,14.8-33.4,17c-15,2.1-25.4-1.5-36.8-6.9c9.5-8.4,18.3-14.8,33.4-17
			C498.6,130.6,509,134.3,520.4,139.7z"/>
		<path class="st2" d="M511,108.5c-6.9,9.2-13.7,16.5-26.8,21.1c-13,4.6-22.9,3.1-34.1,0.3c7-9.2,13.7-16.5,26.8-21.1
			C490,104.2,499.9,105.7,511,108.5z"/>
		<path class="st2" d="M503.1,93.1c-7.3,6.1-14.1,10.8-25.4,12.1s-19-1.7-27.5-6c7.3-6.1,14.1-10.8,25.4-12.1
			C487,85.8,494.7,88.8,503.1,93.1z"/>
		<polygon class="st4" points="451.7,87.5 461.2,314.6 441.4,314.6 450.7,87.5 		"/>
	</g>
	<g>
		<path class="st5" d="M345.4,18.1L345.4,18.1c-24.7,13-74.3,126.2-0.2,166.4l0.2,0.1C419.8,144.4,370.1,30.8,345.4,18.1z"/>
		<path class="st6" d="M347.1,290.5V80.9c0-0.9-0.8-1.7-1.7-1.7s-1.7,0.8-1.7,1.7v209.6c0,0.9,0.8,1.7,1.7,1.7
			S347.1,291.5,347.1,290.5L347.1,290.5z"/>
		<path class="st6" d="M362.4,60.8c-3.3,11-7.8,17.6-11.4,21.6c-1.8,2-3.3,3.3-4.5,4c-0.5,0.4-1,0.7-1.3,0.9
			c-0.2,0.1-0.3,0.2-0.3,0.2h-0.1l0,0c-0.9,0.4-1.2,1.4-0.9,2.2c0.4,0.9,1.4,1.2,2.2,0.9c0.2-0.1,3.3-1.5,7.3-5.9
			c3.9-4.4,8.6-11.6,12.1-22.9c0.3-0.9-0.3-1.9-1.1-2.1C363.6,59.3,362.7,59.8,362.4,60.8z"/>
		<path class="st7" d="M362.9,67.6c-2.7-0.8-4.3-3.7-3.4-6.4s3.7-4.3,6.4-3.4c2.7,0.8,4.3,3.7,3.4,6.4
			C368.4,66.9,365.5,68.4,362.9,67.6z"/>
		<path class="st6" d="M368.1,141.4c-5.2,8.6-10.8,13.8-15.1,16.9c-2.1,1.5-3.9,2.6-5.2,3.2c-0.6,0.3-1.1,0.5-1.5,0.6
			c-0.2,0.1-0.3,0.1-0.3,0.2h-0.1l0,0l0.2,0.5l-0.2-0.5l0,0l0.2,0.5l-0.2-0.5c-0.9,0.3-1.4,1.3-1.1,2.1c0.3,0.9,1.3,1.4,2.1,1.1
			c0.2-0.1,3.4-1.1,8-4.5c4.6-3.3,10.6-8.9,16-17.9c0.5-0.8,0.3-1.9-0.6-2.3C369.6,140.3,368.5,140.6,368.1,141.4z"/>
		<path class="st7" d="M367.7,146.5c-2.7-0.9-4.3-3.7-3.4-6.4s3.7-4.3,6.4-3.4c2.7,0.9,4.3,3.7,3.4,6.4S370.4,147.4,367.7,146.5z"/>
		<path class="st6" d="M320,71.2c3.9,10.6,9.8,18.1,14.6,22.9c5,4.8,8.9,6.9,9,6.9c0.9,0.4,1.9,0.1,2.3-0.7c0.4-0.9,0.1-1.9-0.7-2.3
			l0,0c-0.1-0.1-3.9-2.1-8.5-6.6s-10-11.5-13.6-21.3c-0.3-0.9-1.3-1.4-2.2-1C320.1,69.3,319.6,70.3,320,71.2z"/>
		<path class="st7" d="M320.1,78c-3.2-0.9-5-4.3-4-7.4s4.3-5,7.4-4c3.2,0.9,5,4.3,4,7.4C326.6,77.1,323.3,78.9,320.1,78z"/>
		<path class="st6" d="M329,156.9c2.6,6.7,6.3,10.9,9.6,13.3c3.2,2.5,5.7,3.3,5.9,3.3c0.9,0.3,1.9-0.3,2.1-1.2s-0.3-1.9-1.2-2.1v0.1
			v-0.1l0,0v0.1v-0.1c-0.2,0-2.3-0.8-5.1-2.9c-2.7-2.1-5.9-5.7-8.2-11.6c-0.3-0.9-1.3-1.3-2.2-0.9C329,155.1,328.6,156.1,329,156.9z
			"/>
		<path class="st7" d="M332.3,162.6c2.1-0.2,3.7-2.2,3.4-4.5c-0.3-2.2-2.1-3.9-4.3-3.7c-2.1,0.2-3.7,2.2-3.4,4.5
			C328.3,161.1,330.2,162.8,332.3,162.6z"/>
		<path class="st6" d="M374.4,90.9c-8.3,8.3-15.5,12.6-20.6,14.8c-2.6,1.1-4.5,1.7-5.9,2.1c-0.7,0.2-1.2,0.3-1.5,0.3
			c-0.2,0-0.3,0-0.3,0.1H346l0,0l0.1,0.8l-0.1-0.8l0,0l0.1,0.8l-0.1-0.8c-0.9,0.1-1.6,0.9-1.5,1.8s0.9,1.6,1.8,1.5
			c0.3,0,13.4-1.2,30.6-18.3c0.7-0.7,0.7-1.7,0-2.4C376.2,90.3,375.1,90.3,374.4,90.9z"/>
		<path class="st7" d="M374.5,96.3c2.1,0.6,4.2-0.7,4.9-2.8c0.7-2.1-0.5-4.5-2.6-5.1s-4.2,0.7-4.9,2.8
			C371.3,93.4,372.5,95.6,374.5,96.3z"/>
		<path class="st6" d="M323.5,103.3c3.4,11.4,8.1,18.6,12.1,22.9c3.9,4.4,7.1,5.8,7.3,5.9c0.9,0.4,1.9,0,2.2-0.9
			c0.4-0.9,0-1.9-0.9-2.2l0,0c-0.2-0.1-3-1.5-6.5-5.5s-7.9-10.6-11-21.2c-0.3-0.9-1.2-1.5-2.1-1.1
			C323.6,101.5,323.1,102.4,323.5,103.3z"/>
		<path class="st7" d="M326.3,109.2c2.7-0.8,4.3-3.7,3.4-6.4c-0.8-2.7-3.7-4.3-6.4-3.4c-2.7,0.8-4.3,3.7-3.4,6.4
			C320.7,108.4,323.6,109.9,326.3,109.2z"/>
		<path class="st6" d="M367.2,118.5c-3.6,10-9.2,17-13.8,21.6c-2.3,2.2-4.4,3.9-5.9,4.9c-0.8,0.5-1.4,0.9-1.7,1.1
			c-0.2,0.1-0.3,0.2-0.4,0.3l-0.1,0.1l0,0l0,0c-0.9,0.4-1.1,1.5-0.7,2.3s1.5,1.1,2.3,0.7c0.1-0.1,4.1-2.2,9-6.9
			c5-4.8,10.8-12.2,14.6-22.9c0.3-0.9-0.2-1.9-1-2.2C368.6,117.2,367.6,117.6,367.2,118.5z"/>
		<path class="st7" d="M370.4,126.6c3.2-0.9,5-4.3,4-7.4c-0.9-3.2-4.3-5-7.4-4c-3.2,0.9-5,4.3-4,7.4
			C363.9,125.7,367.2,127.5,370.4,126.6z"/>
		<path class="st6" d="M329.4,64.4c2.6,6.7,6.3,10.9,9.6,13.3c3.2,2.5,5.7,3.3,5.9,3.3c0.9,0.3,1.9-0.3,2.1-1.2
			c0.3-0.9-0.3-1.9-1.2-2.1v0.1v-0.1l0,0v0.1v-0.1c-0.2,0-2.3-0.8-5.1-2.9s-5.9-5.7-8.2-11.6c-0.3-0.9-1.3-1.3-2.2-0.9
			C329.5,62.5,329,63.5,329.4,64.4z"/>
		<path class="st7" d="M332.7,70c2.1-0.2,3.7-2.2,3.4-4.5c-0.3-2.2-2.1-3.9-4.3-3.7c-2.1,0.2-3.7,2.2-3.4,4.5
			C328.7,68.6,330.6,70.2,332.7,70z"/>
		<path class="st6" d="M314.5,132.5c17.2,17.1,30.2,18.2,30.6,18.3c0.9,0.1,1.8-0.6,1.8-1.5c0.1-0.9-0.6-1.8-1.5-1.8l-0.1,0.8
			l0.1-0.8l0,0l-0.1,0.8l0.1-0.8c0,0-12-1-28.4-17.3c-0.7-0.7-1.7-0.7-2.4,0C313.8,130.7,313.8,131.8,314.5,132.5z"/>
		<path class="st7" d="M316.8,135.4c-2.1,0.6-4.2-0.7-4.9-2.8c-0.7-2.1,0.5-4.5,2.6-5.1s4.2,0.7,4.9,2.8
			C320,132.5,318.9,134.8,316.8,135.4z"/>
	</g>
	<g>
		<polygon class="st6" points="124,140.2 125.5,298 119.1,298 120.6,140.2 		"/>
		<path class="st8" d="M181.8,149.8c0,32.9-26.7,59.6-59.6,59.6s-59.6-26.7-59.6-59.6s26.7-59.6,59.6-59.6
			C155.1,90.2,181.8,116.9,181.8,149.8z"/>
		<path class="st8" d="M122.4,112.6v83.5c0,0.9,0.8,1.7,1.7,1.7s1.7-0.8,1.7-1.7v-83.5c0-0.9-0.8-1.7-1.7-1.7
			S122.4,111.6,122.4,112.6L122.4,112.6z"/>
		<circle class="st7" cx="124.1" cy="112.3" r="4.6"/>
		<circle class="st7" cx="124.1" cy="196.1" r="4.6"/>
		<path class="st8" d="M107.5,116l30.2,77.9c0.3,0.9,1.3,1.3,2.2,1s1.3-1.3,1-2.2l-30.2-77.9c-0.3-0.9-1.3-1.3-2.2-1
			C107.6,114.2,107.1,115.1,107.5,116L107.5,116z"/>
		<path class="st7" d="M113.2,113.5c0.9,2.3-0.3,5-2.6,5.9c-2.3,0.9-5-0.3-5.9-2.6s0.3-5,2.6-5.9C109.7,110,112.3,111.2,113.2,113.5
			z"/>
		<path class="st7" d="M143.5,191.6c0.9,2.3-0.3,5-2.6,5.9s-5-0.3-5.9-2.6s0.3-5,2.6-5.9C140,188.1,142.6,189.3,143.5,191.6z"/>
		<path class="st8" d="M158.2,130.2L88,175.5c-0.8,0.5-1,1.6-0.5,2.3c0.5,0.8,1.6,1,2.3,0.5L160,133c0.8-0.5,1-1.6,0.5-2.3
			C160,129.9,159,129.7,158.2,130.2L158.2,130.2z"/>
		<path class="st7" d="M161.8,135.3c-2.1,1.4-4.9,0.8-6.3-1.4c-1.4-2.1-0.8-4.9,1.4-6.3c2.1-1.4,4.9-0.8,6.3,1.4
			C164.5,131.1,163.9,134,161.8,135.3z"/>
		<path class="st7" d="M91.4,180.8c-2.1,1.4-4.9,0.8-6.3-1.4c-1.4-2.1-0.8-4.9,1.4-6.3c2.1-1.4,4.9-0.8,6.3,1.4
			C94.1,176.6,93.5,179.4,91.4,180.8z"/>
		<path class="st8" d="M147.2,119.5l-49,67.7c-0.5,0.8-0.4,1.8,0.4,2.4c0.8,0.5,1.8,0.4,2.4-0.4l49-67.7c0.5-0.8,0.4-1.8-0.4-2.4
			C148.8,118.6,147.7,118.8,147.2,119.5L147.2,119.5z"/>
		<path class="st7" d="M152.4,123c-1.5,2-4.3,2.5-6.4,1c-2-1.5-2.5-4.3-1-6.4c1.5-2,4.3-2.5,6.4-1
			C153.4,118.1,153.9,120.9,152.4,123z"/>
		<path class="st7" d="M103.2,190.8c-1.5,2-4.3,2.5-6.4,1c-2-1.5-2.5-4.3-1-6.4c1.5-2,4.3-2.5,6.4-1
			C104.3,185.9,104.7,188.8,103.2,190.8z"/>
		<path class="st8" d="M82.9,148.2l82.1,15.4c0.9,0.2,1.8-0.4,2-1.3c0.2-0.9-0.4-1.8-1.3-2l-82.1-15.4c-0.9-0.2-1.8,0.4-2,1.3
			C81.3,147.2,82,148,82.9,148.2L82.9,148.2z"/>
		<path class="st7" d="M83.8,142c2.5,0.5,4.1,2.8,3.6,5.3s-2.8,4.1-5.3,3.6s-4.1-2.8-3.6-5.3C78.9,143.2,81.3,141.6,83.8,142z"/>
		<path class="st7" d="M166.1,157.5c2.5,0.5,4.1,2.8,3.6,5.3s-2.8,4.1-5.3,3.6s-4.1-2.8-3.6-5.3S163.7,157,166.1,157.5z"/>
		<path class="st8" d="M85.5,169.9l78.6-28.2c0.9-0.3,1.3-1.3,1-2.2s-1.3-1.3-2.2-1l-78.6,28.2c-0.9,0.3-1.3,1.3-1,2.2
			C83.6,169.7,84.6,170.2,85.5,169.9L85.5,169.9z"/>
		<path class="st7" d="M83.2,164.1c2.4-0.9,5,0.4,5.8,2.8c0.8,2.4-0.4,5-2.8,5.8c-2.4,0.9-5-0.4-5.8-2.8
			C79.6,167.5,80.8,164.9,83.2,164.1z"/>
		<path class="st7" d="M162,135.8c2.4-0.9,5,0.4,5.8,2.8c0.9,2.4-0.4,5-2.8,5.8c-2.4,0.8-5-0.4-5.8-2.8
			C158.4,139.3,159.6,136.6,162,135.8z"/>
		<path class="st8" d="M97.5,122.1l50.6,66.5c0.6,0.7,1.6,0.9,2.4,0.3c0.7-0.6,0.9-1.6,0.3-2.4L100.2,120c-0.6-0.7-1.6-0.9-2.4-0.3
			C97.1,120.3,97,121.4,97.5,122.1L97.5,122.1z"/>
		<path class="st7" d="M102.4,118.1c1.5,2,1.1,4.9-0.9,6.4s-4.9,1.1-6.4-0.9s-1.1-4.9,0.9-6.4C98,115.8,100.8,116.1,102.4,118.1z"/>
		<path class="st7" d="M153.1,184.8c1.5,2,1.1,4.9-0.9,6.4s-4.9,1.1-6.4-0.9s-1.1-4.9,0.9-6.4C148.7,182.4,151.6,182.8,153.1,184.8z
			"/>
		<path class="st8" d="M87.7,133.9l71.2,43.6c0.8,0.5,1.8,0.2,2.3-0.6s0.2-1.8-0.6-2.3L89.5,131c-0.8-0.5-1.8-0.2-2.3,0.6
			C86.7,132.4,86.9,133.4,87.7,133.9L87.7,133.9z"/>
		<path class="st7" d="M90.8,128.5c2.1,1.3,2.8,4.1,1.5,6.3c-1.3,2.1-4.1,2.8-6.3,1.5c-2.1-1.3-2.8-4.1-1.5-6.3
			S88.6,127.1,90.8,128.5z"/>
		<path class="st7" d="M162.2,172.2c2.1,1.3,2.8,4.1,1.5,6.3c-1.3,2.1-4.1,2.8-6.3,1.5c-2.1-1.3-2.8-4.1-1.5-6.3
			C157.3,171.6,160.1,170.9,162.2,172.2z"/>
		<path class="st9" d="M151.6,153.1c0,16.2-13.1,29.3-29.3,29.3S93,169.3,93,153.1s13.1-29.3,29.3-29.3S151.6,136.9,151.6,153.1z"/>
		<path class="st4" d="M138.4,156.3c0,9.9-8.1,18-18.1,18s-18.1-8.1-18.1-18s8.1-18,18.1-18S138.4,146.3,138.4,156.3z"/>
		<path class="st1" d="M158.8,144.4L158.8,144.4c0,1.3,1,2.3,2.3,2.3s2.3-1,2.3-2.3s-1-2.3-2.3-2.3S158.8,143.1,158.8,144.4z
			 M158.8,144.2L158.8,144.2c0,1.3,1,2.3,2.3,2.3s2.3-1,2.3-2.3l0,0c0-1.3-1-2.3-2.3-2.3C159.9,141.9,158.8,143,158.8,144.2z
			 M157.8,135.5L157.8,135.5c0.3,1.2,1.5,2,2.8,1.7c1.2-0.3,2-1.5,1.7-2.8c-0.3-1.2-1.5-2-2.8-1.7
			C158.3,133,157.5,134.3,157.8,135.5z M154.9,127.2L154.9,127.2c0.6,1.2,1.9,1.6,3.1,1.1c1.2-0.6,1.6-1.9,1.1-3.1
			c-0.6-1.2-1.9-1.6-3.1-1.1C154.8,124.7,154.3,126.1,154.9,127.2z M150.2,119.8L150.2,119.8c0.8,1,2.3,1.2,3.3,0.4s1.2-2.3,0.4-3.3
			l0,0c-0.8-1-2.3-1.2-3.3-0.4C149.5,117.4,149.4,118.8,150.2,119.8L150.2,119.8z M143.9,113.6L143.9,113.6c1,0.8,2.5,0.6,3.3-0.4
			s0.6-2.5-0.4-3.3s-2.5-0.6-3.3,0.4C142.8,111.4,142.9,112.8,143.9,113.6z M136.5,109L136.5,109c1.2,0.6,2.5,0.1,3.1-1.1
			s0.1-2.5-1.1-3.1c-1.2-0.6-2.5-0.1-3.1,1.1C134.8,107,135.3,108.4,136.5,109z M128.2,106.1L128.2,106.1c1.2,0.3,2.5-0.5,2.8-1.8
			s-0.5-2.5-1.8-2.8s-2.5,0.5-2.8,1.8C126.1,104.6,126.9,105.8,128.2,106.1z M119.4,105.1L119.4,105.1c1.3,0,2.3-1,2.3-2.3
			s-1-2.3-2.3-2.3l0,0c-1.3,0-2.3,1-2.3,2.3S118.2,105.1,119.4,105.1z M110.7,106.1L110.7,106.1c1.2-0.3,2-1.5,1.7-2.8
			c-0.3-1.2-1.5-2-2.8-1.7c-1.2,0.3-2,1.5-1.7,2.8C108.2,105.6,109.5,106.4,110.7,106.1z M102.4,109.1L102.4,109.1
			c1.2-0.6,1.6-1.9,1.1-3.1c-0.6-1.2-1.9-1.6-3.1-1.1c-1.2,0.6-1.6,1.9-1.1,3.1C99.9,109.1,101.3,109.6,102.4,109.1z M95,113.8
			L95,113.8c1-0.8,1.2-2.3,0.4-3.3c-0.8-1-2.3-1.2-3.3-0.4s-1.2,2.3-0.4,3.3C92.5,114.4,94,114.6,95,113.8z M88.8,120L88.8,120
			c0.8-1,0.6-2.5-0.4-3.3s-2.5-0.6-3.3,0.4s-0.6,2.5,0.4,3.3S88,121,88.8,120z M84.1,127.4L84.1,127.4c0.6-1.2,0.1-2.5-1.1-3.1
			s-2.5-0.1-3.1,1.1s-0.1,2.5,1.1,3.1C82.2,129.1,83.6,128.6,84.1,127.4z M81.2,135.7L81.2,135.7c0.3-1.2-0.5-2.5-1.8-2.8
			c-1.2-0.3-2.5,0.5-2.8,1.8c-0.3,1.2,0.5,2.5,1.8,2.8S81,137,81.2,135.7z M80.3,144.5L80.3,144.5c0-1.3-1-2.3-2.3-2.3
			s-2.3,1-2.3,2.3s1,2.3,2.3,2.3S80.3,145.8,80.3,144.5z M81.3,153.2L81.3,153.2c-0.3-1.2-1.5-2-2.8-1.7c-1.2,0.3-2,1.5-1.7,2.8
			c0.3,1.2,1.5,2,2.8,1.7C80.8,155.7,81.6,154.5,81.3,153.2z M84.2,161.5L84.2,161.5c-0.6-1.2-1.9-1.6-3.1-1.1
			c-1.2,0.6-1.6,1.9-1.1,3.1c0.6,1.2,1.9,1.6,3.1,1.1C84.3,164.1,84.8,162.7,84.2,161.5z M88.9,168.9L88.9,168.9
			c-0.8-1-2.3-1.2-3.3-0.4s-1.2,2.3-0.4,3.3c0.8,1,2.3,1.2,3.3,0.4S89.7,169.9,88.9,168.9z M95.1,175.2L95.1,175.2
			c-1-0.8-2.5-0.6-3.3,0.4s-0.6,2.5,0.4,3.3s2.5,0.6,3.3-0.4C96.3,177.4,96.1,176,95.1,175.2z M102.6,179.8L102.6,179.8
			c-1.2-0.6-2.5-0.1-3.1,1.1c-0.6,1.2-0.1,2.5,1.1,3.1s2.5,0.1,3.1-1.1C104.2,181.8,103.7,180.4,102.6,179.8z M110.9,182.7
			L110.9,182.7c-1.2-0.3-2.5,0.5-2.8,1.8c-0.3,1.2,0.5,2.5,1.8,2.8c1.2,0.3,2.5-0.5,2.8-1.8C112.9,184.2,112.1,183,110.9,182.7z
			 M119.6,183.7L119.6,183.7c-1.3,0-2.3,1-2.3,2.3s1,2.3,2.3,2.3l0,0c1.3,0,2.3-1,2.3-2.3S120.9,183.7,119.6,183.7z M128.3,182.7
			L128.3,182.7c-1.2,0.3-2,1.5-1.7,2.8c0.3,1.2,1.5,2,2.8,1.7c1.2-0.3,2-1.5,1.7-2.8C130.8,183.2,129.6,182.4,128.3,182.7z
			 M136.6,179.8L136.6,179.8c-1.2,0.6-1.6,1.9-1.1,3.1c0.6,1.2,1.9,1.6,3.1,1.1c1.2-0.6,1.6-1.9,1.1-3.1
			C139.2,179.7,137.8,179.2,136.6,179.8z M144.1,175.1L144.1,175.1c-1,0.8-1.2,2.3-0.4,3.3s2.3,1.2,3.3,0.4s1.2-2.3,0.4-3.3
			C146.5,174.5,145.1,174.3,144.1,175.1z M150.3,168.9L150.3,168.9c-0.8,1-0.6,2.5,0.4,3.3s2.5,0.6,3.3-0.4s0.6-2.5-0.4-3.3
			C152.5,167.7,151.1,167.9,150.3,168.9z M155,161.4L155,161.4c-0.6,1.2-0.1,2.5,1.1,3.1c1.2,0.6,2.5,0.1,3.1-1.1l0,0
			c0.6-1.2,0.1-2.5-1.1-3.1C156.9,159.8,155.5,160.3,155,161.4z M157.9,153.1L157.9,153.1c-0.3,1.2,0.5,2.5,1.7,2.8s2.5-0.5,2.8-1.7
			s-0.5-2.5-1.7-2.8C159.4,151.1,158.2,151.9,157.9,153.1z"/>
	</g>
	<path id="XMLID_26_" class="st0" d="M368.2,282.7c-12.3,6.3-27,7.3-40.2,3.6c-7.8-2.2-15.1-7-20.3-13.3c-2.2-2.8-6-2.8-9-5
		s-5.4-5.3-6.5-8.8c-0.7-2.1-0.8-4.6,0.6-6.2c1.6-1.7,4.4-1.6,6.5-0.7c2.1,0.9,3.9,2.6,6,3.6c-3.9-2.8-6.3-7.7-5.9-12.5
		c0.1-1.4,0.5-2.9,1.3-4c0.9-1.2,2.3-2,3.7-1.8c1.9,0.2,3.2,2,3.8,3.8s0.8,3.7,1.7,5.4c0.8-4.4,5-7.8,9.4-7.9
		c4.4-0.1,8.7,3.3,9.6,7.6c0.2-2.7-0.5-5.4-0.8-8.1c-0.4-2.7-0.4-5.6,1-7.9c1.4-2.3,4.5-3.8,6.9-2.5c1.3,0.7,2.2,2.1,2.7,3.5
		c1.3,3.8,0.5,7.9-0.3,11.8c-0.4-2.5,1.1-5.3,3.5-6.2s5.4,0,6.8,2.2s1,5.3-0.8,7.1c-0.2-5.6,3.6-11.2,8.9-13.1
		c2.2-0.8,5.2-0.7,6.4,1.3c1,1.5,0.6,3.6-0.1,5.3c-1.3,3.3-3.3,6.3-5.8,8.7c9.8-9.4,21.3,10.8,9.5,16.6c1.7-3.4,7.2-3.6,9.7-0.7
		s2.3,7.5,0.4,10.8C375,278.7,371.6,281,368.2,282.7z"/>
	<g>
		<path id="XMLID_23_" class="st10" d="M165.6,313.4c3.4,1.7,7.3,2.4,10.3,4.6h165.3c2.5-4.4,3-10.1,0.4-14.5
			c-4.3-7.1-15.2-8.6-21.5-3.4c3.4-3.5,5.5-8.2,5.9-13c-4.9-1-10.3,0.4-14.1,3.6c5-4.6,8.3-11.3,7.9-18.2
			c-0.5-6.8-5.1-13.4-11.6-15.3s-14.5,1.7-16.6,8.2c0.5-8.1-5.6-16.1-13.6-17.8s-16.8,3.2-19.6,10.9c-1-9.3-3.3-20.2-11.9-23.8
			c-7.5-3.1-16.4,1.5-20.8,8.4c-3.9,6-5.1,13.3-5.9,20.4c-0.7-4.4-6.5-8.1-10.8-5.8c-4.5,2.5-4.9,9.4-1.6,13.2
			c-5.3-4.1-13.2-4.7-19-1.4c-6,3.4-9.3,10.8-8.3,17.5c-1.3-3.1-6.1-4.5-9.1-2.4c-3.5,2.4-4.2,7.4-2.9,11.4c1.4,4,4.4,7.2,7.3,10.2
			c-2-2-4.2-4.1-6.9-5.1c-2.7-0.9-6.2-0.3-7.7,2.1C158.6,306.9,161.9,311.5,165.6,313.4z"/>
		<path id="XMLID_13_" class="st11" d="M235.6,271.3c-0.6-1.6-1.6-2.8-3.4-2.9c-3.3-0.3-6.3,2.4-6.8,5.5c-1.1-1.3-2.5-2.6-4-3.2
			c-1.9-0.7-3.5,0.3-5,1.4c-2.7,2.1-3.1,6.6-0.9,9.2c0.5,0.6,1.4-0.3,0.9-0.9c-0.8-0.9-1-2.8-1-4c0-1.9,1.2-3,2.7-3.9
			c3.1-1.9,5.7,1.3,7.5,3.6c0.5,0.6,1.3-0.1,1-0.8c-0.2-2.5,1.5-4.8,4-5.5c1.9-0.6,3.3,0.3,4,2.1c0.4,1.1,1.6,3.4,0.9,4.5
			c-0.4,0.7,0.7,1.3,1.1,0.6C237.5,275.3,236.3,273,235.6,271.3z"/>
		<path id="XMLID_12_" class="st11" d="M266.8,267.8c-1.7-0.3-3.4,0.1-4.7,1.1c-0.3-3.7-1.4-8.5-5.1-8.3c-3.2,0.2-7.7,4.9-5.4,8.1
			c0.5,0.7,1.6,0,1.1-0.6c-2.1-2.8,4.2-8.4,6.5-5c1.3,1.9,1.6,4.8,1.7,7.3c-0.2,0.5-0.4,1-0.4,1.6c0,0.7,0.8,0.8,1.1,0.3
			c0.3-0.1,0.5-0.2,0.5-0.6c0-0.3,0-0.7,0-1c0.7-1.1,2-1.6,3.3-1.7s4.5,1.1,2.7,2.8c-0.6,0.6,0.3,1.5,0.9,0.9
			C271.2,270.7,269,268.1,266.8,267.8z"/>
		<path id="XMLID_11_" class="st11" d="M289.1,267.3c-3.2,0-5.7,2.7-6.3,5.7c-0.2,0.8,1.1,1.1,1.2,0.3c0.4-2.2,2-4.3,4.3-4.7
			c2.6-0.5,5.1,1.5,5.3,4.1c0,0.8,1.3,0.8,1.3,0C294.7,269.8,292.2,267.3,289.1,267.3z"/>
	</g>
	<g>
		<path id="XMLID_20_" class="st11" d="M271.5,299.7c0.3,0.7,0.7,1.4,1.1,2h80c0.6-0.4,1.2-0.8,1.7-1.2c2-1.8,3-4.9,1.7-7.3
			c-1-1.8-3.2-2.7-5.3-2.7s-4.1,0.8-5.9,1.7c3-2.2,5.4-5.3,5.9-9s-1.2-7.7-4.5-9.3c-3.3-1.6-8,0-9.1,3.6c0.7-2.9,1.4-5.8,1.2-8.7
			c-0.1-2.9-1.2-6-3.5-7.8c-3.4-2.7-8.5-2.1-12.3,0c-5.3,3-9.1,8.5-9.9,14.6c-1-3,0.1-6.2,0.2-9.3c0.1-3.1-1.7-7-4.8-6.8
			c-2,0.1-3.5,1.9-4.6,3.6c-3.8,5.9-6.2,12.7-7,19.6c-4.5-4.3-4.6-12.9-10.5-14.6c-4.1-1.2-8.5,2.3-9.7,6.5s-0.2,8.6,0.8,12.8
			c-0.9-2.3-1.9-4.8-3.7-6.5c-1.9-1.7-4.9-2.4-6.9-0.8c-2.4,1.8-2,5.6-0.9,8.4C267.1,292.5,269.7,295.9,271.5,299.7z"/>
		<path id="XMLID_18_" class="st10" d="M326.5,279.9c-0.7-0.5-1.7-0.7-2.5-0.5c0.6-3.1,0.2-6.9-3.8-6.7c-2.7,0.2-4.8,2-5.7,4.4
			c-0.7-1.4-2.1-2.3-3.9-2.1c-2.6,0.4-3.7,2.9-3.5,5.2c0,0.7,1.1,0.7,1,0c-0.1-1.3,0-3.2,1.4-3.8c2.2-1,4.4,0.3,4.4,2.8
			c0,0.7,1,0.6,1,0c0.2-2.3,1.6-4.3,3.8-5.2c4.4-1.7,4.8,3.1,4,5.9c-0.1,0.1-0.2,0.2-0.3,0.4c-0.4,0.5,0.3,1.2,0.7,0.7
			c0-0.1,0.1-0.1,0.1-0.1c0.2,0,0.3-0.1,0.4-0.3c0.6-0.4,1.5-0.5,2.1,0c0.9,0.7,1,2,0.5,2.9c-0.3,0.6,0.6,1.1,0.9,0.5
			C328,282.8,327.8,280.9,326.5,279.9z"/>
		<path id="XMLID_17_" class="st10" d="M294.1,280.9c-2.3-0.5-3.2,1.5-3.5,3.4c-1-1.7-2.5-3.6-4.4-2.4c-2.2,1.4-1.4,4.7,0.1,6.3
			c0.5,0.5,1.2-0.3,0.7-0.7c-0.6-0.6-1.1-1.3-1.1-2.2c-0.1-1.2,0.3-3.6,2.6-2.2c0.9,0.6,1.5,2.2,2,3.2c0.2,0.5,1,0.2,1-0.3
			c0-1.3-0.1-3.4,1.4-4c2.3-0.9,2.9,2.8,2.3,3.8c-0.3,0.6,0.5,1.1,0.9,0.5C297,284.8,296.2,281.4,294.1,280.9z"/>
		<path id="XMLID_16_" class="st10" d="M323.5,291c-1.8,0.6-4,2.7-3.3,4.8c0.2,0.6,1.2,0.4,1-0.3c-0.5-1.4,1.3-3,2.5-3.4
			c1.5-0.5,2.9,0.5,3.1,2c0.1,0.6,1.1,0.4,1-0.3C327.4,291.8,325.4,290.4,323.5,291z"/>
	</g>
	<g id="XMLID_52_">
		<path id="XMLID_78_" class="st12" d="M420.5,308.3c-8.9,4.6-19.6,5.3-29.2,2.6c-5.7-1.6-11-5.1-14.7-9.6c-1.6-2-4.4-2-6.5-3.6
			c-2.2-1.6-3.9-3.8-4.7-6.4c-0.5-1.5-0.6-3.3,0.5-4.5c1.1-1.3,3.2-1.2,4.7-0.5c1.6,0.7,2.8,1.9,4.4,2.6c-2.9-2-4.5-5.6-4.3-9
			c0.1-1,0.3-2.1,0.9-2.9s1.7-1.4,2.7-1.3c1.4,0.2,2.3,1.5,2.7,2.7c0.5,1.3,0.6,2.7,1.2,3.9c0.6-3.2,3.6-5.7,6.8-5.7s6.3,2.4,7,5.5
			c0.1-2-0.3-3.9-0.6-5.8c-0.3-1.9-0.3-4,0.7-5.7s3.3-2.7,5-1.8c1,0.5,1.6,1.5,1.9,2.6c0.9,2.7,0.4,5.7-0.2,8.6
			c-0.3-1.8,0.8-3.8,2.5-4.5s3.9,0,4.9,1.6s0.8,3.8-0.6,5.1c-0.2-4.1,2.6-8.1,6.5-9.5c1.6-0.6,3.7-0.5,4.7,0.9
			c0.7,1.1,0.4,2.6-0.1,3.8c-0.9,2.4-2.4,4.6-4.2,6.3c7.1-6.8,15.4,7.8,6.9,12c1.2-2.5,5.2-2.6,7.1-0.5c1.8,2.1,1.7,5.4,0.3,7.8
			C425.4,305.4,423,307,420.5,308.3z"/>
		<path id="XMLID_77_" class="st13" d="M321.8,299.2c-2.4,0.4-5,0.4-6.9,1.5c-5.2,2.9-9.1,6.9-15.4,7.6c-6.5,0.7-16.5-1.5-21.2-6.4
			c-1.1-1.1-6.4-11.3-6.2-11.3c2.1-0.4,4.4,0.6,5.7,2.4c-1-1.8-1.9-3.8-1.9-5.9s1.5-5.8,4.2-5.4c2,0.2,4.5,4.2,5.4,5.8
			c-0.5-1.9-1-3.7-1.5-5.6c-0.3-1.1-0.6-2.3-0.2-3.4c0.6-1.6,2.6-2.3,4.2-1.8s2.8,2,3.3,3.6c0.6,1.6,0.7,3.3,0.7,5
			c-1-1.9,0.1-4.5,2.1-5.2s4.5,0.7,4.9,2.8c-0.5-2.4-3.4-8-0.7-10c0.9-0.7,2.4-0.5,3.3,0.3s1.3,1.9,1.4,3.1s-0.1,2.3-0.3,3.5
			c-0.1-2.5,2.2-4.8,4.7-4.9s4.8,2.2,4.9,4.7c0-2.7-0.4-5.4,2.4-6.7c2-0.9,4.8-0.1,5.9,1.8c1.3,2.3,0.2,5.6-2.1,6.7
			c4.8-2.4,13.5-0.8,10.2,6.5c-0.9,1.9-2.5,3.4-4.1,4.7c1.8-0.4,3,2.2,2.1,3.8C325.5,298.2,323.7,298.8,321.8,299.2z"/>
		<path id="XMLID_76_" class="st13" d="M298.5,319.3c2,1,4.3,1.4,6,2.7h96.7c1.5-2.6,1.8-5.9,0.2-8.5c-2.5-4.1-8.9-5-12.6-2
			c2-2,3.2-4.8,3.4-7.6c-2.9-0.6-6,0.2-8.2,2.1c2.9-2.7,4.9-6.6,4.6-10.6s-3-7.8-6.8-8.9s-8.5,1-9.7,4.8c0.3-4.7-3.3-9.4-7.9-10.4
			c-4.7-1-9.8,1.9-11.4,6.4c-0.6-5.4-1.9-11.8-6.9-13.9c-4.4-1.8-9.6,0.9-12.1,4.9c-2.3,3.5-3,7.8-3.5,12c-0.4-2.6-3.8-4.8-6.3-3.4
			c-2.6,1.4-2.9,5.5-1,7.7c-3.1-2.4-7.7-2.8-11.1-0.8c-3.5,2-5.5,6.3-4.8,10.3c-0.8-1.8-3.6-2.6-5.3-1.4c-2,1.4-2.5,4.3-1.7,6.7
			c0.8,2.3,2.6,4.2,4.3,6c-1.2-1.2-2.5-2.4-4-3c-1.6-0.5-3.6-0.2-4.5,1.3C294.4,315.6,296.3,318.3,298.5,319.3z"/>
		<path id="XMLID_75_" class="st13" d="M231.3,320.6c1.2,0.6,2.5,0.9,3.6,1.5h80c0.9-2,0.9-4.3-0.2-6.2c-2-3.4-7.2-4.1-10.2-1.6
			c1.6-1.6,2.6-3.9,2.8-6.2c-2.3-0.5-4.9,0.2-6.7,1.7c2.4-2.2,3.9-5.4,3.7-8.6c-0.2-3.2-2.4-6.3-5.5-7.3c-3.1-0.9-6.9,0.8-7.9,3.9
			c0.2-3.9-2.7-7.7-6.4-8.4c-3.8-0.8-8,1.5-9.3,5.2c-0.5-4.4-1.6-9.6-5.6-11.3c-3.6-1.5-7.8,0.7-9.9,4c-1.8,2.9-2.4,6.3-2.8,9.7
			c-0.3-2.1-3.1-3.9-5.1-2.8c-2.1,1.2-2.3,4.5-0.8,6.3c-2.5-1.9-6.2-2.2-9-0.7c-2.8,1.6-4.4,5.1-3.9,8.3c-0.6-1.5-2.9-2.1-4.3-1.1
			c-1.7,1.1-2,3.5-1.4,5.4c0.7,1.9,2.1,3.4,3.5,4.8c-1-1-2-2-3.3-2.4s-3-0.2-3.7,1C227.9,317.5,229.5,319.7,231.3,320.6z"/>
		<path id="XMLID_72_" class="st13" d="M390.2,321.1c0.8,0.4,1.6,0.7,2.4,1h73.5c0.6-1.7,0.6-3.6-0.3-5.2c-1.8-3-6.5-3.7-9.2-1.5
			c1.5-1.5,2.4-3.5,2.5-5.6c-2.1-0.4-4.4,0.2-6.1,1.6c2.2-2,3.6-4.9,3.4-7.8s-2.2-5.8-5-6.6c-2.8-0.8-6.2,0.7-7.1,3.5
			c0.2-3.5-2.4-6.9-5.8-7.6s-7.2,1.4-8.4,4.7c-0.4-4-1.4-8.7-5.1-10.2c-3.2-1.3-7,0.7-8.9,3.6c-1.7,2.6-2.2,5.7-2.6,8.8
			c-0.3-1.9-2.8-3.5-4.6-2.5c-1.9,1.1-2.1,4-0.7,5.7c-2.3-1.7-5.7-2-8.2-0.6c-2.6,1.5-4,4.6-3.6,7.5c-0.6-1.3-2.6-1.9-3.9-1
			c-1.5,1-1.8,3.2-1.2,4.9c0.6,1.7,1.9,3.1,3.2,4.4c-0.9-0.9-1.8-1.8-3-2.2c-1.2-0.4-2.7-0.1-3.3,0.9
			C387.2,318.3,388.6,320.3,390.2,321.1z"/>
		<path id="XMLID_71_" class="st14" d="M350.4,320.6c0.3,0.5,0.5,1,0.8,1.4h57.9c0.4-0.3,0.8-0.5,1.2-0.9c1.4-1.3,2.2-3.6,1.2-5.3
			c-0.7-1.3-2.3-2-3.8-2s-2.9,0.6-4.3,1.3c2.2-1.6,3.9-3.9,4.3-6.5s-0.9-5.6-3.3-6.7c-2.4-1.2-5.8,0-6.6,2.6c0.5-2.1,1-4.2,0.9-6.3
			c-0.1-2.1-0.9-4.3-2.6-5.6c-2.5-2-6.2-1.5-8.9,0c-3.9,2.1-6.6,6.2-7.2,10.6c-0.7-2.1,0.1-4.5,0.2-6.7c0.1-2.3-1.2-5-3.5-4.9
			c-1.5,0.1-2.5,1.4-3.3,2.6c-2.7,4.3-4.5,9.2-5,14.2c-3.2-3.1-3.3-9.3-7.6-10.6c-3-0.9-6.1,1.7-7,4.7s-0.2,6.2,0.6,9.3
			c-0.7-1.7-1.4-3.5-2.7-4.7s-3.5-1.7-5-0.6c-1.8,1.3-1.5,4.1-0.6,6.1C347.2,315.3,349.1,317.9,350.4,320.6z"/>
		<path id="XMLID_69_" class="st13" d="M390.2,306.2c-0.5-0.4-1.2-0.5-1.8-0.3c0.4-2.2,0.1-5-2.8-4.9c-1.9,0.1-3.5,1.5-4.2,3.2
			c-0.5-1-1.5-1.7-2.8-1.5c-1.9,0.3-2.7,2.1-2.5,3.8c0,0.5,0.8,0.5,0.7,0c-0.1-0.9,0-2.3,1-2.8c1.6-0.7,3.2,0.2,3.2,2.1
			c0,0.5,0.7,0.5,0.7,0c0.2-1.7,1.2-3.1,2.8-3.7c3.2-1.2,3.4,2.2,2.9,4.3c-0.1,0.1-0.2,0.2-0.3,0.3c-0.3,0.4,0.2,0.9,0.5,0.5
			l0.1-0.1c0.1,0,0.2-0.1,0.3-0.2c0.5-0.3,1.1-0.3,1.5,0c0.7,0.5,0.7,1.4,0.4,2.1c-0.2,0.4,0.4,0.8,0.6,0.4
			C391.3,308.3,391.2,307,390.2,306.2z"/>
		<path id="XMLID_68_" class="st13" d="M366.8,307c-1.6-0.4-2.3,1.1-2.5,2.5c-0.7-1.2-1.8-2.6-3.2-1.7c-1.6,1-1,3.4,0.1,4.5
			c0.3,0.3,0.9-0.2,0.5-0.5c-0.4-0.4-0.8-0.9-0.8-1.6c-0.1-0.8,0.2-2.6,1.9-1.6c0.7,0.4,1.1,1.6,1.5,2.3c0.2,0.3,0.7,0.2,0.7-0.2
			c0-0.9-0.1-2.4,1-2.9c1.6-0.7,2.1,2,1.7,2.8c-0.2,0.4,0.4,0.8,0.6,0.4C368.9,309.8,368.3,307.3,366.8,307z"/>
		<path id="XMLID_67_" class="st13" d="M388,314.3c-1.3,0.4-2.9,2-2.4,3.5c0.2,0.4,0.9,0.3,0.7-0.2c-0.3-1,0.9-2.2,1.8-2.5
			c1.1-0.4,2.1,0.4,2.2,1.4c0.1,0.5,0.8,0.3,0.7-0.2C390.9,314.9,389.4,313.8,388,314.3z"/>
		<path id="XMLID_64_" class="st15" d="M339.5,292.5c-0.4-0.9-0.9-1.6-2-1.7c-1.9-0.2-3.7,1.4-4,3.2c-0.7-0.8-1.4-1.5-2.3-1.9
			c-1.1-0.4-2.1,0.2-2.9,0.8c-1.6,1.2-1.8,3.8-0.5,5.4c0.3,0.4,0.8-0.2,0.5-0.5c-0.5-0.5-0.6-1.7-0.6-2.3c0-1.1,0.7-1.8,1.6-2.3
			c1.8-1.1,3.4,0.8,4.4,2.1c0.3,0.3,0.7-0.1,0.6-0.4c-0.1-1.5,0.9-2.8,2.3-3.2c1.1-0.3,1.9,0.1,2.3,1.2c0.2,0.6,0.9,2,0.5,2.6
			c-0.3,0.4,0.4,0.8,0.6,0.4C340.6,294.9,339.8,293.5,339.5,292.5z"/>
		<path id="XMLID_63_" class="st15" d="M357.7,290.5c-1-0.1-2,0.1-2.7,0.7c-0.2-2.2-0.8-5-3-4.8c-1.9,0.1-4.5,2.9-3.2,4.7
			c0.3,0.4,0.9,0,0.6-0.4c-1.2-1.6,2.5-4.9,3.8-2.9c0.8,1.1,1,2.8,1,4.3c-0.1,0.3-0.2,0.6-0.2,0.9c0,0.4,0.5,0.5,0.7,0.2
			c0.2,0,0.3-0.1,0.3-0.3c0-0.2,0-0.4,0-0.6c0.4-0.6,1.2-1,2-1s2.6,0.6,1.6,1.6c-0.3,0.3,0.2,0.9,0.5,0.5
			C360.2,292.2,359,290.7,357.7,290.5z"/>
		<path id="XMLID_62_" class="st15" d="M370.7,290.2c-1.9,0-3.3,1.6-3.7,3.4c-0.1,0.5,0.6,0.7,0.7,0.2c0.3-1.3,1.1-2.5,2.5-2.8
			c1.5-0.3,3,0.9,3.1,2.4c0,0.5,0.8,0.5,0.7,0C374,291.7,372.5,290.2,370.7,290.2z"/>
		<path id="XMLID_61_" class="st15" d="M272,302c-0.3-0.7-1.1-1.1-1.8-1.3c-1.1-0.4-2.3-0.1-3.1,0.6c-0.1-1.7-2.9-3.3-4.3-3.3
			c-2.5,0-4,2-4.4,4.2c-1-1-2.7-1-3.7,0.3c-1.3,1.6-1.1,4,0.2,5.5c0.3,0.4,0.8-0.2,0.5-0.5c-0.8-1-1.2-2.3-0.7-3.5
			c0.3-0.8,0.9-1.7,1.9-1.8c0.8-0.1,1.4,0.4,1.7,1.1v0.1c0,0.1,0.1,0.2,0.2,0.3c0,0,0,0,0,0.1c0.1,0.5,0.8,0.3,0.7-0.2
			c0-0.2-0.1-0.3-0.1-0.5c0.1-1.7,0.9-3.5,2.5-4.1c1-0.4,2-0.3,3,0.2c0.6,0.4,2.4,1.8,1.7,2.7c-0.2,0.2-0.1,0.5,0.1,0.6
			c0.1,0.3,0.5,0.5,0.7,0.1c0.5-0.9,1.6-1.5,2.6-1.3c0.6,0.1,1.3,0.4,1.6,1c0.4,0.7,0.1,1.4-0.2,2.1c-0.2,0.4,0.5,0.6,0.7,0.2
			C272,303.9,272.3,302.8,272,302z"/>
		<path id="XMLID_60_" class="st15" d="M424.6,300c-0.8-0.4-1.7-0.2-2.4,0.1c-0.4-1.6-1.9-2.7-3.6-2.3c-2,0.4-3.3,2.3-3.6,4.3
			c-0.8-0.9-1.9-1.3-3-0.2c-1.4,1.2-1.3,3.2-0.1,4.5c0.3,0.3,0.9-0.2,0.5-0.5c-0.9-0.9-1-2.3-0.1-3.3c0.4-0.4,1-0.8,1.6-0.5
			c0.4,0.2,0.7,0.7,1,1.2c0,0,0,0,0,0.1c0,0.5,0.7,0.5,0.7,0c0-1.6,0.7-3.4,2.1-4.3c1.6-1,3.6-0.2,3.8,1.6c-0.3,0.4-0.3,0.9,0.2,1.2
			c0.3,0.2,0.6-0.2,0.5-0.5l0,0c0-0.1,0-0.2,0-0.3c0.3-0.2,0.9-0.4,0.9-0.4c0.7-0.2,1.2,0.1,1.7,0.6c0.7,0.7,1.6,2.2,0.4,2.9
			c-0.4,0.2,0,0.9,0.4,0.6C427.6,303.6,426.1,300.8,424.6,300z"/>
		<path id="XMLID_59_" class="st15" d="M428.2,312.8c-0.3-0.6-0.3-1.2-0.9-1.7c-0.8-0.6-1.8-0.6-2.7-0.7c-1.9,0-2.5,1.6-3,3.2
			c-0.2,0.5,0.6,0.6,0.7,0.2c0.5-1.4,0.9-2.8,2.7-2.7c0.9,0.1,1.9,0.1,2.4,1.2c0.1,0.3,0.2,0.6,0.3,0.9c-0.1,0.1-0.2,0.2-0.2,0.3
			c-0.2,0.4,0.4,0.8,0.6,0.4c0.5-1,3.1-0.6,2.6,0.6c-0.2,0.4,0.4,0.8,0.6,0.4C432,313.2,429.6,312.2,428.2,312.8z"/>
		<path id="XMLID_58_" class="st15" d="M273.1,311.3c-1.1-1.2-2.9-0.6-3.3,0.7c-0.8-0.9-2-1.6-3.1-0.9c-1.4,0.9-1.3,2.7-0.7,4.1
			c0.2,0.4,0.8,0.1,0.6-0.4c-0.4-1-0.7-2.8,0.7-3.2c1-0.3,1.8,0.8,2.4,1.5c0.1,0.4,0.8,0.2,0.7-0.2c-0.3-1.3,1.3-2,2.2-1
			C272.9,312.2,273.4,311.6,273.1,311.3z"/>
		<path id="XMLID_57_" class="st15" d="M304.5,282.8c-0.9-1.2-2.7-1-3.3,0.2c-0.5-0.9-1.6-1.8-2.7-1.5c-0.6,0.2-1,0.8-1.3,1.2
			c-0.3,0.6-0.5,1.1-0.2,1.7c0.1,0.3,0.6,0,0.4-0.3c-0.3-0.5,0-1,0.3-1.4c0.4-0.5,0.7-0.9,1.5-0.8c0.8,0.2,1.4,0.9,1.7,1.6
			c0,0,0,0,0,0.1s0,0.1,0,0.2c0,0.3,0.5,0.3,0.5,0c0.1-1.4,1.8-1.9,2.6-0.8C304.3,283.3,304.7,283,304.5,282.8z"/>
		<path id="XMLID_56_" class="st15" d="M315.4,281.3c-0.4-0.4-0.8-0.3-1.1-0.1c-0.2-1.3-0.6-2.9-2-3s-2.5,1.1-2.6,2.4
			c0,0.3,0.5,0.3,0.5,0c0.1-1,1.1-2.2,2.2-1.9c1,0.3,1.3,1.9,1.4,2.9c0,0,0,0,0,0.1c-0.1,0.2,0.1,0.4,0.2,0.4c0.1,0.1,0.3,0,0.3-0.2
			v-0.1c0.2-0.3,0.4-0.5,0.7-0.2c0.1,0.1,0.6,0.8,0.3,1s0,0.6,0.3,0.4C316.3,282.7,315.8,281.7,315.4,281.3z"/>
		<path id="XMLID_55_" class="st15" d="M289.3,287.5c-0.2,0-0.5,0.2-0.6,0.4c-0.2-0.5-0.6-0.9-0.9-1.3c-0.6-0.6-1.3-0.7-2.1-0.3
			c-1.2,0.5-1.9,2.4-0.3,3c0.3,0.1,0.4-0.4,0.1-0.5c-0.6-0.2-0.7-1-0.3-1.5c0.2-0.4,0.6-0.6,1.1-0.7c0.6-0.2,1.1,0.2,1.4,0.7
			c0.3,0.4,0.8,1.1,0.7,1.5c-0.1,0.3,0.4,0.4,0.5,0.1l0,0c0.1,0,0.2-0.1,0.1-0.3c-0.1-0.3,0.1-0.6,0.4-0.6c0.3-0.1,0.5,0.2,0.6,0.5
			c0,0.3,0.5,0.3,0.5,0C290.4,287.9,289.9,287.4,289.3,287.5z"/>
		<path id="XMLID_54_" class="st15" d="M403.3,285.6c-1.7-1-3.7-0.2-4.9,1.2c-0.2-2.7-1.9-5.2-4.8-5.4c-2.8-0.2-5,2.3-4.4,5.1
			c0.1,0.4,0.6,0.2,0.6-0.2c-0.6-2.7,2-4.9,4.6-4.2c2.5,0.6,3.6,3.1,3.5,5.5c0,0.1-0.1,0.1-0.1,0.2c-0.2,0.3,0.2,0.6,0.4,0.4
			c0.1,0,0.2-0.1,0.2-0.3v-0.1c0.9-1.4,2.6-2.5,4.3-1.8c1.2,0.5,1.9,2,1.5,3.2c-0.1-0.3-0.6-0.2-0.5,0.2c0,0.2,0.1,0.5,0.1,0.7
			s0.3,0.3,0.5,0.1C405.4,288.7,404.9,286.5,403.3,285.6z"/>
		<path id="XMLID_53_" class="st15" d="M409.4,278.2c-1-0.7-2.3-0.8-3.2,0.1c-0.9,1-0.9,2.4-0.7,3.6c0.1,0.4,0.6,0.2,0.6-0.2
			c-0.2-1.4,0.1-4.1,2.2-3.5c1.9,0.5,2,2.6,2.4,4.1c-0.1-0.4-0.7-0.2-0.6,0.2c0.2,0.8,1.1,0.3,1.1-0.4
			C411.2,280.8,410.5,279,409.4,278.2z"/>
	</g>
	<g>
		<g>
			<path id="XMLID_98_" class="st16" d="M105.7,315.4c2.2,1.1,4.8,1.6,6.7,3h108.3c1.7-2.9,2-6.6,0.2-9.5c-2.8-4.6-10-5.6-14.1-2.2
				c2.2-2.3,3.6-5.3,3.8-8.5c-3.2-0.6-6.7,0.3-9.2,2.4c3.3-3,5.5-7.4,5.1-11.9c-0.3-4.5-3.3-8.8-7.6-10c-4.3-1.3-9.5,1.1-10.9,5.3
				c0.3-5.3-3.7-10.6-8.9-11.7s-11,2.1-12.8,7.1c-0.7-6.1-2.1-13.2-7.8-15.6c-4.9-2-10.7,1-13.6,5.5c-2.5,3.9-3.3,8.7-3.9,13.4
				c-0.4-2.9-4.3-5.3-7-3.8c-3,1.6-3.2,6.2-1.1,8.7c-3.5-2.7-8.6-3.1-12.4-0.9c-3.9,2.3-6.1,7.1-5.4,11.5c-0.9-2-4-2.9-6-1.6
				c-2.3,1.6-2.8,4.9-1.9,7.5s2.9,4.7,4.8,6.7c-1.3-1.3-2.7-2.7-4.5-3.3c-1.8-0.6-4.1-0.2-5.1,1.4
				C101.1,311.1,103.2,314.1,105.7,315.4z"/>
			<path id="XMLID_97_" class="st17" d="M152,282.2c-0.4-1.1-1.1-1.8-2.3-1.9c-2.1-0.2-4.1,1.6-4.5,3.6c-0.7-0.9-1.6-1.7-2.6-2.1
				c-1.2-0.4-2.3,0.2-3.3,0.9c-1.8,1.3-2,4.3-0.6,6c0.3,0.4,0.9-0.2,0.6-0.6c-0.5-0.6-0.7-1.9-0.7-2.6c0-1.2,0.8-2,1.7-2.6
				c2-1.2,3.8,0.9,4.9,2.4c0.3,0.4,0.8-0.1,0.6-0.5c-0.1-1.7,1-3.2,2.6-3.6c1.2-0.4,2.2,0.2,2.6,1.3c0.3,0.7,1,2.2,0.6,2.9
				c-0.3,0.4,0.4,0.9,0.7,0.4C153.3,284.8,152.4,283.3,152,282.2z"/>
			<path id="XMLID_96_" class="st17" d="M172.4,283.9c-1.1-0.2-2.2,0.1-3,0.7c-0.2-2.4-0.9-5.6-3.3-5.4c-2.1,0.2-5,3.2-3.5,5.3
				c0.3,0.4,1,0,0.7-0.4c-1.3-1.8,2.8-5.5,4.3-3.3c0.9,1.3,1.1,3.2,1.1,4.8c-0.1,0.3-0.2,0.7-0.3,1c0,0.4,0.5,0.5,0.8,0.2
				c0.2,0,0.3-0.2,0.3-0.4c0-0.2,0-0.4,0-0.7c0.4-0.7,1.3-1.1,2.2-1.1c0.8,0,2.9,0.7,1.8,1.8c-0.4,0.4,0.2,1,0.6,0.6
				C175.3,285.8,173.9,284.1,172.4,283.9z"/>
			<path id="XMLID_49_" class="st17" d="M187.1,283.6c-2.1,0-3.8,1.8-4.1,3.8c-0.1,0.5,0.7,0.7,0.8,0.2c0.3-1.5,1.3-2.8,2.8-3.1
				c1.7-0.3,3.3,1,3.4,2.7c0,0.5,0.9,0.5,0.8,0C190.7,285.2,189.1,283.6,187.1,283.6z"/>
		</g>
		<g>
			<path id="XMLID_102_" class="st18" d="M159.1,316.8c0.3,0.6,0.6,1.1,0.9,1.6h65c0.5-0.3,0.9-0.6,1.4-1c1.6-1.5,2.4-4,1.4-5.9
				c-0.8-1.5-2.6-2.2-4.3-2.2s-3.3,0.7-4.8,1.4c2.4-1.7,4.4-4.3,4.8-7.3c0.4-3-1-6.3-3.7-7.6c-2.7-1.3-6.5,0-7.4,2.9
				c0.6-2.3,1.1-4.7,1-7.1s-1-4.8-2.9-6.3c-2.8-2.2-6.9-1.7-10,0c-4.3,2.4-7.4,6.9-8,11.9c-0.8-2.4,0.1-5,0.2-7.6
				c0.1-2.5-1.4-5.7-3.9-5.5c-1.6,0.1-2.8,1.6-3.7,2.9c-3.1,4.8-5,10.3-5.7,15.9c-3.6-3.5-3.7-10.5-8.5-11.9c-3.4-1-6.9,1.9-7.9,5.2
				c-1,3.4-0.2,7,0.6,10.4c-0.7-1.9-1.5-3.9-3-5.2c-1.5-1.4-4-1.9-5.6-0.7c-2,1.5-1.7,4.6-0.7,6.8
				C155.5,310.9,157.6,313.7,159.1,316.8z"/>
			<path id="XMLID_101_" class="st16" d="M203.8,300.7c-0.6-0.4-1.3-0.6-2-0.4c0.5-2.5,0.1-5.6-3.1-5.4c-2.2,0.1-3.9,1.6-4.7,3.6
				c-0.6-1.1-1.7-1.9-3.2-1.7c-2.1,0.3-3,2.3-2.9,4.3c0,0.5,0.9,0.5,0.8,0c-0.1-1,0-2.6,1.2-3.1c1.8-0.8,3.6,0.2,3.6,2.3
				c0,0.5,0.8,0.5,0.8,0c0.2-1.9,1.3-3.5,3.1-4.2c3.6-1.3,3.9,2.5,3.3,4.8c-0.1,0.1-0.2,0.2-0.3,0.3c-0.3,0.4,0.3,1,0.6,0.6l0.1-0.1
				c0.1,0,0.2-0.1,0.3-0.3c0.5-0.3,1.2-0.4,1.7,0c0.8,0.5,0.8,1.6,0.4,2.4c-0.3,0.5,0.4,0.9,0.7,0.4
				C205,303,204.8,301.5,203.8,300.7z"/>
			<path id="XMLID_100_" class="st16" d="M177.5,301.5c-1.8-0.4-2.6,1.2-2.8,2.8c-0.8-1.4-2-2.9-3.5-1.9c-1.8,1.2-1.2,3.8,0.1,5.1
				c0.4,0.4,1-0.2,0.6-0.6c-0.5-0.5-0.9-1-0.9-1.8c-0.1-0.9,0.2-2.9,2.1-1.8c0.8,0.5,1.2,1.8,1.6,2.6c0.2,0.4,0.8,0.2,0.8-0.2
				c0-1.1-0.1-2.7,1.1-3.2c1.8-0.8,2.4,2.3,1.9,3.1c-0.3,0.5,0.4,0.9,0.7,0.4C179.8,304.7,179.2,301.9,177.5,301.5z"/>
			<path id="XMLID_99_" class="st16" d="M201.3,309.7c-1.5,0.5-3.2,2.2-2.7,3.9c0.2,0.5,1,0.3,0.8-0.2c-0.4-1.1,1-2.5,2-2.8
				c1.2-0.4,2.3,0.4,2.5,1.6c0.1,0.5,0.9,0.3,0.8-0.2C204.5,310.3,202.9,309.2,201.3,309.7z"/>
		</g>
	</g>
	<g class="st19">
		<g class="st20">
			<g>
				<path class="st21" d="M387.1,243.6c0,0,3-8.6,5.3-8.7c2.4-0.1-1,8.6-1.4,10.5S387.1,244.8,387.1,243.6z"/>
				<path class="st22" d="M390.2,246.4c-1.2,0-3.3-1.7-3.4-2.7l0,0l0,0c0.3-0.9,3.1-8.8,5.6-8.9c0.3,0,0.6,0.1,0.8,0.4
					c0.8,1.1-0.2,4.7-1.4,8.5c-0.3,0.8-0.5,1.6-0.6,2C391.2,246.1,390.8,246.4,390.2,246.4z M387.3,243.7c0.1,0.7,1.8,2.2,2.9,2.2
					c0.3,0,0.5-0.1,0.6-0.5s0.3-1.1,0.6-2c0.8-2.5,2.2-7,1.4-8c-0.1-0.1-0.2-0.2-0.3-0.2C390.7,235.3,388.2,241.3,387.3,243.7z"/>
			</g>
			<g>
				<path class="st23" d="M396.3,283.6c0,0,1.2,8.2,1.4,8.8c0.2,0.6,2.1,1.8,8.5,0.6c6.4-1.2,7.9-1.1,8.9-2.1c0.9-1,0.7-6.3,0.7-6.3
					s1.4,5.9,2.4,6.2c1,0.3,10.9-4.7,11.5-5.6s-1.7-12.3-2.3-14.7C426.8,268,396.3,283.6,396.3,283.6z"/>
				<path class="st22" d="M401.5,293.7c-2.7,0-3.8-0.7-4-1.3c-0.2-0.6-1.3-8.5-1.4-8.8v-0.2l0.2-0.1c1.1-0.5,26.2-13.4,30.6-13.4
					c0.6,0,0.8,0.2,0.8,0.5c0.4,1.5,2.9,13.8,2.2,14.9c-0.6,0.9-9.9,5.7-11.5,5.7c-0.1,0-0.1,0-0.2,0c-0.7-0.2-1.5-2.6-2-4.4
					c0,1.6-0.2,3.7-0.8,4.4c-0.8,0.8-1.8,1-5,1.5c-1.1,0.2-2.4,0.4-4,0.7C404.4,293.5,402.8,293.7,401.5,293.7z M396.6,283.7
					c0.4,2.9,1.2,8.1,1.4,8.6c0.1,0.2,0.8,0.9,3.5,0.9c1.3,0,2.9-0.2,4.7-0.5c1.6-0.3,3-0.5,4-0.7c3-0.5,4-0.7,4.7-1.4
					c0.7-0.8,0.7-4.7,0.7-6.1l0.5-0.1c0.7,2.8,1.7,5.9,2.2,6.1l0,0c1.5,0,10.7-4.7,11.2-5.5s-1.6-11.5-2.3-14.5c0,0-0.1-0.1-0.4-0.1
					C422.8,270.5,398.8,282.6,396.6,283.7z"/>
			</g>
			<g>
				<g>
					<path class="st24" d="M421.7,250.9c-2.5-8.5-4.8-12.4-4.4-17.5c0,0-4.8,2.1-11.6,2.5c-1.7,1.8-3.7,2.4-3.7,2.4
						c-2.5-0.3-4.3-1.9-5.4-3.1c-1.2-0.3-2.5-0.6-3.8-1c0,0-10.2,16.8,0.2,48.8c0,0,24.2,4.2,34.7-13.1
						C429.2,267.3,424.2,259.4,421.7,250.9z"/>
					<path class="st22" d="M399.4,283.8L399.4,283.8c-3.8,0-6.5-0.5-6.5-0.5h-0.1v-0.1c-10.3-31.8-0.3-48.8-0.2-49l0.1-0.2l0.2,0.1
						c1.2,0.4,2.4,0.7,3.7,1h0.1l0.1,0.1c1.1,1.2,2.9,2.7,5.2,3c0.3-0.1,2.1-0.7,3.5-2.3l0.1-0.1h0.1c6.7-0.4,11.5-2.4,11.6-2.5
						l0.4-0.2v0.4c-0.3,3.5,0.7,6.4,2.2,10.7c0.7,1.9,1.4,4.1,2.2,6.7c1,3.3,2.3,6.5,3.5,9.3c1.9,4.6,3.5,8.2,2.4,10
						C420.6,282,406.9,283.8,399.4,283.8z M393.2,282.9c0.6,0.1,3,0.4,6.3,0.4c7.4,0,20.9-1.7,28-13.5c0.9-1.5-0.6-5.2-2.4-9.5
						c-1.2-2.8-2.6-6-3.5-9.3c-0.8-2.6-1.5-4.8-2.2-6.7c-1.4-4.1-2.4-7.1-2.3-10.5c-1.3,0.5-5.6,2-11.3,2.4
						c-1.7,1.8-3.7,2.4-3.7,2.4l0,0l0,0c-2.5-0.3-4.3-1.8-5.5-3.1c-1.2-0.3-2.4-0.6-3.5-0.9C391.9,236.5,383.5,253.1,393.2,282.9z"
						/>
				</g>
				<g>
					<path class="st25" d="M401.9,238.4c0,0,2-0.6,3.7-2.4c-2.8,0.2-5.9,0-9.1-0.6C397.6,236.5,399.5,238.1,401.9,238.4z"/>
				</g>
			</g>
			<g class="st26">
				<path class="st23" d="M424.6,274.1c0,0,4.3,10.4-7,15.4l0.7,1.3c0,0,9.4-3.9,11.5-5.6l-2.3-14.7
					C427.4,270.5,426.1,272.2,424.6,274.1z"/>
			</g>
			<g class="st26">
				<path class="st24" d="M409.9,235.5c0,0,18.9,35.9-8.7,46.2l-0.8,1.5c0,0,20,0.9,27.6-14.5c0,0-0.4-3.2-3.1-9
					c-2.7-5.8-5.9-17.4-5.9-17.4l-2.3-8.6L409.9,235.5z"/>
			</g>
			<g>
				<path class="st21" d="M416.4,241.7c0,0-1.4-8.2,1.5-8.7c2.8-0.5,5.9,6,6,6.7C424.1,240.5,418,243.6,416.4,241.7z"/>
				<path class="st22" d="M418.1,242.6c-0.8,0-1.5-0.2-1.9-0.7v-0.1v-0.1c-0.1-0.3-1.4-8.4,1.7-8.9c3-0.5,6.1,6.1,6.3,6.9
					c0,0.1,0,0.3-0.2,0.5C423.3,241,420.2,242.6,418.1,242.6z M416.6,241.6c0.3,0.3,0.8,0.5,1.4,0.5c2.3,0,5.5-1.9,5.6-2.3
					c-0.2-0.8-3.2-6.9-5.7-6.5C415.8,233.7,416.3,239.4,416.6,241.6z"/>
			</g>
			<g>
				<path class="st21" d="M397.5,237.1c0,0,1.1,5.3,1.8,5.8c0.6,0.5,3.3-3.5,3.3-3.5s3,2.1,4.7,2s-0.4-5.3-0.4-5.3l-4.5,2.7
					C402.4,238.7,398,237.9,397.5,237.1z"/>
				<path class="st22" d="M399.4,243.1c-0.1,0-0.2,0-0.3-0.1c-0.7-0.5-1.6-4.7-1.8-5.9l0.5-0.2c0.3,0.5,3,1.2,4.7,1.5l4.7-2.8
					l0.1,0.3c0.2,0.4,1.6,4.1,0.8,5.3c-0.2,0.2-0.4,0.4-0.7,0.4h-0.1c-1.5,0-3.8-1.5-4.5-1.9C401.9,240.7,400.2,243.1,399.4,243.1z
					 M397.9,237.7c0.5,2.3,1.2,4.7,1.5,5c0.4,0,1.9-1.8,3-3.4l0.1-0.2l0.2,0.1c0,0,2.8,2,4.5,2h0.1c0.1,0,0.2-0.1,0.3-0.2
					c0.4-0.7-0.2-3-0.8-4.6l-4.3,2.6h-0.1C401.8,238.9,399.1,238.4,397.9,237.7z"/>
			</g>
			<g>
				<path class="st27" d="M363,193c0,0,10,9,16.5,10.2c0,0,1.7-10.5,7.1-11.7C386.6,191.6,376.6,188.8,363,193z"/>
				<path class="st22" d="M379.6,203.6h-0.3c-6.4-1.2-16.2-9.9-16.6-10.3l-0.3-0.3l0.4-0.1c5.1-1.6,10.2-2.4,15.2-2.4
					c5.2,0,8.5,0.9,8.5,0.9v0.5c-5.2,1.2-6.9,11.4-6.9,11.5L379.6,203.6z M363.5,193.2c1.8,1.5,10.1,8.6,15.8,9.8
					c0.3-1.6,1.9-9.5,6.4-11.4c-1.3-0.3-3.9-0.7-7.5-0.7C373.3,190.9,368.3,191.7,363.5,193.2z"/>
			</g>
			<g>
				<g>
					<path class="st25" d="M401.4,183.7c-21.4,1.1-23.3,24.9-23.3,24.9c0,14.6,8,26.5,23.6,27.3s23.5-8.4,23.5-8.4l3.4-5.5
						C424.1,201.5,423.2,182.6,401.4,183.7z"/>
					<path class="st22" d="M403.6,236.3L403.6,236.3c-0.6,0-1.3,0-1.9,0c-14.5-0.7-23.8-11.6-23.9-27.6c0-0.3,2.2-24.1,23.5-25.2
						c0.6,0,1.2,0,1.8,0c17.9,0,20.8,14.6,24.2,31.5c0.5,2.3,1,4.7,1.5,7.2c0,0.1,0,0.1,0,0.2l-3.4,5.5
						C425.3,227.9,417.9,236.3,403.6,236.3z M403.1,183.9c-0.6,0-1.2,0-1.8,0c-20.9,1.1-23,24.5-23.1,24.7
						c0,15.7,9.2,26.3,23.4,27.1c0.6,0,1.3,0,1.9,0c14.1,0,21.4-8.3,21.4-8.4l3.3-5.4c-0.5-2.4-1-4.8-1.5-7.1
						C423.4,197.6,420.6,183.9,403.1,183.9z"/>
				</g>
				<g>
					<path class="st28" d="M410.4,174.7c-40.1-2.3-32.4,33.9-32.4,33.9s1.9-23.9,23.3-24.9c21.9-1.1,22.7,17.8,27.2,38.4l-3.4,5.5
						C449.7,220.2,450.5,177.1,410.4,174.7z"/>
					<path class="st22" d="M424.7,228.1l3.7-6c-0.5-2.4-1-4.8-1.5-7.1c-3.5-17.3-6.2-31-23.7-31c-0.6,0-1.2,0-1.8,0
						c-20.9,1.1-23,24.5-23.1,24.7h-0.5c0-0.1-3.1-15,5.1-25.1c5.5-6.8,14.8-9.9,27.5-9.2c21.4,1.2,30.6,14,31.9,25.4
						c1.5,12.7-5.7,24.5-17.1,27.9L424.7,228.1z M403.1,183.4c17.9,0,20.8,14.6,24.2,31.4c0.5,2.3,1,4.8,1.5,7.2v0.1l-3.1,5
						c10.8-3.6,17.5-15,16.1-27.2c-1.3-11.3-10.3-23.8-31.5-25c-12.6-0.7-21.7,2.3-27.1,9c-6.4,7.9-5.8,18.9-5.2,23
						c0.9-5.5,5.3-22.6,23.3-23.5C402,183.5,402.6,183.4,403.1,183.4z"/>
				</g>
				<g class="st29">
					<path class="st25" d="M416,201.7c0,0,8,12.6,1.2,22.9c-6.8,10.3-18.2,11.6-27.7,7.5c0,0,9.2,8.1,27.8,1.3
						c6-2.2,11.3-11.3,11.3-11.3l-3.5-16.3L416,201.7z"/>
				</g>
			</g>
			<g>
				<path class="st30" d="M364.5,193.4c0,0,19.1-6.8,42.4,4.3c23.2,11.1,36.6,16.6,41.5,14.8c1.5-0.6-0.9-8.6-4.5-11.3l-1.4-5.1
					c0,0,2-6.3,2.2-10.1c0.3-4.7-9.1-14.9-29.3-19.6c-20.1-4.7-31.4-0.3-33.7,3.2c-1.1,1.7-1.4,8.9-1.4,8.9s-1.1,4-1.1,4.5
					C373.4,184,358.4,194.2,364.5,193.4z"/>
				<path class="st22" d="M446,213c-6.3,0-19.2-5.5-39.3-15.1c-8.8-4.2-18-6.3-27.3-6.3c-9,0-14.8,2-14.9,2.1
					c-0.3,0-0.5,0.1-0.7,0.1c-0.9,0-1.1-0.3-1.1-0.6c-0.2-2,11.1-9.2,16.1-10.3c0.1-0.9,0.9-3.8,1.1-4.4c0-0.2,0.3-7.2,1.5-8.9
					c1.8-2.7,7.9-5.4,17.7-5.4c5,0,10.5,0.7,16.3,2.1c19.5,4.6,29.8,14.7,29.5,19.9c-0.2,3.6-2,9.4-2.2,10.1l1.3,4.9
					c3.2,2.4,5.2,8.5,4.9,10.7c-0.1,0.5-0.3,0.8-0.6,0.9C447.8,212.9,447,213,446,213z M379.4,191.1c9.4,0,18.7,2.1,27.5,6.4
					c20,9.6,32.9,15.1,39.1,15.1c0.9,0,1.6-0.1,2.2-0.3c0.1,0,0.2-0.2,0.3-0.6c0.3-2-1.8-8-4.8-10.3l-0.1-0.1l-1.4-5.2V196
					c0-0.1,2-6.3,2.2-10.1c0.3-4.2-8.3-14.5-29.1-19.4c-5.8-1.4-11.3-2.1-16.2-2.1c-9.6,0-15.6,2.6-17.2,5.2c-1,1.6-1.4,8.7-1.4,8.7
					c-0.6,2-1.1,4.2-1.1,4.5v0.2h-0.2c-4.9,0.9-16,8.2-15.9,9.8c0,0.2,0.5,0.2,0.6,0.2c0.2,0,0.3,0,0.6,0
					C364.4,193.1,370.4,191.1,379.4,191.1z"/>
			</g>
			<g>
				<path class="st24" d="M411.2,187.2c15.4,6.5,30.2,12.9,32.6,13.9l-1.4-5c0,0-17-10.3-26.8-13.3s-16.2-5.1-35.4-4.3
					c0,0-1.1,4-1.1,4.5C379.1,182.9,394.3,180,411.2,187.2z"/>
				<path class="st22" d="M444.2,201.5l-0.5-0.2c-0.2-0.1-16-6.8-32.6-13.9c-9.3-4-18.2-4.8-24-4.8c-4.8,0-7.9,0.6-8,0.6l-0.3,0.1
					V183c0-0.5,0.9-3.9,1.1-4.6v-0.2h0.2c2.7-0.1,5.2-0.2,7.5-0.2c13.4,0,19.4,1.9,27.7,4.4l0.3,0.1c9.8,3,26.7,13.3,26.9,13.4
					l0.1,0.1L444.2,201.5z M387.1,182.1c5.8,0,14.7,0.8,24.1,4.8c15.1,6.4,29.4,12.5,32.2,13.7l-1.2-4.4
					c-1.3-0.8-17.3-10.4-26.7-13.3l-0.3-0.1c-8.2-2.5-14.2-4.4-27.5-4.4c-2.2,0-4.7,0.1-7.3,0.2c-0.4,1.6-0.9,3.3-1,4
					C380.3,182.5,383.1,182.1,387.1,182.1z"/>
			</g>
			<g>
				<path class="st31" d="M409.9,208.9c0.1,1.3-0.7,2.4-1.6,2.4c-1,0-1.8-1-1.9-2.3s0.7-2.4,1.7-2.4
					C409,206.6,409.9,207.6,409.9,208.9z"/>
			</g>
			<g>
				<path class="st31" d="M389,207c-0.1,1.4-0.9,2.5-1.8,2.4c-0.9,0-1.5-1.2-1.4-2.6c0.1-1.4,0.9-2.5,1.8-2.4
					C388.5,204.4,389.1,205.6,389,207z"/>
			</g>
			<g>
				<g>
					<path class="st22" d="M396.4,227.8c-0.2,0-0.3,0-0.5,0c-9.6,0.3-10.4-7.1-10.4-7.1c0-0.1,0.1-0.3,0.2-0.3s0.3,0.1,0.3,0.2
						c0,0.3,0.8,6.9,9.9,6.7c9.2-0.2,10.6-5.1,10.7-5.1c0-0.1,0.2-0.2,0.3-0.2c0.1,0,0.2,0.2,0.2,0.3
						C406.9,222.5,405.5,227.4,396.4,227.8L396.4,227.8z"/>
				</g>
				<g>
					<path class="st22" d="M409,222.9c-3.7,0.2-4.5-3-4.5-3c0-0.1,0.1-0.3,0.2-0.3s0.3,0.1,0.3,0.2s0.8,3.2,4.8,2.6
						c0.1,0,0.3,0.1,0.3,0.2s-0.1,0.3-0.2,0.3C409.6,222.8,409.3,222.8,409,222.9L409,222.9z"/>
				</g>
				<g>
					<path class="st32" d="M396.5,227.6c0,0,1.2,3.4,3.6,3.6c3.3,0.3,3.3-5.2,3.3-5.2S399,227.7,396.5,227.6z"/>
					<path class="st22" d="M400.3,231.4c-0.1,0-0.2,0-0.2,0c-2.4-0.2-3.7-3.6-3.8-3.7c0-0.1,0-0.2,0-0.2c0.1-0.1,0.1-0.1,0.2-0.1
						c2.4,0.1,6.7-1.6,6.7-1.6c0.1,0,0.2,0,0.2,0c0.1,0,0.1,0.1,0.1,0.2C403.6,226.2,403.6,231.4,400.3,231.4z M396.9,227.8
						c0.4,0.8,1.5,2.9,3.2,3.1c2.5,0.2,2.9-3.4,3-4.6C402.1,226.7,399.1,227.8,396.9,227.8z"/>
				</g>
				<g>
					<path class="st22" d="M401.2,231.4c-0.1,0-0.2,0-0.2-0.1c-1.6-3.1-1.5-4.1-1.4-4.2c0-0.1,0.2-0.2,0.3-0.2
						c0.1,0,0.2,0.2,0.2,0.3c0,0-0.1,1,1.4,3.8c0.1,0.1,0,0.3-0.1,0.3S401.2,231.4,401.2,231.4L401.2,231.4z"/>
				</g>
			</g>
			<g>
				<path class="st22" d="M437.6,262.1c-0.8,0-1.6-0.6-2.4-1.9c-6.3-10.8-12.5-19.1-12.6-19.1l0.8-0.6c0.1,0.1,6.4,8.4,12.7,19.2
					c0.6,1,1.1,1.5,1.5,1.4c0.8-0.2,1.6-2.1,1.7-3.4l1,0.1c-0.1,1-0.9,3.9-2.5,4.2C437.8,262.1,437.7,262.1,437.6,262.1L437.6,262.1
					z"/>
			</g>
			<g>
				<path class="st22" d="M401.1,329l-1-0.1c1.6-14.8,2.4-35.4,2.4-35.6h1C403.5,293.5,402.7,314.1,401.1,329L401.1,329z"/>
			</g>
			<g>
				<path class="st22" d="M429.1,325.5c-1.4-12.6-4.8-37.4-4.8-37.6l1-0.1c0,0.2,3.5,25.1,4.8,37.7H429.1L429.1,325.5z"/>
			</g>
			<g>
				<path class="st33" d="M401.4,328.4c0,0-12.2-5.8-13.9,0.3C385.7,334.7,403.5,331.1,401.4,328.4z"/>
				<path class="st22" d="M392.2,332.2L392.2,332.2c-1.7,0-3.8-0.3-4.7-1.5c-0.4-0.6-0.5-1.3-0.3-2.1c0.6-2,2.2-2.9,4.8-2.9
					c4.1,0,9.2,2.4,9.5,2.5l0.1,0.1c0.3,0.3,0.3,0.7,0.1,1.1C400.9,330.9,395.9,332.2,392.2,332.2z M392,326.2
					c-2.4,0-3.9,0.9-4.3,2.6c-0.2,0.7-0.1,1.3,0.2,1.7c0.6,0.8,2.2,1.3,4.3,1.3c3.8,0,8.4-1.4,9-2.6c0.1-0.2,0.1-0.3,0-0.5
					C400.6,328.3,395.8,326.2,392,326.2z"/>
			</g>
			<g>
				<path class="st33" d="M429.4,324c0,0-13.1,0.9-10.6,5.1C421.3,333.3,436.1,329.5,429.4,324z"/>
				<path class="st22" d="M423.4,331.1L423.4,331.1c-2.3,0-4.1-0.7-4.8-1.9c-0.4-0.7-0.5-1.4-0.1-2c1.5-2.8,10.5-3.5,10.9-3.5h0.1
					l0.1,0.1c1.9,1.6,2,3,1.7,3.8C430.5,329.8,426.7,331.1,423.4,331.1z M429.3,324.2c-1,0.1-9.1,0.8-10.4,3.2
					c-0.2,0.5-0.2,1,0.1,1.5c0.6,1.1,2.2,1.7,4.4,1.7l0,0c3,0,6.6-1.2,7.3-3.2C431.1,326.4,430.6,325.4,429.3,324.2z"/>
			</g>
			<g>
				<g>
					<polygon class="st28" points="414.4,260.9 450.1,252.5 450.1,253.6 416.4,265.3 					"/>
					<path class="st22" d="M416.2,265.6l-2.2-4.8l36.3-8.6l0.1,1.6L416.2,265.6z M414.8,261.1l1.7,3.9l33.4-11.5v-0.6L414.8,261.1z"
						/>
				</g>
				<g>
					<polygon class="st28" points="414.4,259.8 448.8,249.6 450.1,252.5 416.3,264.1 					"/>
					<path class="st22" d="M416.2,264.5l-2.2-4.8l0.3-0.1l34.7-10.3l1.4,3.4L416.2,264.5z M414.7,259.9l1.8,3.9l33.3-11.5l-1.1-2.5
						L414.7,259.9z"/>
				</g>
				<g>
					<path class="st34" d="M371.9,271.7c0,0,0.5,7.5,3.9,11.9c6.4,8.3,21,9.3,25.7-3.4c0,0,6.4,0.9,11-1.8
						c6.1-3.6,6.4-10.3,4.4-16.9L371.9,271.7z"/>
					<path class="st22" d="M388.5,290.1L388.5,290.1c-4.9,0-9.8-2.4-12.8-6.3c-3.4-4.4-3.9-11.8-4-12.1v-0.2h0.2l45.3-10.1l0.1,0.2
						c2.4,8,0.8,14.1-4.6,17.2c-2.7,1.6-6.1,1.9-8.5,1.9c-1.2,0-2.1-0.1-2.4-0.1C399.4,286.6,394.6,290.1,388.5,290.1z M372.2,271.9
						c0.1,1.2,0.9,7.7,3.8,11.6c2.9,3.8,7.7,6.1,12.4,6.1c6,0,10.6-3.4,12.8-9.4l0.1-0.2h0.2c0,0,1.1,0.1,2.6,0.1
						c2.3,0,5.6-0.3,8.2-1.9c6.5-3.8,6-11,4.4-16.4L372.2,271.9z"/>
				</g>
				<g>
					<path class="st35" d="M395.2,259.3c0,0-15.6-8.9-21.6,3.9c-9.3,20,22.4,31.3,27.2,13c0,0,16.8,4.2,16.4-12.1
						C416.8,250.3,398.5,250.2,395.2,259.3z"/>
					<path class="st22" d="M388.6,285.6c-5.8,0-11.8-3.2-14.8-7.9c-1.9-3-3.6-8-0.5-14.7c2.2-4.7,5.8-7.1,10.9-7.1
						c4.9,0,9.6,2.3,10.8,2.9c1.5-3.7,5.7-6.1,10.6-6.1c5.7,0,11.6,3.5,11.7,11.2c0.1,4.2-0.9,7.4-3.1,9.6c-2.6,2.7-6.4,3.2-9.1,3.2
						l0,0c-2,0-3.7-0.3-4.3-0.4C399.3,282.2,394.7,285.6,388.6,285.6z M384.3,256.5c-4.8,0-8.4,2.3-10.4,6.8
						c-3,6.5-1.4,11.3,0.4,14.2c2.9,4.6,8.7,7.6,14.4,7.6c6.1,0,10.4-3.3,11.9-9l0.1-0.2l0.2,0.1c0,0,1.9,0.5,4.4,0.5l0,0
						c2.6,0,6.3-0.5,8.8-3.1c2-2.1,3-5.2,2.9-9.3c-0.2-7.4-5.8-10.7-11.3-10.7c-4.8,0-8.9,2.4-10.3,6.1l-0.1,0.3l-0.3-0.1
						C395,259.4,389.7,256.5,384.3,256.5z"/>
				</g>
				<g>
					<g>
						<polygon class="st22" points="401.7,280.4 400.6,276.2 401.1,276.1 402.2,280.2 						"/>
					</g>
				</g>
				<g>
					<path class="st28" d="M394.1,267.4c2.1,3.8,1.1,8.3-2.2,10.1c-3.3,1.8-7.6,0.1-9.6-3.7c-2.1-3.8-1.1-8.3,2.2-10.1
						C387.7,261.9,392,263.6,394.1,267.4z"/>
					<path class="st22" d="M389.1,278.5c-2.8,0-5.6-1.8-7.1-4.6c-2.1-3.9-1.1-8.6,2.3-10.4c0.9-0.5,1.9-0.7,2.9-0.7
						c2.8,0,5.6,1.8,7.1,4.6c2.1,3.9,1.1,8.6-2.3,10.4C391.1,278.2,390.1,278.5,389.1,278.5z M387.3,263.2c-1,0-1.9,0.2-2.7,0.7
						c-3.1,1.7-4.1,6.1-2.1,9.8c1.4,2.6,4,4.3,6.6,4.3c1,0,1.9-0.2,2.7-0.7c3.1-1.7,4.1-6.1,2.1-9.8
						C392.5,264.9,389.9,263.2,387.3,263.2z"/>
				</g>
				<g>
					<path class="st28" d="M381.5,275.8c0.1,0.3,0,0.6-0.3,0.7l0,0c-0.3,0.1-0.6,0-0.7-0.3l-2.5-5.6c-0.1-0.3,0-0.6,0.3-0.7l0,0
						c0.3-0.1,0.6,0,0.7,0.3L381.5,275.8z"/>
					<path class="st22" d="M381.1,276.8c-0.3,0-0.6-0.2-0.7-0.5l-2.5-5.6c-0.1-0.2-0.1-0.4,0-0.6s0.2-0.3,0.4-0.4
						c0.4-0.2,0.8,0,1,0.4l2.5,5.6c0.2,0.4,0,0.8-0.4,1C381.3,276.8,381.2,276.8,381.1,276.8z M378.5,270.2h-0.1
						c-0.1,0-0.1,0.1-0.1,0.2s0,0.1,0,0.2l2.5,5.6c0.1,0.1,0.2,0.2,0.4,0.1c0.1-0.1,0.2-0.2,0.1-0.4l-2.5-5.6
						C378.7,270.2,378.6,270.2,378.5,270.2z"/>
				</g>
				<g>
					<polygon class="st22" points="378.5,271.4 378.4,270.9 448.9,249.8 449,250.2 					"/>
				</g>
				<g>
					<polygon class="st22" points="379.3,272.9 379.2,272.4 449.3,250.3 449.5,250.8 					"/>
				</g>
				<g>
					<polygon class="st22" points="379.8,274 379.7,273.5 449.5,251.1 449.7,251.6 					"/>
				</g>
				<g>
					<polygon class="st22" points="380.4,275.4 380.3,274.9 449.6,251.7 449.8,252.2 					"/>
				</g>
			</g>
			<g>
				<path class="st25" d="M439.2,250.7c-2.2,1.3-3.1,7.6,1.3,7.4C445,257.9,441.8,249.1,439.2,250.7z"/>
				<path class="st22" d="M440.4,258.3L440.4,258.3c-1.5,0-2.6-0.8-3-2.2c-0.6-2,0.3-4.8,1.8-5.7c0.2-0.2,0.5-0.2,0.8-0.2
					c1.6,0,3.1,2.8,3.1,5c0,1.9-0.9,3-2.5,3.1C440.5,258.3,440.4,258.3,440.4,258.3z M439.9,250.7c-0.2,0-0.4,0.1-0.5,0.2
					c-1.3,0.8-2.1,3.4-1.6,5.1c0.2,0.8,0.9,1.8,2.5,1.8l0,0c0.1,0,0.1,0,0.2,0c1.8-0.1,2-1.6,2-2.6
					C442.5,253.1,441.1,250.7,439.9,250.7z"/>
			</g>
			<g>
				<path class="st25" d="M388,274.4c-0.8-0.6-2.8-2-2.8-2s0.8,1.3,1.4,2.5c0.5,1.2,0.1,1.9-0.6,1.3c-0.6-0.6-2-3.1-2-3.1v1.6
					c0,2.4-0.9,2.6-1,1.5c-0.1-1.2-0.5-3.2-0.5-3.2s-0.5,2.8-1.4,2.9s-0.2-1.4-0.1-2.7c0-0.6,0.1-1.3,0.2-1.9c0-0.9,0-2,1-2.4
					c1.2-0.5,2.7-0.2,4-0.4c0.2,0,1.3-0.2,1.2,0.4c-0.1,0.8-1.5,1.2-1.7,1.8c-0.2,0.6,1.5,1.3,2.6,2.3
					C389.3,273.9,388.8,275,388,274.4z"/>
				<path class="st22" d="M383.3,277.1c-0.1,0-0.5-0.1-0.6-0.9c-0.1-0.6-0.2-1.4-0.3-2c-0.3,0.9-0.7,1.9-1.3,2
					c-0.3,0.1-0.5-0.1-0.6-0.2c-0.2-0.3-0.1-0.9,0-1.6c0.1-0.4,0.2-0.9,0.2-1.3c0-0.3,0.1-0.6,0.1-1c0-0.3,0.1-0.6,0.1-0.9v-0.1
					c0-0.9,0.1-2,1.2-2.5c0.8-0.3,1.6-0.3,2.5-0.3c0.5,0,1.1,0,1.6-0.1c0.1,0,0.4-0.1,0.6-0.1c0.4,0,0.6,0.1,0.8,0.3
					c0.1,0.1,0.1,0.2,0.1,0.5c-0.1,0.5-0.6,0.9-1,1.2c-0.3,0.2-0.6,0.4-0.6,0.6c-0.1,0.2,0.7,0.7,1.2,1c0.4,0.3,0.9,0.6,1.4,1
					c0.7,0.6,0.8,1.3,0.6,1.6c-0.2,0.5-0.7,0.6-1.2,0.2c-0.4-0.3-1.2-0.9-1.9-1.4c0.3,0.5,0.6,1,0.8,1.5c0.3,0.6,0.3,1.2,0.1,1.6
					c-0.2,0.3-0.7,0.3-1.1,0c-0.4-0.4-1.1-1.5-1.5-2.2v0.6C384.2,276.2,383.9,277.1,383.3,277.1z M382.4,272.7
					c0.1,0,0.2,0.1,0.2,0.2s0.4,2.1,0.5,3.2c0,0.3,0.1,0.4,0.1,0.4c0.1-0.1,0.4-0.6,0.4-1.9V273c0-0.1,0.1-0.2,0.2-0.2
					s0.2,0,0.3,0.1c0,0,1.3,2.4,1.9,3c0.1,0.1,0.2,0.2,0.3,0.2c0.1-0.1,0.2-0.5-0.1-1.1c-0.5-1.1-1.3-2.5-1.4-2.5
					c-0.1-0.1,0-0.2,0-0.3c0.1-0.1,0.2-0.1,0.3,0s2.1,1.5,2.9,2c0.2,0.2,0.4,0.2,0.4,0c0.1-0.2,0-0.7-0.5-1.1
					c-0.4-0.3-0.9-0.7-1.3-1c-0.9-0.6-1.6-1.1-1.4-1.6c0.1-0.3,0.5-0.6,0.8-0.8c0.4-0.3,0.8-0.6,0.8-0.9c0-0.1-0.1-0.1-0.4-0.1
					c-0.2,0-0.4,0-0.5,0c-1.4,0.2-2.8-0.1-3.9,0.4c-0.8,0.3-0.8,1.2-0.9,2v0.1c0,0.3-0.1,0.6-0.1,1c0,0.3-0.1,0.6-0.1,0.9
					c0,0.4-0.1,0.9-0.2,1.3s-0.2,1-0.1,1.1c0.1,0,0.1,0,0.1,0c0.5-0.1,1-1.7,1.2-2.7C382.2,272.8,382.3,272.7,382.4,272.7
					L382.4,272.7z"/>
			</g>
			<g>
				<path class="st22" d="M382.3,269.3h-1c0.5-17.6,5.6-25,5.8-25.3l0.8,0.6C387.9,244.7,382.8,252.1,382.3,269.3L382.3,269.3z"/>
			</g>
		</g>
		<g class="st36">
			<path class="st35" d="M409.9,254c0,0,9.7,6.4,2.2,16.6c-3.7,5-12.1,2-12.1,2s-1.5,10.9-14.5,9.7c-13-1.2-13-14.8-13-14.8
				s-3.5,9.5,8.3,15.7c11.7,6.1,19.8-3,19.9-7.4c0,0,9.5,3.1,14.6-4.1C420.3,264.5,414.9,254.2,409.9,254z"/>
		</g>
		<g class="st20">
			<path class="st25" d="M396.5,326.8c0,0-4.2-1.1-4,1.7c0.1,2.7,9,0.5,9,0.5L396.5,326.8z"/>
			<path class="st22" d="M395.4,330.1L395.4,330.1c-2.1,0-3.1-0.5-3.2-1.6c0-0.6,0.1-1.1,0.5-1.4c0.4-0.5,1.2-0.7,2.1-0.7
				s1.7,0.2,1.7,0.2l5,2.2c0.1,0,0.2,0.1,0.1,0.2c0,0.1-0.1,0.2-0.2,0.2C401.4,329.2,398,330.1,395.4,330.1z M394.9,326.8
				c-0.6,0-1.3,0.1-1.8,0.5c-0.2,0.3-0.4,0.6-0.3,1.1c0,0.9,1.5,1.1,2.7,1.1c1.8,0,4.1-0.4,5.3-0.7l-4.3-1.8l0,0
				C396.4,327,395.7,326.8,394.9,326.8z"/>
		</g>
		<g class="st20">
			<path class="st25" d="M429.4,324.2c0,0-10.9,2.6-4.8,4.6C430.8,330.7,429.4,324.2,429.4,324.2z"/>
			<path class="st22" d="M426.7,329.4L426.7,329.4c-0.6,0-1.3-0.1-2.1-0.4c-1.4-0.4-2.1-1-2.1-1.6c0.1-1.7,5.7-3.2,6.8-3.4
				c0.1,0,0.1,0,0.2,0s0.1,0.1,0.1,0.2s0.6,2.8-0.7,4.3C428.5,329,427.7,329.4,426.7,329.4z M429.2,324.5c-2.5,0.6-6.2,1.9-6.2,2.9
				c0,0.2,0.2,0.7,1.7,1.1c0.7,0.2,1.4,0.4,2,0.4l0,0c0.8,0,1.5-0.3,1.9-0.8C429.5,327,429.3,325.2,429.2,324.5z"/>
		</g>
	</g>
	<g class="st19">
		<g class="st20">
			<g>
				<g>
					<path class="st22" d="M282.4,327.3l-0.8-0.6c10.2-13.2,9.1-40,9.1-40.3h1C291.8,287.4,292.9,313.8,282.4,327.3L282.4,327.3z"/>
				</g>
				<g>
					<path class="st22" d="M317.3,323.6c-6.2-17.7-5.8-40.5-5.8-40.7h1c0,0.2-0.4,22.8,5.7,40.4L317.3,323.6L317.3,323.6z"/>
				</g>
				<g>
					<g>
						<g>
							<g>
								<path class="st37" d="M316.7,262.9c-6.1-16.8-14.6-24.7-18.9-27.9c3.8,3.6,5.6,11.4-0.6,10.9c-4.6-0.4-6-8.2-6.3-11.4
									l-0.5,0.2c0,0,0.5,7.9-3.5,18.2c-2,5.1-4.4,11-5.1,16.8l0,0c0,0,2.8,7.7,21,6.2c10-0.8,13.9-4.7,15.2-8.2
									C317.7,266.2,317.3,264.6,316.7,262.9z"/>
								<path class="st22" d="M298.2,276.3L298.2,276.3c-12.9,0-16.1-5.2-16.6-6.3h-0.1v-0.3c0.6-5.4,2.8-10.9,4.7-15.7l0.4-1.1
									c3.9-10.1,3.5-18,3.5-18.1v-0.2l1-0.3v0.3c0.4,3.2,1.7,10.8,6.1,11.2c1.8,0.1,3-0.4,3.5-1.7c0.9-2.3-0.6-6.4-3.1-8.8
									l0.3-0.4c4.5,3.2,12.9,11.2,19,28c0.6,1.6,1,3.2,1.3,4.8v0.1v0.1c-1.2,3.3-4.9,7.5-15.5,8.4
									C301.2,276.3,299.6,276.3,298.2,276.3z M282,269.6c0.1,0.2,2.7,6.2,16.2,6.2l0,0c1.4,0,2.9-0.1,4.5-0.2
									c10.2-0.8,13.8-4.8,15-8c-0.3-1.6-0.7-3.1-1.3-4.6c-5.2-14.5-12.3-22.3-16.9-26.2c1.6,2.5,2.4,5.5,1.6,7.4
									c-0.4,1-1.4,2.2-4,2c-4.6-0.4-6.1-7.8-6.5-11.3l0,0c0,1.3,0.1,8.8-3.5,18.1l-0.4,1.1C284.8,258.9,282.6,264.3,282,269.6z"/>
							</g>
							<g>
								<path class="st38" d="M297.2,246c6.2,0.5,4.4-7.4,0.6-10.9c-1.8-1.3-2.9-1.8-2.9-1.8l-4,1.3
									C291.2,237.8,292.6,245.6,297.2,246z"/>
								<path class="st22" d="M297.7,246.3L297.7,246.3c-0.2,0-0.4,0-0.6,0c-4.7-0.4-6.2-8.2-6.6-11.6v-0.2l4.3-1.4h0.1
									c0,0,1.1,0.5,2.9,1.8c2.7,2.6,4.2,6.9,3.3,9.4C300.8,245.2,299.9,246.3,297.7,246.3z M291.1,234.8
									c0.4,3.3,1.8,10.6,6.1,10.9c0.2,0,0.4,0,0.5,0l0,0c1.5,0,2.5-0.6,3-1.7c0.9-2.3-0.6-6.4-3.1-8.8c-1.4-1-2.4-1.5-2.7-1.7
									L291.1,234.8z"/>
							</g>
						</g>
						<g>
							<path class="st39" d="M318,267.7c-1.3,3.5-5.3,7.4-15.2,8.2c-18.1,1.5-21-6.2-21-6.2l0,0c-0.7,5.9,0.5,11.8,5.8,16.6
								C297.3,295.3,321.6,288,318,267.7z"/>
							<path class="st22" d="M298.4,290.4L298.4,290.4c-4.4,0-8.3-1.4-11-3.8c-4.8-4.3-6.7-9.9-5.9-16.9v-0.2l0.4-0.1l0.1,0.2
								c0,0.1,2.5,6.2,16.2,6.2c1.4,0,2.9-0.1,4.5-0.2c10.2-0.8,13.8-4.8,15-8l0.3-0.9l0.2,0.9c1.1,6-0.2,11.4-3.7,15.5
								C310.8,287.6,304.6,290.4,298.4,290.4z M281.9,270.5c-0.6,6.5,1.3,11.6,5.8,15.6c2.6,2.4,6.4,3.7,10.7,3.7l0,0
								c6.1,0,12.1-2.7,15.8-7c3.2-3.8,4.5-8.7,3.7-14.2c-1.5,3.2-5.4,6.7-15.1,7.5c-1.6,0.1-3.1,0.2-4.5,0.2
								C286.8,276.3,283,272.3,281.9,270.5z"/>
						</g>
					</g>
					<g class="st40">
						<g>
							<path class="st37" d="M308.8,257.9c1.6,3.9,2.6,9.8,1.7,16.4c4.4-1.6,6.5-4.2,7.4-6.6c-0.3-1.5-0.7-3.1-1.3-4.7
								c-6.1-16.8-14.6-24.7-18.9-27.9c3.6,3.4,5.4,10.6,0.3,10.9l0,0C298.1,246,304.6,247.5,308.8,257.9z"/>
						</g>
						<g>
							<path class="st39" d="M318,267.7c-0.9,2.4-3,4.9-7.4,6.6c-1.2,9.4-6.5,17.5-21.8,13c-0.1,0-0.2-0.1-0.3-0.1
								C298.8,294.9,321.5,287.4,318,267.7z"/>
						</g>
					</g>
				</g>
				<g>
					<path class="st22" d="M272.8,247c-7.4-1-10.6-7.1-10.6-7.2l0.9-0.5c0.2,0.3,4.1,7.7,13.5,6.7c9.1-1,14-8.6,15-13.5l1,0.2
						c-1.1,5.2-6.3,13.3-15.9,14.3C275.3,247.2,274,247.2,272.8,247L272.8,247z"/>
				</g>
				<g>
					<g>
						<path class="st38" d="M263.6,240.1c0,0,3.2-4.3-0.4-7.2s-8.6,1.2-7.3,5.3C257.1,242.2,261.6,242.1,263.6,240.1z"/>
						<path class="st22" d="M260.2,241.7L260.2,241.7c-2.2,0-3.9-1.3-4.5-3.5c-0.5-1.5-0.2-3.1,0.8-4.4c1-1.4,2.5-2.2,4.1-2.2
							c1,0,2,0.4,2.9,1c3.8,3.1,0.4,7.6,0.4,7.6C262.9,241.2,261.5,241.7,260.2,241.7z M260.5,232.1c-1.4,0-2.8,0.8-3.7,2
							c-0.9,1.2-1.1,2.6-0.7,4c0.9,2.8,3.1,3.1,4.1,3.1l0,0c1.2,0,2.4-0.5,3.2-1.3c0.1-0.1,3-4.1-0.3-6.9
							C262.3,232.4,261.4,232.1,260.5,232.1z"/>
					</g>
					<g>
						<path class="st22" d="M260.5,238.5c-1.3-0.2-1.9-0.8-2.1-1.2c-0.4-0.7-0.2-1.5,0.1-1.9c0.2-0.2,0.5-0.3,0.7-0.2
							c1.5,0.5,2.4-0.3,2.4-0.4l0.4,0.4c0,0-1.2,1.1-3,0.5c-0.1,0-0.1,0-0.2,0.1c-0.2,0.2-0.3,0.8-0.1,1.3c0.2,0.5,1,1.2,3.2,1
							l0.1,0.5C261.5,238.5,261,238.5,260.5,238.5L260.5,238.5z"/>
					</g>
					<g>
						<g class="st40">
							<path class="st41" d="M264.3,234.1c0.1,0.3,0.1,0.5,0.1,0.8c0.1,3.2-2.2,4.9-4.8,4.8c-2.2-0.1-3.3-1.3-3.8-1.9
								c0,0.1,0,0.2,0.1,0.3c1.3,4.1,5.7,4,7.7,2C263.6,240.1,266,236.8,264.3,234.1z"/>
						</g>
					</g>
				</g>
				<g>
					<g>
						<path class="st22" d="M320,247.9c-11.8-1.6-20.4-10.7-20.5-10.8l0.8-0.7c0.1,0.1,13.1,13.8,28.6,10.1l0.2,1
							C325.9,248.2,322.9,248.3,320,247.9L320,247.9z"/>
					</g>
					<g>
						<g>
							<path class="st38" d="M329.1,250.1c0,0-3.9-3.9-0.2-7.3c3.8-3.4,9.6,0.1,8.5,4.4C336.4,251.5,331.5,251.9,329.1,250.1z"/>
							<path class="st22" d="M332.3,251.4c-1.3,0-2.5-0.4-3.4-1c-0.1-0.1-2-2-1.9-4.3c0-1.2,0.6-2.4,1.7-3.4c1-0.9,2.3-1.4,3.6-1.4
								c1.7,0,3.4,0.8,4.5,2.2c0.9,1.1,1.2,2.5,0.9,3.9C337,250.3,334.4,251.4,332.3,251.4z M332.4,241.8c-1.2,0-2.3,0.4-3.3,1.3
								s-1.5,1.9-1.5,3c-0.1,2.1,1.7,3.9,1.7,3.9c0.8,0.6,1.9,0.9,3,0.9c1.9,0,4.2-1,4.9-3.7c0.3-1.2,0-2.4-0.8-3.4
								C335.5,242.5,333.9,241.8,332.4,241.8z"/>
						</g>
						<g>
							<path class="st22" d="M330.6,248.3v-0.5c2.6,0,3.4-0.9,3.6-1.5c0.2-0.5,0.1-1-0.2-1.2c-0.1-0.1-0.2-0.1-0.3-0.1
								c-1.9,0.9-3.2-0.1-3.3-0.1l0.3-0.4c0,0,1.2,0.8,2.8,0.1c0.3-0.1,0.6-0.1,0.8,0.2c0.4,0.3,0.6,1.1,0.3,1.8
								C334.4,247.2,333.5,248.3,330.6,248.3L330.6,248.3z"/>
						</g>
						<g>
							<g class="st40">
								<path class="st41" d="M327.8,244.2c-0.1,0.3-0.1,0.5-0.1,0.8c0.1,3.2,2.9,4.7,5.7,4.2c2.4-0.3,3.6-1.7,4-2.3
									c0,0.1,0,0.2-0.1,0.3c-1.1,4.2-6,4.6-8.4,2.9C329.1,250.1,326.2,247.2,327.8,244.2z"/>
							</g>
						</g>
					</g>
				</g>
				<g class="st40">
					<g>
						<path class="st41" d="M297.7,235.1c-1.8-1.3-2.9-1.8-2.9-1.8l-4,1.3c0.1,0.7,0.2,1.7,0.5,2.8c2.6,0.2,5.7,0.8,7.4,2.3
							c2.3,2,1.5,5.3-0.6,6.2C303.1,245.7,301.3,238.5,297.7,235.1z"/>
					</g>
				</g>
				<g>
					<g>
						<g>
							<g>
								<path class="st42" d="M337.7,186.1c-13.3-7.6-23.2,1-23.2,1l2,2c21.6,11.5,9.8,44.4,9.8,44.4l6.4,0.7l2.1-5.3l-0.5,5
									l4.7-1.5l1.5-8.3l1.1,7.5l7.6-1.9l1.4-5.2l0.3,4.1l1.6-0.5C353.8,219.7,353.1,194.8,337.7,186.1z"/>
								<path class="st22" d="M332.9,234.5l-6.9-0.7l0.1-0.3c0.1-0.3,11.5-32.9-9.7-44.1h-0.1l-2.2-2.2l0.2-0.2
									c0,0,4.9-4.2,12.3-4.2c3.7,0,7.5,1.1,11.2,3.1c15.7,8.9,16.1,34.1,15,42.2v0.2l-2.1,0.6l-0.2-2.9l-1.1,3.9l-8,2l-0.9-6.2
									l-1.2,6.9l-5.3,1.6l0.4-3.5L332.9,234.5z M326.8,233.3l5.8,0.6l2-5.1l0.5,0.1l-0.5,4.6l4.2-1.3l1.5-8.2h0.5l1,7.2l7.2-1.8
									l1.4-5.1h0.5l0.3,3.7l1.2-0.3c1.1-8.2,0.6-32.8-14.8-41.5c-3.6-2-7.2-3.1-10.9-3.1c-6.3,0-10.7,3.1-11.8,3.9l1.8,1.8
									C337.1,199.8,327.9,230,326.8,233.3z"/>
							</g>
							<g>
								<path class="st22" d="M345.4,204.7c-5.3-21-23-18.7-23.1-18.7l-0.1-0.5c0.2,0,18.3-2.4,23.7,19.1L345.4,204.7L345.4,204.7z"
									/>
							</g>
							<g>
								<path class="st22" d="M338.1,212.6l-0.5-0.1c2.5-13.5-4.6-18.4-4.6-18.4l0.3-0.4C333.3,193.7,340.6,198.7,338.1,212.6
									L338.1,212.6z"/>
							</g>
						</g>
						<g>
							<path class="st43" d="M317.2,184.9c-0.2,1.8-2,3.1-3.8,2.8c-1.9-0.3-3.2-1.9-3-3.7s2-3.1,3.8-2.8
								C316.2,181.4,317.5,183.1,317.2,184.9z"/>
							<path class="st22" d="M313.9,188c-0.2,0-0.3,0-0.5,0c-1-0.1-1.8-0.6-2.4-1.4c-0.6-0.8-0.9-1.7-0.7-2.6c0.3-1.9,2.1-3.3,4.1-3
								c1,0.1,1.8,0.6,2.4,1.4c0.6,0.8,0.9,1.7,0.7,2.6C317.3,186.7,315.7,188,313.9,188z M313.8,181.4c-1.6,0-2.9,1.1-3.1,2.6
								c-0.1,0.8,0.1,1.6,0.6,2.3s1.3,1.1,2.1,1.2c1.8,0.2,3.3-1,3.6-2.6c0.1-0.8-0.1-1.6-0.6-2.3s-1.3-1.1-2.1-1.2
								C314.1,181.4,313.9,181.4,313.8,181.4z"/>
						</g>
						<g>
							<path class="st43" d="M320.4,188.4c-0.2,1.8-2,3.1-3.8,2.8c-1.9-0.3-3.2-1.9-3-3.7s2-3.1,3.8-2.8
								C319.4,184.9,320.7,186.5,320.4,188.4z"/>
							<path class="st22" d="M317.1,191.5c-0.2,0-0.3,0-0.5,0c-1-0.1-1.8-0.6-2.4-1.4c-0.6-0.8-0.9-1.7-0.7-2.6
								c0.3-1.9,2.1-3.3,4.1-3c1,0.1,1.8,0.6,2.4,1.4c0.6,0.8,0.9,1.7,0.7,2.6C320.5,190.1,318.9,191.5,317.1,191.5z M317,184.8
								c-1.6,0-2.9,1.1-3.1,2.6c-0.1,0.8,0.1,1.6,0.6,2.3s1.3,1.1,2.1,1.2c1.8,0.2,3.3-1,3.6-2.6c0.1-0.8-0.1-1.6-0.6-2.3
								s-1.3-1.1-2.1-1.2C317.3,184.9,317.1,184.8,317,184.8z"/>
						</g>
						<g>
							<g>
								<path class="st42" d="M334,207.9c-1.8-15.9-17-20-17-20v1.5c19.8,11.1,10.6,40.6,9.5,43.8
									C331.4,226.8,335.1,217.8,334,207.9z"/>
							</g>
						</g>
					</g>
					<g>
						<path class="st22" d="M263.1,189.1l-0.5-0.1c0-0.1,2.7-8.9,10.4-9.4c7.7-0.6,9.8,4.5,9.8,4.6l-0.5,0.2c-0.1-0.2-2-4.8-9.3-4.3
							C265.7,180.5,263.2,189,263.1,189.1L263.1,189.1z"/>
					</g>
					<g>
						<path class="st22" d="M267.2,191.4l-0.5-0.1c0-0.1,1.8-9.9,10.2-9.3c2.4,0.2,4.2,1.1,5.5,2.6l-0.4,0.3
							c-1.2-1.4-2.9-2.3-5.2-2.4C268.9,181.9,267.3,191,267.2,191.4L267.2,191.4z"/>
					</g>
					<g>
						<g>
							<path class="st38" d="M307.3,198.2c-10.7-14.8-25.1-13.5-25.1-13.5v-0.1c-1.8,0.8-3.5,1.8-5,2.9c-17,12.2-15.9,41.1,6.4,47.8
								c5,1.5,11.1,2,16.2,1.5c5.1-0.6,10-2.4,14-5.7c0.6-0.5,1.1-1,1.6-1.5C315.7,228.2,317.7,212.6,307.3,198.2z"/>
							<path class="st22" d="M295.6,237.2L295.6,237.2c-4.2,0-8.4-0.6-12.1-1.7c-9.7-2.9-16.2-10.3-17.9-20.2
								c-1.8-10.8,2.7-21.8,11.4-28.1c1.5-1.1,3.2-2.1,5.1-2.9l0.4-0.2v0.3c2.1-0.1,15.2-0.1,25,13.6c10.4,14.4,8.4,29.8,8.2,31.5
								v0.1l-0.1,0.1c-0.6,0.6-1.1,1-1.6,1.5c-3.9,3.2-8.7,5.2-14.2,5.8C298.5,237.1,297.1,237.2,295.6,237.2z M282,185
								c-1.7,0.8-3.3,1.7-4.6,2.7c-8.6,6.2-12.9,17-11.2,27.6c1.6,9.7,8,16.9,17.5,19.8c3.6,1.1,7.8,1.7,11.9,1.7l0,0
								c1.4,0,2.9-0.1,4.2-0.2c5.3-0.6,10.1-2.5,13.9-5.7c0.5-0.4,1-0.9,1.5-1.4c0.3-2.1,2-17-8.1-31.1c-9-12.4-20.6-13.4-23.9-13.4
								c-0.6,0-0.9,0-0.9,0L282,185L282,185z"/>
						</g>
						<g>
							<path class="st42" d="M320.1,193c-1.9-2.8-4.2-5.1-6.8-6.9c-7.6-5.1-17.5-6-26.7-3.2c-1.5,0.4-2.9,1-4.4,1.7v0.1
								c0,0,14.4-1.3,25.1,13.5c10.4,14.4,8.3,30,8.1,31.3C324.6,220.5,327.3,203.7,320.1,193z"/>
							<path class="st22" d="M315.1,230.3l0.1-0.8c0.3-1.7,2.2-16.9-8.1-31.2c-9-12.4-20.6-13.4-23.9-13.4c-0.6,0-0.9,0-0.9,0H282
								v-0.6l0.2-0.1c1.5-0.7,3-1.3,4.4-1.7c3.4-1.1,6.9-1.6,10.4-1.6c6.1,0,11.8,1.7,16.5,4.8c2.7,1.8,5,4.2,6.9,6.9
								c7.1,10.5,4.9,27.4-4.7,36.9L315.1,230.3z M283.2,184.4c3.4,0,15.3,1,24.4,13.6c9.5,13.1,8.7,27.1,8.3,30.8
								c9-9.5,10.9-25.6,4.1-35.7c-1.8-2.7-4.1-5-6.8-6.8c-4.5-3.1-10.1-4.7-16.2-4.7c-3.4,0-6.9,0.5-10.3,1.6
								C285.5,183.5,284.4,183.9,283.2,184.4z"/>
						</g>
					</g>
					<g>
						<path class="st22" d="M296.4,187l-0.2-0.5c0,0,5.1-2.7,12.4-1.7l-0.1,0.5C301.3,184.4,296.5,187,296.4,187L296.4,187z"/>
					</g>
					<g>
						<path class="st22" d="M314.3,206.1l-0.5-0.2c4.5-8.6,2.5-14.6,2.5-14.6l0.5-0.2C316.9,191.3,318.9,197.3,314.3,206.1
							L314.3,206.1z"/>
					</g>
					<g>
						<path class="st22" d="M307.6,194.9l-0.3-0.4c3.7-2.4,4.9-5.3,4.9-5.3l0.5,0.2C312.6,189.5,311.4,192.5,307.6,194.9
							L307.6,194.9z"/>
					</g>
					<g>
						<path class="st31" d="M290.4,207.5c-0.2,1.1-1,2-1.8,1.9c-0.9-0.1-1.4-1.1-1.3-2.3c0.2-1.1,1-2,1.8-1.9
							C290,205.3,290.5,206.3,290.4,207.5z"/>
					</g>
					<g>
						<path class="st31" d="M272.7,203.6c-0.3,1-1.2,1.6-1.9,1.3c-0.7-0.2-1.1-1.2-0.7-2.2c0.3-1,1.2-1.6,1.9-1.3
							C272.7,201.6,273,202.6,272.7,203.6z"/>
					</g>
					<g>
						<g>
							<path class="st22" d="M279,229.3c-0.4,0-0.8-0.1-1.2-0.2c-5.8-1.6-5.7-7.7-5.7-7.8h0.5c0,0.2-0.1,5.8,5.3,7.3
								c2.1,0.6,4,0.3,5.5-0.9c1.8-1.4,2.5-3.8,2.4-5.6h0.5c0.1,1.9-0.7,4.4-2.6,6C282.9,228.8,281.3,229.6,279,229.3L279,229.3z"/>
						</g>
						<g>
							<path class="st22" d="M286,222.4c-1.1-0.2-1.7-1.1-1.7-1.1l0.4-0.3c0,0.1,1.1,1.6,3.1,0.4l0.3,0.4
								C287.2,222.4,286.5,222.5,286,222.4L286,222.4z"/>
						</g>
					</g>
					<g class="st44">
						<g>
							<path class="st41" d="M310.8,203.8c2.2,5.1,3.5,12-0.3,19.2c-6.9,13.3-27,14.4-36.9,6.7c2.7,2.4,6,4.4,10,5.6
								c5,1.5,11.1,2,16.2,1.5c5.1-0.6,10-2.4,14-5.7c0.6-0.5,1.1-1,1.6-1.5C315.6,228.4,317.2,216.4,310.8,203.8z"/>
						</g>
					</g>
					<g>
						<g>
							<path class="st42" d="M320.1,193c-1.3-2-2.9-3.7-4.6-5.1l0,0c0,0,5.2,12-2.9,19.5c-0.1,0.1-0.1,0.1-0.2,0.1
								c4.5,11.1,3.2,21,3,22C324.6,220.5,327.3,203.7,320.1,193z"/>
						</g>
					</g>
				</g>
				<g>
					<path class="st45" d="M302.5,250.3c-2.7,0.2-5.9,0.7-7.3,1l0.4,2.3l4.8-0.6l-2,10.5l2.7,0.2l2.2-12.5
						C303.5,250.1,302.5,250.3,302.5,250.3z"/>
				</g>
				<g>
					<path class="st46" d="M283.1,327.6c0,0-1-2.5-3.7-0.5c-2.8,2-1,8.4,4.6,12.1c5.6,3.8,9.1,2.2,9-0.7
						C292.9,335.6,286,332.3,283.1,327.6z"/>
					<path class="st22" d="M289.8,341.7L289.8,341.7c-1.7,0-3.8-0.8-6-2.2c-4.1-2.7-6-6.7-6-9.3c0-1.4,0.5-2.6,1.4-3.2
						c0.8-0.5,1.5-0.8,2.1-0.8c1.5,0,2,1.4,2,1.4c1.3,2.2,3.6,4.1,5.6,5.7c2.3,1.9,4.3,3.6,4.3,5.2c0,0.9-0.2,1.7-0.8,2.2
						C291.9,341.4,290.9,341.7,289.8,341.7z M281.3,326.6c-0.5,0-1.1,0.2-1.8,0.7c-0.8,0.6-1.2,1.5-1.2,2.8c0,2.5,1.9,6.3,5.8,8.9
						c2.7,1.8,4.6,2.2,5.7,2.2l0,0c1,0,1.8-0.3,2.3-0.8c0.4-0.5,0.7-1.1,0.6-1.8c-0.1-1.4-2-3-4.1-4.9c-2-1.7-4.3-3.6-5.7-5.9
						C282.8,327.7,282.4,326.6,281.3,326.6z"/>
				</g>
				<g>
					<path class="st46" d="M318.3,322.8c0,0-0.8,0-3.2,4.1s-7.1,10.4-3.6,13.6c2.9,2.6,8.7-2.1,9.6-9.4
						C322.2,323.9,320.4,322.6,318.3,322.8z"/>
					<path class="st22" d="M313.5,341.6L313.5,341.6c-0.8,0-1.5-0.3-2.1-0.8c-3.3-2.9-0.1-8.1,2.4-12.2c0.4-0.6,0.8-1.2,1.1-1.8
						c2.3-3.9,3.2-4.3,3.4-4.3c0.1,0,0.3,0,0.4,0c0.8,0,1.5,0.3,2,0.8c1.1,1.2,1.3,3.8,0.8,7.9C320.6,337.4,316.6,341.6,313.5,341.6
						z M318.7,323.1c-0.1,0-0.3,0-0.4,0c0,0-0.8,0.3-3,4c-0.3,0.6-0.7,1.2-1.1,1.8c-2.4,4-5.4,8.9-2.5,11.5c0.5,0.4,1.1,0.7,1.7,0.7
						c2.9,0,6.7-4.2,7.5-9.9c0.5-3.9,0.3-6.4-0.6-7.4C319.9,323.3,319.4,323.1,318.7,323.1z"/>
				</g>
				<g>
					<g>
						<path class="st47" d="M284.5,337.9c0,0-6.4-4.8-5.7-10.1c-1.8,2.5,0.1,8.1,5.2,11.5c5.6,3.8,9.1,2.2,9-0.7
							c-0.1-1.4-1.8-3-3.9-4.7H289C289,333.9,290.1,337.7,284.5,337.9z"/>
						<path class="st22" d="M289.8,341.7c-1.7,0-3.8-0.8-6-2.2c-3.1-2.1-5.4-5.3-5.9-8.2c-0.3-1.5,0-2.8,0.6-3.7l0.6-0.8l-0.1,1
							c-0.6,4.8,4.8,9.3,5.5,9.9c1.9-0.1,3.1-0.6,3.8-1.5c0.8-1,0.5-2.3,0.5-2.3l-0.1-0.2l0.4-0.1l0.2,0.1c2.3,1.9,3.9,3.4,4,4.9
							c0,0.9-0.2,1.7-0.8,2.2C291.9,341.4,290.9,341.7,289.8,341.7z M278.5,329c-0.1,0.6-0.2,1.3,0,2.1c0.4,2.2,2.1,5.5,5.7,7.9
							c2.7,1.8,4.6,2.2,5.7,2.2c1,0,1.8-0.3,2.3-0.8c0.4-0.5,0.7-1.1,0.6-1.8c-0.1-1.2-1.5-2.6-3.3-4.2c0,0.5-0.1,1.4-0.6,2.1
							c-0.8,1-2.2,1.6-4.3,1.7h-0.1l-0.1-0.1C284.1,337.9,278.8,333.9,278.5,329z"/>
					</g>
					<g>
						<path class="st47" d="M311.2,333.8c-1.1,2.6-1.6,5.1,0.3,6.8c1.9,1.7,5.1,0.2,7.3-3.1c-0.1,0-0.2,0-0.3,0.1
							C312.9,339,311.5,334.7,311.2,333.8z"/>
						<path class="st22" d="M313.5,341.6c-0.8,0-1.5-0.3-2.1-0.8c-1.7-1.5-1.8-3.8-0.4-7.1l0.3-0.7l0.2,0.7c0.2,0.9,1.3,3.8,5,3.8
							c0.7,0,1.4-0.1,2.1-0.3c0.1,0,0.1,0,0.2,0l0.7-0.1l-0.3,0.5C317.5,340.1,315.3,341.6,313.5,341.6z M311.2,334.6
							c-1.1,2.7-0.9,4.6,0.5,5.9c0.5,0.4,1.1,0.7,1.7,0.7c1.6,0,3.4-1.2,4.8-3.2c-0.7,0.1-1.3,0.2-1.9,0.2
							C313.1,338.1,311.7,335.8,311.2,334.6z"/>
					</g>
				</g>
				<g>
					<path class="st22" d="M319.8,327.6l-0.5-0.2c0.4-1,0.4-2.2-0.1-3c-0.2-0.3-0.4-0.6-0.9-0.7c-0.9-0.1-2.1,1.8-2.7,3l-0.5-0.2
						c0.2-0.4,1.7-3.5,3.2-3.3c0.5,0.1,1,0.4,1.3,0.9C320.3,325.1,320.3,326.4,319.8,327.6L319.8,327.6z"/>
				</g>
				<g>
					<path class="st22" d="M280.9,329.2c-0.1-1.1,0.2-1.9,0.7-2.2c0.6-0.4,1.3,0,1.4,0l-0.2,0.5c0,0-0.5-0.2-0.8,0s-0.5,0.8-0.4,1.7
						H280.9L280.9,329.2z"/>
				</g>
				<g>
					<g>
						<path class="st47" d="M318.9,330.7c-0.1,0-0.2-0.1-0.2-0.2c-0.9-2.7-3.6-3.3-3.7-3.3s-0.2-0.2-0.2-0.3c0-0.1,0.2-0.2,0.3-0.2
							c0.1,0,3,0.7,4,3.7C319.1,330.5,319.1,330.7,318.9,330.7C319,330.7,318.9,330.7,318.9,330.7L318.9,330.7z"/>
					</g>
					<g>
						<path class="st47" d="M313.8,329.3c-0.1,0-0.1-0.1-0.2-0.1c-0.1-0.1,0-0.3,0.1-0.4c3.2-1.9,6.2-1.4,6.3-1.4
							c0.1,0,0.2,0.2,0.2,0.3c0,0.1-0.2,0.2-0.3,0.2c0,0-2.9-0.5-5.9,1.3C313.9,329.3,313.8,329.4,313.8,329.3L313.8,329.3z"/>
					</g>
					<g>
						<path class="st47" d="M317.3,333.7c-0.1,0-0.2-0.1-0.2-0.2c-0.9-2.7-3.6-3.3-3.7-3.3s-0.2-0.2-0.2-0.3c0-0.1,0.2-0.2,0.3-0.2
							s3,0.7,4,3.7C317.5,333.5,317.5,333.7,317.3,333.7C317.4,333.7,317.3,333.7,317.3,333.7L317.3,333.7z"/>
					</g>
					<g>
						<path class="st47" d="M312.2,332.1c-0.1,0-0.2-0.1-0.2-0.2c-0.1-0.1,0-0.3,0.1-0.3c3.4-1.5,6.3-0.7,6.4-0.6
							c0.1,0,0.2,0.2,0.2,0.3c0,0.1-0.2,0.2-0.3,0.2C318.4,331.5,315.5,330.7,312.2,332.1C312.3,332.1,312.3,332.1,312.2,332.1
							L312.2,332.1z"/>
					</g>
					<g>
						<path class="st47" d="M316.8,335.1c0,0-0.1,0-0.1-0.1c-2.3-2-4.9-1.8-4.9-1.8c-0.2,0-0.3-0.1-0.3-0.2s0.1-0.3,0.2-0.3
							s2.8-0.1,5.2,2c0.1,0.1,0.1,0.3,0,0.4C317,335.1,316.9,335.1,316.8,335.1L316.8,335.1z"/>
					</g>
					<g>
						<g>
							<path class="st47" d="M283.5,332.4c-0.1,0-0.2-0.1-0.2-0.2c-0.3-2.3,0.5-3.4,0.5-3.4c0.1-0.1,0.2-0.1,0.4-0.1
								c0.1,0.1,0.1,0.2,0.1,0.4c0,0-0.7,1-0.4,3.1C283.8,332.2,283.7,332.4,283.5,332.4L283.5,332.4L283.5,332.4z"/>
						</g>
						<g>
							<path class="st47" d="M281.6,330.6c-0.1,0-0.2-0.1-0.2-0.2c-0.1-0.1,0-0.3,0.1-0.3s1.7-0.7,3.6-0.3c0.1,0,0.2,0.2,0.2,0.3
								c0,0.1-0.1,0.2-0.3,0.2c-1.8-0.3-3.3,0.3-3.3,0.3S281.6,330.7,281.6,330.6L281.6,330.6z"/>
						</g>
					</g>
					<g>
						<g>
							<path class="st47" d="M285.7,334.7c-0.1,0-0.2-0.1-0.2-0.2c-0.3-2.3,0.5-3.4,0.5-3.4c0.1-0.1,0.2-0.1,0.4-0.1
								c0.1,0.1,0.1,0.2,0.1,0.4c0,0-0.7,1-0.4,3.1C286,334.5,285.9,334.7,285.7,334.7L285.7,334.7L285.7,334.7z"/>
						</g>
						<g>
							<path class="st47" d="M283.8,333c-0.1,0-0.2-0.1-0.2-0.2c-0.1-0.1,0-0.3,0.1-0.3s1.7-0.7,3.6-0.3c0.1,0,0.2,0.2,0.2,0.3
								c0,0.1-0.1,0.2-0.3,0.2c-1.8-0.3-3.3,0.3-3.3,0.3C283.9,333,283.9,333,283.8,333L283.8,333z"/>
						</g>
					</g>
					<g>
						<path class="st47" d="M286.2,335.6L286.2,335.6c-0.2-0.1-0.3-0.2-0.2-0.3c0.7-1.9,2.1-2.4,2.1-2.4c0.1,0,0.3,0,0.3,0.2
							c0,0.1,0,0.3-0.2,0.3c0,0-1.2,0.4-1.8,2.1C286.5,335.6,286.4,335.7,286.2,335.6L286.2,335.6z"/>
					</g>
				</g>
				<g>
					<path class="st22" d="M289.8,341.7L289.8,341.7c-1.7,0-3.8-0.8-6-2.2c-4.1-2.7-6-6.7-6-9.3c0-1.4,0.5-2.6,1.4-3.2
						c0.8-0.5,1.5-0.8,2.1-0.8c1.5,0,2,1.4,2,1.4c1.3,2.2,3.6,4.1,5.6,5.7c2.3,1.9,4.3,3.6,4.3,5.2c0,0.9-0.2,1.7-0.8,2.2
						C291.9,341.4,290.9,341.7,289.8,341.7z M281.3,326.6c-0.5,0-1.1,0.2-1.8,0.7c-0.8,0.6-1.2,1.5-1.2,2.8c0,2.5,1.9,6.3,5.8,8.9
						c2.7,1.8,4.6,2.2,5.7,2.2l0,0c1,0,1.8-0.3,2.3-0.8c0.4-0.5,0.7-1.1,0.6-1.8c-0.1-1.4-2-3-4.1-4.9c-2-1.7-4.3-3.6-5.7-5.9
						C282.8,327.7,282.4,326.6,281.3,326.6z"/>
				</g>
				<g>
					<path class="st22" d="M313.5,341.6L313.5,341.6c-0.8,0-1.5-0.3-2.1-0.8c-3.3-2.9-0.1-8.1,2.4-12.2c0.4-0.6,0.8-1.2,1.1-1.8
						c2.3-3.9,3.2-4.3,3.4-4.3c0.1,0,0.3,0,0.4,0c0.8,0,1.5,0.3,2,0.8c1.1,1.2,1.3,3.8,0.8,7.9C320.6,337.4,316.6,341.6,313.5,341.6
						z M318.7,323.1c-0.1,0-0.3,0-0.4,0c0,0-0.8,0.3-3,4c-0.3,0.6-0.7,1.2-1.1,1.8c-2.4,4-5.4,8.9-2.5,11.5c0.5,0.4,1.1,0.7,1.7,0.7
						c2.9,0,6.7-4.2,7.5-9.9c0.5-3.9,0.3-6.4-0.6-7.4C319.9,323.3,319.4,323.1,318.7,323.1z"/>
				</g>
			</g>
			<g>
				<g>
					<g>
						<defs>
							<path id="SVGID_1_" d="M313.7,255c1.1,2.4,2.2,4.9,3.3,7.8c0.6,1.7,1,3.2,1.3,4.7c-1.3,3.5-5.6,7.5-15.5,8.4
								c-18.1,1.5-21-6.2-21-6.2l-0.3-0.1c0.7-5.8,3.1-11.7,5.1-16.8c0,0-25.8,4.6-32.9,16c-7.1,11.4,12,22.2,42.7,18.2
								C327,283,346.4,262.4,313.7,255z"/>
						</defs>
						<clipPath id="SVGID_2_">
							<use xlink:href="#SVGID_1_"  style="overflow:visible;"/>
						</clipPath>
						<g class="st48">
							<g>
								<g>
									<path class="st49" d="M274.4,285.3c-11.5-1.6-18.7-5.8-19.3-11.3c-0.8-8.5,14.6-16.7,35.2-18.8c6.6-0.7,13.2-0.6,18.9,0.2
										c11.5,1.6,18.7,5.8,19.3,11.3c0.4,4.2-3.1,8.5-10.1,12.1c-6.6,3.4-15.5,5.8-25.1,6.7C286.7,286.2,280.2,286.1,274.4,285.3
										L274.4,285.3z M308.9,257.8c-5.6-0.8-11.9-0.8-18.4-0.2c-20.5,2.1-33.7,10-33,16.2c0.4,4.3,7,7.8,17.2,9.1
										c5.6,0.8,11.9,0.8,18.4,0.2c9.3-0.9,18-3.2,24.3-6.5c5.9-3,9.1-6.6,8.8-9.7C325.7,262.7,319.1,259.2,308.9,257.8
										L308.9,257.8z"/>
									<path class="st22" d="M284.4,286.1c-3.5,0-6.9-0.2-10-0.6c-11.6-1.6-18.8-5.8-19.4-11.4c-0.9-8.5,14.7-16.9,35.3-18.9
										c3-0.3,6-0.5,9-0.5c3.5,0,6.9,0.2,10,0.6c11.6,1.6,18.8,5.8,19.4,11.4c0.4,4.3-3.2,8.6-10.1,12.2
										c-6.6,3.4-15.5,5.8-25.2,6.7C290.4,286,287.3,286.1,284.4,286.1z M299.3,255c-2.9,0-5.9,0.2-8.9,0.5
										c-20.5,2-35.9,10.2-35.1,18.6c0.5,5.4,7.7,9.6,19.2,11.1c3.1,0.4,6.5,0.6,10,0.6c2.9,0,5.9-0.2,8.9-0.5
										c9.6-1,18.5-3.3,25.1-6.7c6.9-3.5,10.4-7.8,10-11.9c-0.5-5.4-7.7-9.6-19.2-11.1C306.1,255.2,302.8,255,299.3,255z
										 M284.4,283.7L284.4,283.7c-3.4,0-6.6-0.2-9.7-0.6c-10.3-1.4-16.9-4.9-17.3-9.3c-0.3-3.2,2.8-6.7,8.7-9.8
										c6.3-3.3,15-5.6,24.5-6.6c2.9-0.3,5.9-0.4,8.7-0.4c3.4,0,6.6,0.2,9.7,0.6c10.3,1.4,16.9,4.9,17.3,9.3
										c0.3,3.2-2.9,6.8-8.8,9.8c-6.3,3.2-15,5.5-24.3,6.5C290.2,283.6,287.3,283.7,284.4,283.7z M299.3,257.4
										c-2.9,0-5.8,0.1-8.7,0.4c-9.5,0.9-18.2,3.3-24.4,6.5c-5.7,3-8.8,6.5-8.5,9.5c0.4,4.2,7,7.6,17.1,9c3,0.4,6.3,0.6,9.6,0.6
										c2.9,0,5.8-0.1,8.7-0.4c9.3-0.9,17.9-3.2,24.2-6.5c5.8-3,9-6.5,8.7-9.6c-0.4-4.2-7-7.6-17.1-9
										C305.9,257.6,302.7,257.4,299.3,257.4z"/>
								</g>
							</g>
							<g>
								<g>
									<path class="st50" d="M309.3,255.5c-5.8-0.8-12.3-0.8-18.9-0.2c-2.4,0.2-4.8,0.6-7.1,1c-8.9,1.6-16.4,4.4-21.4,7.7
										c0.4,0.7,0.9,1.3,1.4,1.9c4.5-3,11.5-5.7,20.3-7.3c2.2-0.4,4.6-0.7,7-1c6.4-0.6,12.8-0.6,18.4,0.2c2.1,0.3,4.1,0.7,5.9,1.1
										c0.5-2.1,1.5-2,1.5-2l1,0.2C314.9,256.5,312.2,255.9,309.3,255.5z"/>
								</g>
								<g>
									<path class="st50" d="M326.1,268.4c-0.6,2.8-3.7,5.7-8.7,8.3c-2.4,1.2-5.1,2.3-8.1,3.2c0.3,0.8,0.4,1.6,0.5,2.3
										c3.2-1,6.1-2.1,8.7-3.5c5.2-2.7,8.5-5.8,9.7-9C327.5,268.5,326.1,268.4,326.1,268.4z"/>
								</g>
								<g>
									<path class="st50" d="M277.1,283.2c-0.8-0.1-1.6-0.2-2.4-0.3c-9.3-1.3-15.6-4.3-17-8c-1.3,0.3-1.8,0.9-2.1,1.2
										c2,4.5,8.7,7.8,18.7,9.2c0.8,0.1,1.6,0.2,2.4,0.3C276.7,284.2,277.1,283.4,277.1,283.2z"/>
								</g>
							</g>
							<g>
								<g>
									<path class="st22" d="M284.4,286.1c-3.5,0-6.9-0.2-10-0.6c-11.6-1.6-18.8-5.8-19.4-11.4c-0.9-8.5,14.7-16.9,35.3-18.9
										c3-0.3,6-0.5,9-0.5c3.5,0,6.9,0.2,10,0.6c11.6,1.6,18.8,5.8,19.4,11.4c0.4,4.3-3.2,8.6-10.1,12.2
										c-6.6,3.4-15.5,5.8-25.2,6.7C290.4,286,287.3,286.1,284.4,286.1z M299.3,255c-2.9,0-5.9,0.2-8.9,0.5
										c-20.5,2-35.9,10.2-35.1,18.6c0.5,5.4,7.7,9.6,19.2,11.1c3.1,0.4,6.5,0.6,10,0.6c2.9,0,5.9-0.2,8.9-0.5
										c9.6-1,18.5-3.3,25.1-6.7c6.9-3.5,10.4-7.8,10-11.9c-0.5-5.4-7.7-9.6-19.2-11.1C306.1,255.2,302.8,255,299.3,255z
										 M284.4,283.7L284.4,283.7c-3.4,0-6.6-0.2-9.7-0.6c-10.3-1.4-16.9-4.9-17.3-9.3c-0.3-3.2,2.8-6.7,8.7-9.8
										c6.3-3.3,15-5.6,24.5-6.6c2.9-0.3,5.9-0.4,8.7-0.4c3.4,0,6.6,0.2,9.7,0.6c10.3,1.4,16.9,4.9,17.3,9.3
										c0.3,3.2-2.9,6.8-8.8,9.8c-6.3,3.2-15,5.5-24.3,6.5C290.2,283.6,287.3,283.7,284.4,283.7z M299.3,257.4
										c-2.9,0-5.8,0.1-8.7,0.4c-9.5,0.9-18.2,3.3-24.4,6.5c-5.7,3-8.8,6.5-8.5,9.5c0.4,4.2,7,7.6,17.1,9c3,0.4,6.3,0.6,9.6,0.6
										c2.9,0,5.8-0.1,8.7-0.4c9.3-0.9,17.9-3.2,24.2-6.5c5.8-3,9-6.5,8.7-9.6c-0.4-4.2-7-7.6-17.1-9
										C305.9,257.6,302.7,257.4,299.3,257.4z"/>
								</g>
							</g>
						</g>
					</g>
				</g>
			</g>
		</g>
		<g class="st20">
			<g>
				<path class="st22" d="M331.1,267.2l-0.3-0.1c0.7-3.1-1.3-4.3-1.4-4.3l0.2-0.3C329.6,262.5,331.8,263.8,331.1,267.2L331.1,267.2z
					"/>
			</g>
			<g>
				<path class="st22" d="M332.4,269.2l-0.3-0.2c1.7-2.7,0.2-4.5,0.1-4.6l0.2-0.2C332.5,264.3,334.2,266.2,332.4,269.2L332.4,269.2z
					"/>
			</g>
		</g>
		<g class="st20">
			<g>
				<path class="st22" d="M252.9,277.7c-1.6-3-0.2-5.3-0.1-5.4l0.3,0.2c0,0-1.3,2.2,0.2,5.1L252.9,277.7L252.9,277.7z"/>
			</g>
			<g>
				<path class="st22" d="M252,279.1c-1.8-2.2-1.3-4.6-1.3-4.7l0.3,0.1c0,0-0.5,2.4,1.2,4.5L252,279.1L252,279.1z"/>
			</g>
		</g>
	</g>
	<g class="st19">
		<g class="st20">
			<g>
				<g>
					<path class="st51" d="M160.9,328.4c-3.6-0.2-12.1-0.1-11.8,3.1c0.2,3.2,4.3,3.8,9.2,1.7C164.1,330.6,161.7,328.5,160.9,328.4
						L160.9,328.4z"/>
				</g>
				<g>
					<path class="st22" d="M152.4,334.6L152.4,334.6c-2.2-0.2-3.5-1.3-3.7-3.2c0-0.6,0.2-1.1,0.6-1.5c2.2-2.2,10-1.9,11.6-1.8
						c0.5,0,1.3,0.6,1.4,1.4c0.2,0.9-0.4,2.3-3.9,3.9C156.2,334.3,154.1,334.8,152.4,334.6L152.4,334.6z M160.9,328.7
						c-3.3-0.2-9.4-0.1-11.1,1.7c-0.3,0.3-0.5,0.7-0.4,1.1c0.1,1.5,1.2,2.5,3.1,2.6c1.6,0.1,3.6-0.3,5.7-1.2
						c3.5-1.5,3.7-2.8,3.6-3.2C161.7,329,161.1,328.7,160.9,328.7L160.9,328.7z"/>
				</g>
			</g>
			<g>
				<g>
					<g>
						<path class="st52" d="M203.4,320.8c-2.8,3.5-7.1,9.2-6.3,10.9c2,0.4,4.5-1.8,7.2-5.2c2.6-3.3,3-6.2,1.7-7.4
							C205.4,319,204.6,319.4,203.4,320.8z"/>
					</g>
					<g>
						<path class="st22" d="M197.3,332L197.3,332c-0.1,0-0.2,0-0.3,0h-0.1l-0.1-0.1c-0.9-1.8,3-7.1,6.3-11.2c1.1-1.4,2.1-2,2.9-1.8
							l0.1,0.1c1.5,1.4,0.8,4.7-1.7,7.8C201.6,330.4,199.2,332.2,197.3,332L197.3,332z M197.3,331.5c1.7,0.2,4-1.5,6.7-5.1
							c2.5-3.2,2.8-5.9,1.8-7c-0.4,0-1.1,0.2-2.2,1.6C199.4,326.2,197,330.2,197.3,331.5L197.3,331.5z"/>
					</g>
				</g>
				<g>
					<g>
						<path class="st51" d="M195.6,325.4c-1.5,1.6-1.7,4.1,0.5,5.8c0.3,0.3,0.7,0.4,1.1,0.5c-0.8-1.7,3.5-7.4,6.3-10.9
							c1.1-1.4,2-1.8,2.6-1.7c-0.3-0.3-0.6-0.5-1.1-0.5C202.6,318.2,196.8,324.1,195.6,325.4z"/>
					</g>
					<g>
						<path class="st22" d="M197.6,332.1L197,332c-0.5-0.1-0.9-0.3-1.2-0.6c-1-0.8-1.6-1.8-1.7-3c-0.1-1.1,0.4-2.3,1.2-3.2
							c2.1-2.2,7.3-7.3,9.6-6.9c0.5,0.1,0.9,0.3,1.2,0.6l0.7,0.7l-1-0.2l0,0c-0.4,0-1.1,0.2-2.3,1.6c-4.4,5.4-6.8,9.5-6.3,10.6
							L197.6,332.1L197.6,332.1z M204.9,318.9c-1.9-0.2-5.9,3.4-9.1,6.7c-0.7,0.8-1.1,1.8-1.1,2.8c0.1,1,0.6,1.9,1.5,2.6
							c0.2,0.1,0.4,0.2,0.5,0.3c-0.1-2.1,3.4-6.9,6.5-10.7c0.7-0.9,1.4-1.4,2-1.7C205.1,318.9,205,318.9,204.9,318.9L204.9,318.9
							L204.9,318.9z"/>
					</g>
				</g>
			</g>
			<g>
				<g>
					<path class="st22" d="M160.4,328.7c-7.3-13.1-6.2-36.1-6.1-37.1l1.2,0.1c0,0.2-1.1,23.6,6,36.4L160.4,328.7L160.4,328.7z"/>
				</g>
				<g>
					<path class="st22" d="M194.8,326c-7.6-10.5-10-34.9-10.1-36l1.1-0.1c0,0.3,2.5,25.2,9.9,35.4L194.8,326L194.8,326z"/>
				</g>
			</g>
		</g>
		<g class="st20">
			<path class="st22" d="M208.3,247c-18-1.4-28.9-11.5-30.3-12.9l-3.7-0.3c-12.2,6.7-30.7,4.5-35.7,3c-5.4-1.6-14.3-1.9-14.4-1.9
				v-1.2c0.4,0,9.2,0.2,14.7,1.9c4.9,1.5,23,3.6,34.9-3l0.2-0.1l4.5,0.4l0.2,0.2c0.1,0.1,14.2,14.7,38.4,12.7l2.8-0.2l0.1,1.1
				l-2.8,0.2C214.1,247.2,211.1,247.2,208.3,247L208.3,247z"/>
		</g>
		<g class="st20">
			<g>
				<g>
					<path class="st53" d="M228.3,248.3c-1.4-0.2-5-0.9-5-0.9s2.3-0.5,4-1.1c1.8-0.6,2-1.8,0.7-1.9s-5.2,1-5.2,1l1.7-1.6
						c2.5-2.5,1.9-3.6,0.5-2.6c-1.3,1-3.9,2.7-3.9,2.7s2.4-3.4,1.7-4.5c-0.8-1.1-1.7,1.3-3,2.7c-0.5,0.5-1,0.8-1.5,1
						c-0.7,0.4-2.4,1.9-1.8,3.8c0.3,0.8,1.1,1,1.5,1.8c1.3,2.9,2.9,5.5,3.6,4.5c0.7-1-0.2-2.8,0.2-3.6s2.9,0.3,5.1,0.4
						C229.1,250.2,229.7,248.5,228.3,248.3z"/>
				</g>
				<g>
					<path class="st22" d="M221.3,253.7c-0.8-0.1-2-1.7-3.5-4.9c-0.2-0.3-0.4-0.5-0.7-0.8s-0.7-0.6-0.8-1c-0.7-2.1,1.2-3.8,1.9-4.2
						c0.5-0.2,1-0.5,1.4-0.9s0.8-1,1.1-1.5c0.6-0.9,1.1-1.6,1.7-1.5c0.2,0,0.4,0.2,0.6,0.4c0.6,0.8-0.2,2.5-0.9,3.6
						c0.9-0.6,2-1.3,2.7-1.9s1.4-0.6,1.6-0.1c0.2,0.6-0.4,1.7-1.7,3.1l-0.9,0.8c1.3-0.3,3.3-0.8,4.2-0.7l0,0c0.9,0.1,1,0.5,1.1,0.7
						c0.1,0.6-0.6,1.3-1.7,1.7c-0.9,0.3-1.9,0.6-2.7,0.8c1.2,0.2,2.8,0.5,3.7,0.7c0.8,0.1,1.1,0.6,1,1.1c-0.1,0.7-0.9,1.4-2.4,1.3
						l0,0c-0.8-0.1-1.7-0.3-2.4-0.4c-1.2-0.3-2.2-0.4-2.4-0.2c-0.1,0.3-0.1,0.8,0,1.3c0.1,0.8,0.2,1.6-0.2,2.3
						C221.7,253.7,221.5,253.7,221.3,253.7L221.3,253.7z M222.4,239.5c-0.2,0-0.8,0.7-1.2,1.3c-0.4,0.5-0.7,1.1-1.2,1.6
						s-1,0.8-1.6,1c-0.6,0.3-2.2,1.7-1.6,3.5c0.1,0.3,0.4,0.5,0.6,0.8c0.3,0.2,0.6,0.5,0.8,1c1.5,3.3,2.6,4.5,3,4.5
						c0,0,0.1,0,0.1-0.1c0.3-0.4,0.2-1.2,0.1-1.9c-0.1-0.6-0.2-1.2,0-1.7s0.8-0.5,1.3-0.4c0.5,0,1.1,0.2,1.7,0.3
						c0.7,0.2,1.6,0.4,2.3,0.4l0,0c1.1,0.1,1.7-0.4,1.8-0.8c0-0.2-0.2-0.4-0.5-0.4c-1.4-0.2-5-0.9-5-0.9v-0.6c0,0,2.3-0.5,4-1.1
						c1-0.4,1.4-0.9,1.4-1.1c0-0.1-0.2-0.2-0.5-0.2c-1.3-0.1-5.2,1-5.2,1l-0.3-0.5l1.7-1.6c1.6-1.6,1.6-2.4,1.6-2.5
						c-0.2,0-0.4,0.1-0.7,0.3c-1.3,1-3.9,2.7-3.9,2.7l-0.4-0.4C221.7,242.4,222.8,240.2,222.4,239.5
						C222.5,239.5,222.4,239.5,222.4,239.5L222.4,239.5z"/>
				</g>
			</g>
		</g>
		<g class="st20">
			<g>
				<g>
					<path class="st53" d="M127.4,233.2c-0.4-0.4-0.9-1-1.1-1.9c-0.5-1.8-0.2-4.4-1.4-3.7c-1.2,0.6-0.6,4.7-0.6,4.7
						s-1.5-2.7-2.2-4.2c-0.7-1.6-1.8-0.8-0.8,2.5l0.8,2.2c0,0-2.9-2.8-4.1-3.3c-1.2-0.6-1.5,0.6-0.2,2c1.2,1.4,3,2.9,3,2.9
						s-3.5-1.1-4.9-1.5c-1.4-0.5-1.7,1.3,0.3,2.2s4.7,1.1,4.7,2s-1.7,2.1-1.5,3.2c0.2,1.2,2.8-0.4,5.2-2.5c0.8-0.7,1.6-1.2,2.2-1.5
						c0-0.1,0.1-0.2,0.2-0.2C128.3,234.7,127.7,233.6,127.4,233.2z"/>
				</g>
				<g>
					<path class="st22" d="M119.8,240.9L119.8,240.9c-0.4,0-0.6-0.3-0.7-0.7c-0.1-0.8,0.4-1.5,0.9-2.1c0.3-0.4,0.6-0.9,0.6-1.2
						c0-0.4-1.2-0.7-2.2-1c-0.7-0.2-1.6-0.4-2.3-0.8c-1.3-0.6-1.7-1.5-1.6-2.1s0.7-0.8,1.4-0.6c0.8,0.3,2.4,0.8,3.6,1.1
						c-0.6-0.6-1.4-1.3-2-2c-0.7-0.8-1.1-1.7-0.8-2.2c0.2-0.4,0.7-0.5,1.3-0.2c0.8,0.4,2.4,1.7,3.3,2.6l-0.4-1.1
						c-0.5-1.7-0.6-3-0.2-3.5s1.1-0.2,1.5,0.7s1,2.1,1.5,3c-0.1-1.3,0-3.2,0.9-3.6c0.2-0.1,0.4-0.1,0.5-0.1c0.7,0.1,0.8,1,1,2.2
						c0.1,0.6,0.1,1.3,0.3,1.8c0.2,0.7,0.5,1.3,1.1,1.7c0.3,0.4,1.1,1.8-0.4,3.2l-0.1,0.1v0.1l-0.1,0.1c-0.7,0.4-1.5,0.9-2.2,1.5
						C123.1,239.4,120.9,240.9,119.8,240.9L119.8,240.9z M115.5,233c-0.2,0-0.4,0-0.4,0.3c-0.1,0.3,0.2,1,1.2,1.5
						c0.7,0.3,1.5,0.5,2.3,0.7c1.5,0.4,2.6,0.7,2.6,1.5c0,0.5-0.4,1-0.7,1.5c-0.4,0.6-0.8,1.2-0.8,1.7c0,0.1,0.1,0.1,0.2,0.2
						c0.7,0.1,2.6-1.1,4.6-2.8c0.7-0.6,1.5-1.1,2.2-1.5c0-0.1,0.1-0.2,0.2-0.2c1.1-1.1,0.7-2,0.4-2.4c-0.5-0.5-1-1.2-1.2-1.9
						c-0.2-0.6-0.3-1.3-0.3-1.9c-0.1-0.7-0.2-1.7-0.4-1.7c0,0-0.1,0-0.2,0.1c-0.7,0.4-0.7,2.8-0.5,4.4l-0.5,0.2c0,0-1.5-2.7-2.2-4.2
						c-0.2-0.5-0.4-0.6-0.5-0.6s-0.4,0.8,0.2,2.9l0.8,2.2l-0.5,0.3c0,0-2.9-2.8-4-3.3c-0.4-0.2-0.6-0.1-0.6,0
						c-0.1,0.2,0,0.8,0.7,1.6c1.2,1.4,3,2.8,3,2.8l-0.3,0.5c0,0-3.5-1.1-4.9-1.5C115.7,233,115.6,233,115.5,233L115.5,233z"/>
				</g>
			</g>
		</g>
		<g class="st20">
			<g>
				<path class="st54" d="M159.6,269.7c-1.5,0.3-9.4,0.5-9.9,4c-0.6,3.5-2.9,15.8-1.5,18.1c1.5,2.2,17.8,3.3,18.8,2.9
					s1.3-9.4,1.3-9.4s2,8.6,2.8,9.4c0.8,0.7,15.5,0.3,21.2-2.9c1.9-1.1-0.5-19.8-2.4-21.7C188.1,268.2,159.6,269.7,159.6,269.7z"/>
			</g>
			<g>
				<path class="st22" d="M160.7,294.8c-3.5-0.3-11.6-1.1-12.7-2.8c-1.2-1.8-0.1-9.1,1.2-16.8c0.1-0.6,0.2-1.1,0.3-1.5
					c0.5-3.2,6.3-3.8,9.1-4.1c0.5,0,0.8-0.1,1-0.1s19.2-1,27.1-0.4c2.7,0.2,3.3,0.6,3.6,0.8c1.6,1.7,3.7,15.6,3.1,20.4
					c-0.1,1-0.4,1.5-0.7,1.7c-4.9,2.8-16.4,3.5-20.2,3.2l0,0c-1-0.1-1.3-0.2-1.4-0.3c-0.6-0.6-1.8-4.8-2.4-7.5
					c-0.2,3.1-0.6,7.3-1.4,7.7C166.7,295.2,163.5,295,160.7,294.8L160.7,294.8z M186.6,269.6c-7.9-0.6-26.8,0.4-27,0.4
					s-0.6,0.1-1,0.1c-2.5,0.3-8.2,0.9-8.6,3.6c-0.1,0.4-0.2,0.9-0.3,1.5c-0.7,4.3-2.5,14.5-1.2,16.3c0.7,1,5.5,2,12.3,2.6
					c3.6,0.3,5.9,0.3,6.2,0.2c0.5-0.4,1-5,1.2-9.2l0.6-0.1c0.8,3.3,2.2,8.7,2.7,9.2l0,0c0,0,0.2,0.1,1,0.2c3.7,0.3,15-0.4,19.8-3.1
					c0.1,0,0.3-0.2,0.4-1.3c0.6-4.6-1.4-18.4-2.9-19.9C189.7,270.1,189.1,269.8,186.6,269.6L186.6,269.6z"/>
			</g>
		</g>
		<g class="st20">
			<g>
				<path class="st55" d="M171.9,232.4c0,0-5.1,3.9-10.1,10.9s-12.6,21.9-12.1,30.5c0,0,8,8,24.2,6s20.4-9.5,20.4-11.4
					s-7.3-18.1-9.7-24.7C180,230.9,178.7,230.2,171.9,232.4z"/>
			</g>
			<g>
				<path class="st22" d="M165.8,280.2L165.8,280.2c-10.7-0.9-16.2-6.2-16.3-6.3l-0.1-0.1v-0.1c-0.5-8.4,6.8-23.2,12.2-30.7
					c5-6.9,10.1-10.9,10.2-10.9c2.2-0.7,3.7-1.1,5-1c3.2,0.3,4.8,3.3,8.1,12.4c1,2.8,2.9,7.3,4.7,11.6c3.1,7.5,5.1,12.2,5,13.3
					c0,2.4-4.9,9.7-20.7,11.6C171.1,280.4,168.4,280.4,165.8,280.2L165.8,280.2z M150,273.6c0.7,0.6,6,5.3,15.8,6l0,0
					c2.6,0.2,5.3,0.1,8-0.2c16.6-2.1,20.1-9.7,20.2-11.1c0-1-2.5-7.1-5-13c-1.8-4.3-3.7-8.8-4.7-11.6c-4.5-12.6-5.6-13.3-12.3-11.1
					l0,0c0,0-5,3.9-10,10.8C156.7,250.8,149.6,265.3,150,273.6L150,273.6z"/>
			</g>
		</g>
		<g class="st20">
			<g>
				<path class="st56" d="M187.8,252.5c-0.4-1-0.8-1.9-1.2-2.8c-12.2,5.2-22,3.8-28.9,0.6c-0.5,0.9-1,1.8-1.4,2.7
					C163.6,256.6,174.2,258.7,187.8,252.5z"/>
			</g>
			<g>
				<path class="st56" d="M185.6,247c-0.3-0.8-0.6-1.6-0.9-2.3c-9.6,3.2-17.5,2.3-23.6,0c-0.6,0.9-1.2,1.8-1.8,2.9
					C165.9,250.3,174.7,251.3,185.6,247z"/>
			</g>
			<g>
				<path class="st56" d="M183.6,241.8c-0.4-1-0.7-2-1.1-2.8c-6.7,1.8-12.4,1.6-17.3,0.5c-0.7,0.8-1.4,1.7-2.2,2.7
					C168.6,243.8,175.5,244.3,183.6,241.8z"/>
			</g>
			<g>
				<path class="st56" d="M189.9,257.5c-0.3-0.8-0.7-1.7-1.1-2.5c-15,7.7-26.5,5.4-34.2,1.3c-0.4,0.9-0.8,1.8-1.2,2.7
					C161.4,263.5,173.7,266.3,189.9,257.5z"/>
			</g>
			<g>
				<path class="st56" d="M194,268.4c0-0.3-0.2-1.2-0.7-2.3c-19.7,11.4-34.3,6.9-42.7,1.6c-0.2,1.1-0.4,2.1-0.5,3
					c8.5,5.5,23.5,10.2,43.9-2C194,268.6,194,268.5,194,268.4z"/>
			</g>
			<g>
				<path class="st56" d="M192,262.6c-0.3-0.8-0.7-1.6-1-2.5c-17.5,10-30.6,6.4-38.6,1.6c-0.3,0.9-0.7,1.9-1,2.8
					C159.5,269.7,173.3,273.9,192,262.6z"/>
			</g>
		</g>
		<g class="st20">
			<g>
				<path class="st53" d="M171,231.6c0,0,1.7-0.1-0.4,1.9c-2.1,2-1.3,6.8,2.7,7.2s9.5-6.4,4.3-9.1
					C172.4,228.7,170.3,230.4,171,231.6z"/>
			</g>
			<g>
				<path class="st22" d="M173.3,240.9L173.3,240.9L173.3,240.9c-1.9-0.2-3.3-1.3-3.9-3c-0.6-1.7-0.2-3.6,1-4.7c1.1-1,1-1.3,1-1.3
					s-0.1,0-0.2-0.1c-0.1,0-0.1,0-0.1,0h-0.2l-0.1-0.1c-0.3-0.4-0.3-0.8,0-1.2c0.4-0.6,1.3-0.9,2.5-0.8c1.3,0.1,2.8,0.6,4.5,1.5
					c1.9,1,2.7,2.7,2.1,4.7C179,238.7,175.8,241.1,173.3,240.9L173.3,240.9z M171.2,231.3c0.5,0,0.7,0.3,0.7,0.4
					c0.2,0.4-0.2,1-1.1,1.9c-1,0.9-1.3,2.6-0.8,4.1s1.7,2.4,3.3,2.6v0.3v-0.3c2.2,0.2,5.2-2.1,5.9-4.6c0.3-1.2,0.3-2.9-1.8-4
					c-1.6-0.8-3.1-1.3-4.2-1.4c-1.2-0.1-1.8,0.2-2,0.6C171.1,231,171.2,231.2,171.2,231.3L171.2,231.3L171.2,231.3z"/>
			</g>
		</g>
		<g class="st20">
			<g>
				<path class="st53" d="M150.1,209.2c0,0-7.3-0.8-6.3,5c1,5.7,6.9,5.4,8.9,3C154.6,214.8,150.1,209.2,150.1,209.2z"/>
			</g>
			<g>
				<path class="st22" d="M148.4,219.1L148.4,219.1c-2.6-0.2-4.4-2-4.9-4.9c-0.3-1.5,0-2.8,0.9-3.7c1.7-1.8,5-1.7,5.7-1.6h0.1
					l0.1,0.1c0.2,0.2,4.6,5.8,2.5,8.3C151.9,218.6,150.1,219.3,148.4,219.1L148.4,219.1z M149.9,209.5c-0.7,0-3.7-0.1-5.2,1.4
					c-0.7,0.8-0.9,1.8-0.7,3.2c0.6,3.7,3.3,4.3,4.4,4.4c1.6,0.1,3.2-0.5,4-1.5C154,215,150.5,210.3,149.9,209.5L149.9,209.5z"/>
			</g>
		</g>
		<g class="st20">
			<g>
				<path class="st53" d="M205.6,211.1c0,0,7.3,0.4,5.4,5.9c-1.9,5.5-7.7,4.3-9.2,1.6C200.3,215.9,205.6,211.1,205.6,211.1z"/>
			</g>
			<g>
				<path class="st22" d="M205.7,221.2c-1.8-0.1-3.4-1.1-4.2-2.4c-1.6-2.9,3.6-7.6,3.8-7.8l0.1-0.1h0.1l0,0c0.8,0.1,4.1,0.4,5.4,2.5
					c0.7,1,0.8,2.3,0.2,3.8C210.3,219.9,208.2,221.4,205.7,221.2L205.7,221.2z M205.7,211.4c-0.7,0.6-4.9,4.7-3.6,7
					c0.6,1.1,2.1,2,3.7,2.1c1.1,0.1,3.8-0.1,5-3.6c0.4-1.3,0.4-2.4-0.2-3.3C209.3,211.8,206.2,211.5,205.7,211.4L205.7,211.4z"/>
			</g>
		</g>
		<g class="st20">
			<g>
				<path class="st53" d="M161.2,180.3c7.8-4.2,17.3-5.3,25.9-3c2.9,0.8,5.8,2,8.3,3.6c13.4,8.5,17.8,24.2,9,39.1
					c-8.9,14.8-36.6,22.9-53.2-0.7c-7.5-10.7-6.2-26,4.1-35C157.1,182.8,159.1,181.5,161.2,180.3z"/>
			</g>
			<g>
				<path class="st22" d="M175.3,234.5c-6.7-0.5-16.4-3.6-24.4-14.9c-7.8-11-5.9-26.6,4.2-35.4c1.8-1.6,3.8-3,6-4.1
					c7.8-4.2,17.6-5.3,26.1-3c3,0.8,6,2.1,8.4,3.7c13.9,8.8,17.7,25.1,9,39.5C199.1,229.6,187,235.5,175.3,234.5L175.3,234.5z
					 M180.7,176.5c-6.7-0.5-13.6,0.9-19.4,4c-2.1,1.1-4.1,2.5-5.9,4.1c-9.9,8.6-11.7,23.8-4.1,34.6c7.9,11.2,17.4,14.2,24,14.7
					c11.5,0.9,23.3-4.8,28.8-14c8.6-14.4,5-30-8.9-38.7c-2.4-1.5-5.3-2.8-8.3-3.6C185,177.1,182.8,176.7,180.7,176.5L180.7,176.5z"
					/>
			</g>
		</g>
		<g class="st20">
			<g>
				<path class="st57" d="M195.4,181c-2.5-1.6-5.5-2.8-8.3-3.6c-8.6-2.4-18.1-1.3-25.9,3c-2.1,1.1-4.1,2.5-5.9,4.1
					c-8,7-10.5,17.3-7.9,26.9c0.7-7.2,3.6-12.8,3.6-12.8c4.3-9.9,13.9-15.5,24.2-17.3c13.9-2.3,27.7,5.6,30.4,19.8
					c0.9,4.7,1.5,10.1,1.2,14.9C212.9,202.6,207.5,188.7,195.4,181z"/>
			</g>
			<g>
				<path class="st22" d="M147,211.4c-2.7-10.3,0.3-20.4,8-27.2c1.8-1.6,3.8-3,6-4.1c7.8-4.2,17.6-5.3,26.1-3c3,0.8,6,2.1,8.4,3.7
					c12.9,8.1,17.5,22.3,11.5,35.2l-0.5-0.1c0.4-5.1-0.4-10.9-1.2-14.8c-2.1-10.9-11.4-18.9-23.1-19.9c-2.3-0.2-4.7-0.1-7,0.3
					c-11.3,1.9-20.1,8.1-24,17.1c-0.5,1-3,6.2-3.6,12.7L147,211.4L147,211.4z M180.7,176.5c-6.7-0.5-13.6,0.9-19.4,4
					c-2.1,1.1-4.1,2.5-5.9,4.1c-7.2,6.3-10.2,15.5-8.2,25c0.8-5.9,3-10.4,3.5-11.3c4-9.2,12.9-15.5,24.4-17.4
					c2.4-0.4,4.8-0.5,7.1-0.3c12,1,21.5,9.1,23.6,20.3c0.7,3.6,1.4,8.6,1.3,13.3c4.9-12.3,0.3-25.4-11.9-33
					c-2.4-1.5-5.3-2.8-8.3-3.6C185,177.1,182.8,176.7,180.7,176.5L180.7,176.5z"/>
			</g>
		</g>
		<g class="st20">
			<g>
				<path class="st32" d="M162.1,218c0,0,12.1,7.2,25.9-2.8c0,0,1.7,15.3-10.2,16.7C166.1,233.3,162.1,218,162.1,218z"/>
			</g>
			<g>
				<path class="st22" d="M175.4,232.2c-10-0.8-13.5-14.1-13.5-14.2l-0.2-0.7l0.6,0.4c0,0,3.4,2,8.5,2.4c6,0.5,11.7-1.3,17.1-5.2
					l0.4-0.3l0.1,0.5c0,0.2,1.6,15.6-10.4,17C177,232.3,176.2,232.3,175.4,232.2L175.4,232.2z M162.6,218.6
					c0.8,2.6,4.5,12.4,12.8,13.1c0.8,0.1,1.6,0,2.4-0.1c10.2-1.2,10.1-13.3,9.9-15.9c-5.4,3.8-11.1,5.5-17.1,5
					C166.7,220.4,163.8,219.2,162.6,218.6L162.6,218.6z"/>
			</g>
		</g>
		<g class="st20">
			<path class="st31" d="M187,205.1c-0.1,1.5-1,2.7-1.9,2.7c-1-0.1-1.6-1.4-1.5-2.9s1-2.7,1.9-2.7
				C186.4,202.2,187.1,203.5,187,205.1z"/>
		</g>
		<g class="st20">
			<path class="st31" d="M164.8,205.9c0,1.5-0.7,2.8-1.7,2.8s-1.7-1.2-1.8-2.8c0-1.6,0.7-2.8,1.7-2.8
				C164,203.1,164.8,204.4,164.8,205.9z"/>
		</g>
		<g class="st20">
			<g>
				<path class="st22" d="M176.8,182.5c-1.5-0.1-2.3-1.1-2.3-1.2l0.5-0.3c0,0,0.7,1,2.1,1c1.3,0,3.5-0.8,6.5-4.6
					c1.7-2.2,2.6-5.4,2.6-6.3h0.6c-0.1,1.2-0.9,4.4-2.7,6.7c-2.6,3.3-4.9,4.9-7,4.9C177,182.5,176.9,182.5,176.8,182.5L176.8,182.5z
					"/>
			</g>
			<g>
				<path class="st22" d="M180.1,183.5c-2.2-0.2-3.7-1-3.7-1l0.3-0.5c0.2,0.1,5.9,3.3,10.9-2.1c2.4-2.6,3.1-3.9,3.8-5.6l0.5,0.2
					c-0.8,1.8-1.5,3.1-3.9,5.7C185.3,183.1,182.3,183.6,180.1,183.5L180.1,183.5z"/>
			</g>
			<g>
				<path class="st22" d="M185.9,185.1c-1.4-0.1-2.9-0.7-4.5-1.7l0.3-0.5c2.3,1.5,4.5,2,6.6,1.3c4.4-1.4,6.8-7.4,6.8-7.4l0.5,0.2
					c-0.1,0.3-2.5,6.3-7.2,7.8C187.7,185.1,186.8,185.2,185.9,185.1L185.9,185.1z"/>
			</g>
		</g>
		<g class="st36">
			<path class="st53" d="M163,185.5c0,0-15.9,16.1-7.7,32.5s25.6,16.5,35.9,13.5c0,0-15.1,6.6-28.8-1.4s-14.9-19.2-14.9-19.2
				S148.4,194.2,163,185.5z"/>
		</g>
		<g class="st58">
			<path class="st54" d="M152.9,276.4c0,0-4.7,15.6,9,18.2c0,0-13.3-0.5-13.9-3.5c-0.6-3,1.3-15.8,1.7-17.1
				C149.6,274.1,151.7,275.8,152.9,276.4z"/>
		</g>
	</g>
</g>
</svg>
