<?xml version="1.0" encoding="utf-8"?>
<!-- Generator: Adobe Illustrator 23.0.4, SVG Export Plug-In . SVG Version: 6.00 Build 0)  -->
<svg version="1.1" id="Capa_1" xmlns="http://www.w3.org/2000/svg" xmlns:xlink="http://www.w3.org/1999/xlink" x="0px" y="0px"
	 viewBox="0 0 694.7 403" style="enable-background:new 0 0 694.7 403;" xml:space="preserve">
<style type="text/css">
	.st0{display:none;}
	.st1{display:inline;fill:#88EEFF;}
	.st2{opacity:0.25;fill:#7D7E58;}
	.st3{fill:url(#SVGID_1_);}
	.st4{fill:#FDF7CD;}
	.st5{fill:#853652;}
	.st6{fill:#D7A498;}
	.st7{filter:url(#Adobe_OpacityMaskFilter);}
	.st8{filter:url(#Adobe_OpacityMaskFilter_1_);}
	.st9{mask:url(#SVGID_2_);fill:url(#SVGID_3_);}
	.st10{opacity:0.75;fill:url(#SVGID_4_);}
	.st11{opacity:0.3;fill:#A36054;}
	.st12{fill:url(#SVGID_5_);}
	.st13{filter:url(#Adobe_OpacityMaskFilter_2_);}
	.st14{filter:url(#Adobe_OpacityMaskFilter_3_);}
	.st15{mask:url(#SVGID_6_);fill:url(#SVGID_7_);}
	.st16{opacity:0.75;fill:url(#SVGID_8_);}
	.st17{opacity:0.6;fill:#A36054;}
	.st18{fill:url(#SVGID_9_);}
	.st19{filter:url(#Adobe_OpacityMaskFilter_4_);}
	.st20{filter:url(#Adobe_OpacityMaskFilter_5_);}
	.st21{mask:url(#SVGID_10_);fill:url(#SVGID_11_);}
	.st22{opacity:0.75;fill:url(#SVGID_12_);}
	.st23{fill:url(#SVGID_13_);}
	.st24{fill:#476B77;}
	.st25{filter:url(#Adobe_OpacityMaskFilter_6_);}
	.st26{filter:url(#Adobe_OpacityMaskFilter_7_);}
	.st27{mask:url(#SVGID_14_);fill:url(#SVGID_15_);}
	.st28{opacity:0.75;fill:url(#SVGID_16_);}
	.st29{opacity:0.3;fill:#3A577B;}
	.st30{fill:url(#SVGID_17_);}
	.st31{filter:url(#Adobe_OpacityMaskFilter_8_);}
	.st32{filter:url(#Adobe_OpacityMaskFilter_9_);}
	.st33{mask:url(#SVGID_18_);fill:url(#SVGID_19_);}
	.st34{opacity:0.75;fill:url(#SVGID_20_);}
	.st35{fill:url(#SVGID_21_);}
	.st36{fill:#6D1245;}
	.st37{filter:url(#Adobe_OpacityMaskFilter_10_);}
	.st38{filter:url(#Adobe_OpacityMaskFilter_11_);}
	.st39{mask:url(#SVGID_22_);fill:url(#SVGID_23_);}
	.st40{opacity:0.75;fill:url(#SVGID_24_);}
	.st41{opacity:0.3;fill:#803520;}
	.st42{fill:url(#SVGID_25_);}
	.st43{filter:url(#Adobe_OpacityMaskFilter_12_);}
	.st44{filter:url(#Adobe_OpacityMaskFilter_13_);}
	.st45{mask:url(#SVGID_26_);fill:url(#SVGID_27_);}
	.st46{opacity:0.75;fill:url(#SVGID_28_);}
	.st47{fill:url(#SVGID_29_);}
	.st48{filter:url(#Adobe_OpacityMaskFilter_14_);}
	.st49{filter:url(#Adobe_OpacityMaskFilter_15_);}
	.st50{mask:url(#SVGID_30_);fill:url(#SVGID_31_);}
	.st51{opacity:0.75;fill:url(#SVGID_32_);}
	.st52{fill:url(#SVGID_33_);}
	.st53{filter:url(#Adobe_OpacityMaskFilter_16_);}
	.st54{filter:url(#Adobe_OpacityMaskFilter_17_);}
	.st55{mask:url(#SVGID_34_);fill:url(#SVGID_35_);}
	.st56{opacity:0.75;fill:url(#SVGID_36_);}
	.st57{fill:url(#SVGID_37_);}
	.st58{filter:url(#Adobe_OpacityMaskFilter_18_);}
	.st59{filter:url(#Adobe_OpacityMaskFilter_19_);}
	.st60{mask:url(#SVGID_38_);fill:url(#SVGID_39_);}
	.st61{opacity:0.75;fill:url(#SVGID_40_);}
	.st62{fill:url(#SVGID_41_);}
	.st63{filter:url(#Adobe_OpacityMaskFilter_20_);}
	.st64{filter:url(#Adobe_OpacityMaskFilter_21_);}
	.st65{mask:url(#SVGID_42_);fill:url(#SVGID_43_);}
	.st66{opacity:0.75;fill:url(#SVGID_44_);}
	.st67{fill:url(#SVGID_45_);}
	.st68{filter:url(#Adobe_OpacityMaskFilter_22_);}
	.st69{filter:url(#Adobe_OpacityMaskFilter_23_);}
	.st70{mask:url(#SVGID_46_);fill:url(#SVGID_47_);}
	.st71{opacity:0.75;fill:url(#SVGID_48_);}
	.st72{fill:url(#SVGID_49_);}
	.st73{filter:url(#Adobe_OpacityMaskFilter_24_);}
	.st74{filter:url(#Adobe_OpacityMaskFilter_25_);}
	.st75{mask:url(#SVGID_50_);fill:url(#SVGID_51_);}
	.st76{opacity:0.75;fill:url(#SVGID_52_);}
	.st77{fill:url(#SVGID_53_);}
	.st78{fill:#3B5A65;}
	.st79{filter:url(#Adobe_OpacityMaskFilter_26_);}
	.st80{filter:url(#Adobe_OpacityMaskFilter_27_);}
	.st81{mask:url(#SVGID_54_);fill:url(#SVGID_55_);}
	.st82{opacity:0.75;fill:url(#SVGID_56_);}
	.st83{fill:url(#SVGID_57_);}
	.st84{filter:url(#Adobe_OpacityMaskFilter_28_);}
	.st85{filter:url(#Adobe_OpacityMaskFilter_29_);}
	.st86{mask:url(#SVGID_58_);fill:url(#SVGID_59_);}
	.st87{opacity:0.75;fill:url(#SVGID_60_);}
	.st88{fill:url(#SVGID_61_);}
	.st89{filter:url(#Adobe_OpacityMaskFilter_30_);}
	.st90{filter:url(#Adobe_OpacityMaskFilter_31_);}
	.st91{mask:url(#SVGID_62_);fill:url(#SVGID_63_);}
	.st92{opacity:0.75;fill:url(#SVGID_64_);}
</style>
<g id="BACKGROUND" class="st0">
	<path class="st1" d="M558.6-20.5h-727.9c-5.9,0-10.7,5.2-10.7,11.6V467c0,6.4,4.8,11.6,10.7,11.6h727.9c5.9,0,10.7-5.2,10.7-11.6
		V-9C569.3-15.3,564.5-20.5,558.6-20.5z"/>
</g>
<g id="DESIGNED_BY_FREEPIK">
</g>
<polygon class="st2" points="10.2,302.3 84.6,314.9 128.4,314.9 125.5,328.5 199.8,345.3 299.8,345.3 299.8,326.7 218.8,308.1 
	222.4,302.3 350,302.3 350,281.1 295,266.7 164.4,284 45.3,285.9 "/>
<g>
	
		<linearGradient id="SVGID_1_" gradientUnits="userSpaceOnUse" x1="-104.8455" y1="182.0948" x2="29.4179" y2="318.0522" gradientTransform="matrix(-1 0 0 1 222.0621 0)">
		<stop  offset="8.333330e-02" style="stop-color:#D7C54B"/>
		<stop  offset="0.5549" style="stop-color:#B7BC4B"/>
		<stop  offset="1" style="stop-color:#95B34B"/>
	</linearGradient>
	<polygon class="st3" points="229.6,287.7 317.9,287.7 322.9,189.3 224.5,189.3 	"/>
	<polygon class="st4" points="305,274.1 308.7,202.8 238.8,202.8 242.4,274.1 	"/>
	<polygon class="st5" points="224.5,189.3 182.3,189.3 194.7,287.7 229.6,287.7 	"/>
	<polygon class="st6" points="218.5,202.8 221,274.1 200.1,274.1 192.2,202.8 	"/>
	<defs>
		<filter id="Adobe_OpacityMaskFilter" filterUnits="userSpaceOnUse" x="230.8" y="192.4" width="89.4" height="90.1">
			<feFlood  style="flood-color:white;flood-opacity:1" result="back"/>
			<feBlend  in="SourceGraphic" in2="back" mode="normal"/>
		</filter>
	</defs>
	<mask maskUnits="userSpaceOnUse" x="230.8" y="192.4" width="89.4" height="90.1" id="SVGID_2_">
		<g class="st7">
			<defs>
				<filter id="Adobe_OpacityMaskFilter_1_" filterUnits="userSpaceOnUse" x="230.8" y="192.4" width="89.4" height="90.1">
					<feFlood  style="flood-color:white;flood-opacity:1" result="back"/>
					<feBlend  in="SourceGraphic" in2="back" mode="normal"/>
				</filter>
			</defs>
			<mask maskUnits="userSpaceOnUse" x="230.8" y="192.4" width="89.4" height="90.1" id="SVGID_2_">
				<g class="st8">
				</g>
			</mask>
			
				<linearGradient id="SVGID_3_" gradientUnits="userSpaceOnUse" x1="-108.2061" y1="173.2236" x2="-41.7101" y2="247.7669" gradientTransform="matrix(-1 0 0 1 222.0621 0)">
				<stop  offset="0" style="stop-color:#FFFFFF"/>
				<stop  offset="1" style="stop-color:#000000"/>
			</linearGradient>
			<polygon class="st9" points="320.2,192.4 315.2,282.5 312.9,199.2 230.8,192.4 			"/>
		</g>
	</mask>
	
		<linearGradient id="SVGID_4_" gradientUnits="userSpaceOnUse" x1="-108.2061" y1="173.2236" x2="-41.7101" y2="247.7669" gradientTransform="matrix(-1 0 0 1 222.0621 0)">
		<stop  offset="0" style="stop-color:#FDF7CD"/>
		<stop  offset="1" style="stop-color:#FDF7CD"/>
	</linearGradient>
	<polygon class="st10" points="320.2,192.4 315.2,282.5 312.9,199.2 230.8,192.4 	"/>
	<polygon class="st11" points="229.6,196.6 233.4,284.4 311.9,285.9 238.8,280.2 	"/>
	<path class="st5" d="M287.3,236c-0.1-5.2-0.8-10.4-1.9-15.3c-1-4.3-2.6-8.9-6.8-11c-4.1-2.1-9.1-0.8-12,2.6
		c-2.4,2.9-3.5,6.7-4.1,10.4c-1.2,7.5-0.8,15.2,0.2,22.7c0.6,4.8,1.5,9.5,3.4,13.9c0.9,2.1,2.1,4.2,3.9,5.5
		c4.9,3.6,10.2-0.4,12.5-4.8C286.4,252.8,287.4,244.1,287.3,236z M280.4,247.2c-0.4,3.1-1.1,6.1-2.2,9c-1.1,2.8-4,6.5-5.9,2
		c-1.3-3-1.8-6.3-2.1-9.6c-0.6-6.8-0.3-13.7,0.8-20.4c0.2-1.4,2.1-10.4,4-9.6c0.5,0.2,0.7,0.7,0.9,1.1
		C279.5,228,281.5,237.9,280.4,247.2z"/>
</g>
<g>
	
		<linearGradient id="SVGID_5_" gradientUnits="userSpaceOnUse" x1="-1128.6501" y1="196.7177" x2="-994.3866" y2="332.6754" gradientTransform="matrix(1 0 0 1 1129.8479 0)">
		<stop  offset="0" style="stop-color:#D46024"/>
		<stop  offset="0.6753" style="stop-color:#AE1B1D"/>
		<stop  offset="0.896" style="stop-color:#68153B"/>
	</linearGradient>
	<polygon class="st12" points="98.5,302.3 10.2,302.3 5.2,203.9 103.6,203.9 	"/>
	<polygon class="st4" points="23.1,288.7 19.4,217.5 89.3,217.5 85.7,288.7 	"/>
	<polygon class="st5" points="103.6,203.9 145.8,203.9 133.4,302.3 98.5,302.3 	"/>
	<polygon class="st6" points="109.7,217.5 107.1,288.7 128,288.7 135.9,217.5 	"/>
	<defs>
		<filter id="Adobe_OpacityMaskFilter_2_" filterUnits="userSpaceOnUse" x="7.9" y="207" width="89.4" height="90.1">
			<feFlood  style="flood-color:white;flood-opacity:1" result="back"/>
			<feBlend  in="SourceGraphic" in2="back" mode="normal"/>
		</filter>
	</defs>
	<mask maskUnits="userSpaceOnUse" x="7.9" y="207" width="89.4" height="90.1" id="SVGID_6_">
		<g class="st13">
			<defs>
				<filter id="Adobe_OpacityMaskFilter_3_" filterUnits="userSpaceOnUse" x="7.9" y="207" width="89.4" height="90.1">
					<feFlood  style="flood-color:white;flood-opacity:1" result="back"/>
					<feBlend  in="SourceGraphic" in2="back" mode="normal"/>
				</filter>
			</defs>
			<mask maskUnits="userSpaceOnUse" x="7.9" y="207" width="89.4" height="90.1" id="SVGID_6_">
				<g class="st14">
				</g>
			</mask>
			
				<linearGradient id="SVGID_7_" gradientUnits="userSpaceOnUse" x1="-1132.0109" y1="187.8467" x2="-1065.5146" y2="262.3901" gradientTransform="matrix(1 0 0 1 1129.8479 0)">
				<stop  offset="0" style="stop-color:#FFFFFF"/>
				<stop  offset="1" style="stop-color:#000000"/>
			</linearGradient>
			<polygon class="st15" points="7.9,207 12.9,297.1 15.2,213.8 97.3,207 			"/>
		</g>
	</mask>
	
		<linearGradient id="SVGID_8_" gradientUnits="userSpaceOnUse" x1="-1132.0109" y1="187.8467" x2="-1065.5146" y2="262.3901" gradientTransform="matrix(1 0 0 1 1129.8479 0)">
		<stop  offset="0" style="stop-color:#FDF7CD"/>
		<stop  offset="1" style="stop-color:#FDF7CD"/>
	</linearGradient>
	<polygon class="st16" points="7.9,207 12.9,297.1 15.2,213.8 97.3,207 	"/>
	<polygon class="st17" points="98.5,211.3 94.7,299.1 16.2,300.5 89.3,294.8 	"/>
	<path class="st5" d="M65.2,260.6l-4.1,0.2c0-2.2-0.1-4.5-0.1-6.7l0-2.5l-0.1-5.5l0-7c0-4.1,0.1-8.1,0.2-12.2c0.1-0.5,0.1-1,0.2-1.6
		l-0.1,0c0-0.1,0-0.1,0-0.2h-7.2c0,0.3,0,0.6,0,0.8c-0.1,0.4-0.1,0.8-0.3,1.3c-0.2,0.8-0.4,1.5-0.7,2.3c-0.6,1.6-1.2,3.2-1.9,4.8
		c-1.4,3.2-3,6.5-4.7,9.7c-1.3,2.5-2.6,5-3.9,7.5l-1.3,2.5c-0.8,1.5-1.6,3.1-2.4,4.6c-0.8,1.7-1.7,3.3-2.4,5.2l0,0l3.4,4.2l13.9,0.6
		c-0.2,4.1-0.5,8.3-1,12.4h9.8c-0.5-4-0.8-8-1-12.1l3.8,0.2V260.6z M53.9,261.1l-8.7,0.4c0-0.1,0.1-0.2,0.1-0.3
		c0.8-1.6,1.6-3.2,2.5-4.8c0.4-0.8,0.8-1.6,1.2-2.3l1.3-2.5c0.9-1.6,1.7-3.3,2.5-4.9c0.4-0.8,0.8-1.6,1.2-2.4l0,1.8l-0.1,5.5l0,2.5
		C54,256.4,54,258.8,53.9,261.1z"/>
</g>
<g>
	
		<linearGradient id="SVGID_9_" gradientUnits="userSpaceOnUse" x1="-1013.3673" y1="222.9133" x2="-879.1041" y2="358.8706" gradientTransform="matrix(1 0 0 1 1129.8479 0)">
		<stop  offset="8.333330e-02" style="stop-color:#E7AD47"/>
		<stop  offset="0.3709" style="stop-color:#E39938"/>
		<stop  offset="0.7457" style="stop-color:#DE8529"/>
		<stop  offset="1" style="stop-color:#DC7E24"/>
	</linearGradient>
	<polygon class="st18" points="213.8,328.5 125.5,328.5 120.5,230.1 218.8,230.1 	"/>
	<polygon class="st4" points="138.4,314.9 134.7,243.7 204.6,243.7 201,314.9 	"/>
	<polygon class="st5" points="218.8,230.1 261.1,230.1 248.7,328.5 213.8,328.5 	"/>
	<polygon class="st6" points="224.9,243.7 222.4,314.9 243.3,314.9 251.2,243.7 	"/>
	<defs>
		<filter id="Adobe_OpacityMaskFilter_4_" filterUnits="userSpaceOnUse" x="123.1" y="233.2" width="89.4" height="90.1">
			<feFlood  style="flood-color:white;flood-opacity:1" result="back"/>
			<feBlend  in="SourceGraphic" in2="back" mode="normal"/>
		</filter>
	</defs>
	<mask maskUnits="userSpaceOnUse" x="123.1" y="233.2" width="89.4" height="90.1" id="SVGID_10_">
		<g class="st19">
			<defs>
				<filter id="Adobe_OpacityMaskFilter_5_" filterUnits="userSpaceOnUse" x="123.1" y="233.2" width="89.4" height="90.1">
					<feFlood  style="flood-color:white;flood-opacity:1" result="back"/>
					<feBlend  in="SourceGraphic" in2="back" mode="normal"/>
				</filter>
			</defs>
			<mask maskUnits="userSpaceOnUse" x="123.1" y="233.2" width="89.4" height="90.1" id="SVGID_10_">
				<g class="st20">
				</g>
			</mask>
			
				<linearGradient id="SVGID_11_" gradientUnits="userSpaceOnUse" x1="-1016.728" y1="214.0422" x2="-950.2319" y2="288.5857" gradientTransform="matrix(1 0 0 1 1129.8479 0)">
				<stop  offset="0" style="stop-color:#FFFFFF"/>
				<stop  offset="1" style="stop-color:#000000"/>
			</linearGradient>
			<polygon class="st21" points="123.1,233.2 128.2,323.3 130.5,240 212.6,233.2 			"/>
		</g>
	</mask>
	
		<linearGradient id="SVGID_12_" gradientUnits="userSpaceOnUse" x1="-1016.728" y1="214.0422" x2="-950.2319" y2="288.5857" gradientTransform="matrix(1 0 0 1 1129.8479 0)">
		<stop  offset="0" style="stop-color:#FDF7CD"/>
		<stop  offset="1" style="stop-color:#FDF7CD"/>
	</linearGradient>
	<polygon class="st22" points="123.1,233.2 128.2,323.3 130.5,240 212.6,233.2 	"/>
	<polygon class="st11" points="213.8,237.4 210,325.3 131.5,326.7 204.6,321 	"/>
	<path class="st5" d="M171.1,287.3c1.4-2.1,2.8-4.3,4.2-6.5l1.6-2.6c1.8-3.1,3.4-6.4,4.4-10.1c0.5-1.8,0.8-3.8,0.7-5.9
		c0-1.1-0.2-2.2-0.5-3.3c-0.3-1.1-0.8-2.2-1.5-3.3c-0.7-1-1.6-2-2.7-2.8c-1.1-0.8-2.4-1.5-3.9-1.9c-1.5-0.4-3.1-0.5-4.6-0.3
		c-1.5,0.2-2.9,0.7-4.1,1.3c-1.2,0.6-2.3,1.4-3.3,2.3c-0.5,0.5-0.9,1-1.3,1.5c-0.4,0.5-0.7,1-0.9,1.6c-1.1,2.2-1.4,4.4-1.3,6.5
		c0.1,2.1,0.6,4.1,1.3,6c0.7,1.8,1.5,3.5,2.2,5l7.8-3c-0.8-1.5-1.5-3-2-4.4c-0.5-1.4-0.9-2.7-0.9-4c-0.1-1.3,0.1-2.4,0.6-3.4
		c0.1-0.2,0.2-0.5,0.4-0.7c0.1-0.2,0.3-0.4,0.4-0.5c0.3-0.3,0.7-0.6,1.2-0.9c0.4-0.2,0.9-0.4,1.3-0.4c0.4,0,0.7,0,1.1,0
		c0.3,0.1,0.7,0.3,1.1,0.5c0.4,0.3,0.7,0.6,1,1c0.6,0.8,0.9,1.9,1,3.1c0.1,1.3-0.1,2.7-0.5,4.1c-0.7,2.9-2,5.8-3.7,8.7
		c-0.5,1-1.1,1.9-1.7,2.9l-1.6,2.6c-0.7,1.1-1.4,2.2-2.1,3.3c-1.9,3-3.7,6.2-5.1,9.7c-1.4,3.5-2.2,7.3-2,11.2l0,0l0.1,3.1l3.6-0.1
		l17.8-0.4v-5.6l-14-0.3c0.3-1.9,0.8-3.8,1.6-5.7C167.6,293,169.3,290.1,171.1,287.3z"/>
</g>
<polygon class="st2" points="194.3,356.7 223.7,369.4 325.7,369.4 284.1,354.9 "/>
<polygon class="st2" points="534,378.3 563.4,391 665.3,391 623.8,376.5 "/>
<polygon class="st2" points="292.1,341 327.2,359 651.4,359 689,312.4 592.9,312.4 479.4,331 313.3,330.5 "/>
<g>
	<g>
		
			<linearGradient id="SVGID_13_" gradientUnits="userSpaceOnUse" x1="-1049.1838" y1="282.0191" x2="-1002.5524" y2="338.088" gradientTransform="matrix(1 0 0 1 1337.9375 0)">
			<stop  offset="8.333330e-02" style="stop-color:#D7C54B"/>
			<stop  offset="0.3247" style="stop-color:#C2BF4B"/>
			<stop  offset="0.7605" style="stop-color:#A1B64B"/>
			<stop  offset="1" style="stop-color:#95B34B"/>
		</linearGradient>
		<polygon class="st23" points="343.4,343.4 288.7,343.4 286.2,286.2 343.4,286.2 		"/>
		<polygon class="st24" points="343.4,286.2 357.8,286.2 355.8,343.4 343.4,343.4 		"/>
		<defs>
			<filter id="Adobe_OpacityMaskFilter_6_" filterUnits="userSpaceOnUse" x="289.5" y="289.7" width="50.7" height="51.3">
				<feFlood  style="flood-color:white;flood-opacity:1" result="back"/>
				<feBlend  in="SourceGraphic" in2="back" mode="normal"/>
			</filter>
		</defs>
		<mask maskUnits="userSpaceOnUse" x="289.5" y="289.7" width="50.7" height="51.3" id="SVGID_14_">
			<g class="st25">
				<defs>
					<filter id="Adobe_OpacityMaskFilter_7_" filterUnits="userSpaceOnUse" x="289.5" y="289.7" width="50.7" height="51.3">
						<feFlood  style="flood-color:white;flood-opacity:1" result="back"/>
						<feBlend  in="SourceGraphic" in2="back" mode="normal"/>
					</filter>
				</defs>
				<mask maskUnits="userSpaceOnUse" x="289.5" y="289.7" width="50.7" height="51.3" id="SVGID_14_">
					<g class="st26">
					</g>
				</mask>
				
					<linearGradient id="SVGID_15_" gradientUnits="userSpaceOnUse" x1="-1066.8108" y1="264.8626" x2="-1005.3988" y2="333.7689" gradientTransform="matrix(1 0 0 1 1337.9375 0)">
					<stop  offset="0.127" style="stop-color:#FFFFFF"/>
					<stop  offset="0.1764" style="stop-color:#ECECEC"/>
					<stop  offset="0.4448" style="stop-color:#888888"/>
					<stop  offset="0.6614" style="stop-color:#3F3F3F"/>
					<stop  offset="0.8155" style="stop-color:#111111"/>
					<stop  offset="0.8929" style="stop-color:#000000"/>
				</linearGradient>
				<polygon class="st27" points="292.1,341 289.5,289.7 340.2,289.7 297.1,296.5 				"/>
			</g>
		</mask>
		
			<linearGradient id="SVGID_16_" gradientUnits="userSpaceOnUse" x1="-1066.8108" y1="264.8626" x2="-1005.3988" y2="333.7689" gradientTransform="matrix(1 0 0 1 1337.9375 0)">
			<stop  offset="0.127" style="stop-color:#FDF7CD"/>
			<stop  offset="0.8929" style="stop-color:#FDF7CD"/>
		</linearGradient>
		<polygon class="st28" points="292.1,341 289.5,289.7 340.2,289.7 297.1,296.5 		"/>
		<polygon class="st29" points="340.2,289.7 340.2,341 292.1,341 334.2,337.4 		"/>
	</g>
	<g>
		
			<linearGradient id="SVGID_17_" gradientUnits="userSpaceOnUse" x1="-1019.2413" y1="224.84" x2="-955.3113" y2="301.7083" gradientTransform="matrix(1 0 0 1 1337.9375 0)">
			<stop  offset="0" style="stop-color:#6FB4D2"/>
			<stop  offset="0.2156" style="stop-color:#68A0C3"/>
			<stop  offset="0.6511" style="stop-color:#556F9E"/>
			<stop  offset="1" style="stop-color:#44437D"/>
		</linearGradient>
		<polygon class="st30" points="373.3,286.2 318.6,286.2 316.2,229 373.3,229 		"/>
		<polygon class="st24" points="373.3,229 387.8,229 385.8,286.2 373.3,286.2 		"/>
		<defs>
			<filter id="Adobe_OpacityMaskFilter_8_" filterUnits="userSpaceOnUse" x="319.4" y="232.5" width="50.7" height="51.3">
				<feFlood  style="flood-color:white;flood-opacity:1" result="back"/>
				<feBlend  in="SourceGraphic" in2="back" mode="normal"/>
			</filter>
		</defs>
		<mask maskUnits="userSpaceOnUse" x="319.4" y="232.5" width="50.7" height="51.3" id="SVGID_18_">
			<g class="st31">
				<defs>
					<filter id="Adobe_OpacityMaskFilter_9_" filterUnits="userSpaceOnUse" x="319.4" y="232.5" width="50.7" height="51.3">
						<feFlood  style="flood-color:white;flood-opacity:1" result="back"/>
						<feBlend  in="SourceGraphic" in2="back" mode="normal"/>
					</filter>
				</defs>
				<mask maskUnits="userSpaceOnUse" x="319.4" y="232.5" width="50.7" height="51.3" id="SVGID_18_">
					<g class="st32">
					</g>
				</mask>
				
					<linearGradient id="SVGID_19_" gradientUnits="userSpaceOnUse" x1="-1036.8683" y1="207.6838" x2="-975.4562" y2="276.5901" gradientTransform="matrix(1 0 0 1 1337.9375 0)">
					<stop  offset="0.127" style="stop-color:#FFFFFF"/>
					<stop  offset="0.1764" style="stop-color:#ECECEC"/>
					<stop  offset="0.4448" style="stop-color:#888888"/>
					<stop  offset="0.6614" style="stop-color:#3F3F3F"/>
					<stop  offset="0.8155" style="stop-color:#111111"/>
					<stop  offset="0.8929" style="stop-color:#000000"/>
				</linearGradient>
				<polygon class="st33" points="322,283.8 319.4,232.5 370.1,232.5 327,239.3 				"/>
			</g>
		</mask>
		
			<linearGradient id="SVGID_20_" gradientUnits="userSpaceOnUse" x1="-1036.8683" y1="207.6838" x2="-975.4562" y2="276.5901" gradientTransform="matrix(1 0 0 1 1337.9375 0)">
			<stop  offset="0.127" style="stop-color:#FDF7CD"/>
			<stop  offset="0.8929" style="stop-color:#FDF7CD"/>
		</linearGradient>
		<polygon class="st34" points="322,283.8 319.4,232.5 370.1,232.5 327,239.3 		"/>
		<polygon class="st29" points="370.1,232.5 370.1,283.8 322,283.8 364.2,280.2 		"/>
	</g>
	<g>
		
			<linearGradient id="SVGID_21_" gradientUnits="userSpaceOnUse" x1="-1001.3635" y1="281.8741" x2="-897.2755" y2="373.4716" gradientTransform="matrix(1 0 0 1 1337.9375 0)">
			<stop  offset="0" style="stop-color:#D46024"/>
			<stop  offset="0.5324" style="stop-color:#AE1B1D"/>
			<stop  offset="1" style="stop-color:#68153B"/>
		</linearGradient>
		<polygon class="st35" points="401.4,343.4 346.6,343.4 344.2,286.2 401.4,286.2 		"/>
		<polygon class="st36" points="401.4,286.2 415.8,286.2 413.8,343.4 401.4,343.4 		"/>
		<defs>
			<filter id="Adobe_OpacityMaskFilter_10_" filterUnits="userSpaceOnUse" x="347.5" y="289.7" width="50.7" height="51.3">
				<feFlood  style="flood-color:white;flood-opacity:1" result="back"/>
				<feBlend  in="SourceGraphic" in2="back" mode="normal"/>
			</filter>
		</defs>
		<mask maskUnits="userSpaceOnUse" x="347.5" y="289.7" width="50.7" height="51.3" id="SVGID_22_">
			<g class="st37">
				<defs>
					<filter id="Adobe_OpacityMaskFilter_11_" filterUnits="userSpaceOnUse" x="347.5" y="289.7" width="50.7" height="51.3">
						<feFlood  style="flood-color:white;flood-opacity:1" result="back"/>
						<feBlend  in="SourceGraphic" in2="back" mode="normal"/>
					</filter>
				</defs>
				<mask maskUnits="userSpaceOnUse" x="347.5" y="289.7" width="50.7" height="51.3" id="SVGID_22_">
					<g class="st38">
					</g>
				</mask>
				
					<linearGradient id="SVGID_23_" gradientUnits="userSpaceOnUse" x1="-1008.8339" y1="264.8625" x2="-947.4219" y2="333.7688" gradientTransform="matrix(1 0 0 1 1337.9375 0)">
					<stop  offset="0.127" style="stop-color:#FFFFFF"/>
					<stop  offset="0.1764" style="stop-color:#ECECEC"/>
					<stop  offset="0.4448" style="stop-color:#888888"/>
					<stop  offset="0.6614" style="stop-color:#3F3F3F"/>
					<stop  offset="0.8155" style="stop-color:#111111"/>
					<stop  offset="0.8929" style="stop-color:#000000"/>
				</linearGradient>
				<polygon class="st39" points="350.1,341 347.5,289.7 398.1,289.7 355.1,296.5 				"/>
			</g>
		</mask>
		
			<linearGradient id="SVGID_24_" gradientUnits="userSpaceOnUse" x1="-1008.8339" y1="264.8625" x2="-947.4219" y2="333.7688" gradientTransform="matrix(1 0 0 1 1337.9375 0)">
			<stop  offset="0.127" style="stop-color:#FDF7CD"/>
			<stop  offset="0.8929" style="stop-color:#FDF7CD"/>
		</linearGradient>
		<polygon class="st40" points="350.1,341 347.5,289.7 398.1,289.7 355.1,296.5 		"/>
		<polygon class="st41" points="398.1,289.7 398.1,341 350.1,341 392.2,337.4 		"/>
	</g>
	<g>
		
			<linearGradient id="SVGID_25_" gradientUnits="userSpaceOnUse" x1="-883.233" y1="282.019" x2="-836.6015" y2="338.0879" gradientTransform="matrix(1 0 0 1 1337.9375 0)">
			<stop  offset="8.333330e-02" style="stop-color:#D7C54B"/>
			<stop  offset="0.3247" style="stop-color:#C2BF4B"/>
			<stop  offset="0.7605" style="stop-color:#A1B64B"/>
			<stop  offset="1" style="stop-color:#95B34B"/>
		</linearGradient>
		<polygon class="st42" points="509.3,343.4 454.6,343.4 452.2,286.2 509.3,286.2 		"/>
		<polygon class="st24" points="509.3,286.2 523.8,286.2 521.8,343.4 509.3,343.4 		"/>
		<defs>
			<filter id="Adobe_OpacityMaskFilter_12_" filterUnits="userSpaceOnUse" x="455.4" y="289.7" width="50.7" height="51.3">
				<feFlood  style="flood-color:white;flood-opacity:1" result="back"/>
				<feBlend  in="SourceGraphic" in2="back" mode="normal"/>
			</filter>
		</defs>
		<mask maskUnits="userSpaceOnUse" x="455.4" y="289.7" width="50.7" height="51.3" id="SVGID_26_">
			<g class="st43">
				<defs>
					<filter id="Adobe_OpacityMaskFilter_13_" filterUnits="userSpaceOnUse" x="455.4" y="289.7" width="50.7" height="51.3">
						<feFlood  style="flood-color:white;flood-opacity:1" result="back"/>
						<feBlend  in="SourceGraphic" in2="back" mode="normal"/>
					</filter>
				</defs>
				<mask maskUnits="userSpaceOnUse" x="455.4" y="289.7" width="50.7" height="51.3" id="SVGID_26_">
					<g class="st44">
					</g>
				</mask>
				
					<linearGradient id="SVGID_27_" gradientUnits="userSpaceOnUse" x1="-900.86" y1="264.8626" x2="-839.448" y2="333.7689" gradientTransform="matrix(1 0 0 1 1337.9375 0)">
					<stop  offset="0.127" style="stop-color:#FFFFFF"/>
					<stop  offset="0.1764" style="stop-color:#ECECEC"/>
					<stop  offset="0.4448" style="stop-color:#888888"/>
					<stop  offset="0.6614" style="stop-color:#3F3F3F"/>
					<stop  offset="0.8155" style="stop-color:#111111"/>
					<stop  offset="0.8929" style="stop-color:#000000"/>
				</linearGradient>
				<polygon class="st45" points="458,341 455.4,289.7 506.1,289.7 463,296.5 				"/>
			</g>
		</mask>
		
			<linearGradient id="SVGID_28_" gradientUnits="userSpaceOnUse" x1="-900.86" y1="264.8626" x2="-839.448" y2="333.7689" gradientTransform="matrix(1 0 0 1 1337.9375 0)">
			<stop  offset="0.127" style="stop-color:#FDF7CD"/>
			<stop  offset="0.8929" style="stop-color:#FDF7CD"/>
		</linearGradient>
		<polygon class="st46" points="458,341 455.4,289.7 506.1,289.7 463,296.5 		"/>
		<polygon class="st29" points="506.1,289.7 506.1,341 458,341 500.2,337.4 		"/>
	</g>
	<g>
		
			<linearGradient id="SVGID_29_" gradientUnits="userSpaceOnUse" x1="-884.5861" y1="167.531" x2="-837.9547" y2="223.5997" gradientTransform="matrix(1 0 0 1 1337.9375 0)">
			<stop  offset="8.333330e-02" style="stop-color:#D7C54B"/>
			<stop  offset="0.3247" style="stop-color:#C2BF4B"/>
			<stop  offset="0.7605" style="stop-color:#A1B64B"/>
			<stop  offset="1" style="stop-color:#95B34B"/>
		</linearGradient>
		<polygon class="st47" points="508,228.9 453.3,228.9 450.8,171.7 508,171.7 		"/>
		<polygon class="st24" points="508,171.7 522.4,171.7 520.4,228.9 508,228.9 		"/>
		<defs>
			<filter id="Adobe_OpacityMaskFilter_14_" filterUnits="userSpaceOnUse" x="454.1" y="175.2" width="50.7" height="51.3">
				<feFlood  style="flood-color:white;flood-opacity:1" result="back"/>
				<feBlend  in="SourceGraphic" in2="back" mode="normal"/>
			</filter>
		</defs>
		<mask maskUnits="userSpaceOnUse" x="454.1" y="175.2" width="50.7" height="51.3" id="SVGID_30_">
			<g class="st48">
				<defs>
					<filter id="Adobe_OpacityMaskFilter_15_" filterUnits="userSpaceOnUse" x="454.1" y="175.2" width="50.7" height="51.3">
						<feFlood  style="flood-color:white;flood-opacity:1" result="back"/>
						<feBlend  in="SourceGraphic" in2="back" mode="normal"/>
					</filter>
				</defs>
				<mask maskUnits="userSpaceOnUse" x="454.1" y="175.2" width="50.7" height="51.3" id="SVGID_30_">
					<g class="st49">
					</g>
				</mask>
				
					<linearGradient id="SVGID_31_" gradientUnits="userSpaceOnUse" x1="-902.2131" y1="150.3746" x2="-840.801" y2="219.2808" gradientTransform="matrix(1 0 0 1 1337.9375 0)">
					<stop  offset="0.127" style="stop-color:#FFFFFF"/>
					<stop  offset="0.1764" style="stop-color:#ECECEC"/>
					<stop  offset="0.4448" style="stop-color:#888888"/>
					<stop  offset="0.6614" style="stop-color:#3F3F3F"/>
					<stop  offset="0.8155" style="stop-color:#111111"/>
					<stop  offset="0.8929" style="stop-color:#000000"/>
				</linearGradient>
				<polygon class="st50" points="456.7,226.5 454.1,175.2 504.8,175.2 461.7,182 				"/>
			</g>
		</mask>
		
			<linearGradient id="SVGID_32_" gradientUnits="userSpaceOnUse" x1="-902.2131" y1="150.3746" x2="-840.801" y2="219.2808" gradientTransform="matrix(1 0 0 1 1337.9375 0)">
			<stop  offset="0.127" style="stop-color:#FDF7CD"/>
			<stop  offset="0.8929" style="stop-color:#FDF7CD"/>
		</linearGradient>
		<polygon class="st51" points="456.7,226.5 454.1,175.2 504.8,175.2 461.7,182 		"/>
		<polygon class="st29" points="504.8,175.2 504.8,226.5 456.7,226.5 498.8,222.9 		"/>
	</g>
	<g>
		
			<linearGradient id="SVGID_33_" gradientUnits="userSpaceOnUse" x1="-962.9344" y1="257.6344" x2="-862.1775" y2="257.6344" gradientTransform="matrix(1 0 0 1 1337.9375 0)">
			<stop  offset="8.333330e-02" style="stop-color:#E7AD47"/>
			<stop  offset="0.3709" style="stop-color:#E39938"/>
			<stop  offset="0.7457" style="stop-color:#DE8529"/>
			<stop  offset="1" style="stop-color:#DC7E24"/>
		</linearGradient>
		<path class="st52" d="M475.8,286.2h-24.1c4.4-45.7-56.3-46.2-50.2,0H375V229h100.8V286.2z"/>
		<path class="st24" d="M415.8,286.2h-14.4c-3.6-27.1,15.8-38.1,31.6-33.4C422.1,256.2,413.3,267.2,415.8,286.2z M475.8,229v57.2
			h14.4V229H475.8z"/>
		<defs>
			<filter id="Adobe_OpacityMaskFilter_16_" filterUnits="userSpaceOnUse" x="377.3" y="231.5" width="94.3" height="51.9">
				<feFlood  style="flood-color:white;flood-opacity:1" result="back"/>
				<feBlend  in="SourceGraphic" in2="back" mode="normal"/>
			</filter>
		</defs>
		<mask maskUnits="userSpaceOnUse" x="377.3" y="231.5" width="94.3" height="51.9" id="SVGID_34_">
			<g class="st53">
				<defs>
					<filter id="Adobe_OpacityMaskFilter_17_" filterUnits="userSpaceOnUse" x="377.3" y="231.5" width="94.3" height="51.9">
						<feFlood  style="flood-color:white;flood-opacity:1" result="back"/>
						<feBlend  in="SourceGraphic" in2="back" mode="normal"/>
					</filter>
				</defs>
				<mask maskUnits="userSpaceOnUse" x="377.3" y="231.5" width="94.3" height="51.9" id="SVGID_34_">
					<g class="st54">
					</g>
				</mask>
				
					<linearGradient id="SVGID_35_" gradientUnits="userSpaceOnUse" x1="-996.6207" y1="211.8402" x2="-854.3144" y2="290.678" gradientTransform="matrix(1 0 0 1 1337.9375 0)">
					<stop  offset="0.127" style="stop-color:#FFFFFF"/>
					<stop  offset="0.1764" style="stop-color:#ECECEC"/>
					<stop  offset="0.4448" style="stop-color:#888888"/>
					<stop  offset="0.6614" style="stop-color:#3F3F3F"/>
					<stop  offset="0.8155" style="stop-color:#111111"/>
					<stop  offset="0.8929" style="stop-color:#000000"/>
				</linearGradient>
				<polygon class="st55" points="378.3,283.5 377.3,231.5 471.6,232.9 471.6,247.4 468,239.4 386.9,237.8 385.1,283.5 				"/>
			</g>
		</mask>
		
			<linearGradient id="SVGID_36_" gradientUnits="userSpaceOnUse" x1="-996.6207" y1="211.8402" x2="-854.3144" y2="290.678" gradientTransform="matrix(1 0 0 1 1337.9375 0)">
			<stop  offset="0.127" style="stop-color:#FDF7CD"/>
			<stop  offset="0.8929" style="stop-color:#FDF7CD"/>
		</linearGradient>
		<polygon class="st56" points="378.3,283.5 377.3,231.5 471.6,232.9 471.6,247.4 468,239.4 386.9,237.8 385.1,283.5 		"/>
		<polygon class="st41" points="471.6,249.8 473.4,283.5 457,283.5 467.2,281.6 		"/>
		<polygon class="st41" points="399.5,270.2 398.6,283.5 386.3,283.5 394.2,281.2 		"/>
	</g>
	<g>
		
			<linearGradient id="SVGID_37_" gradientUnits="userSpaceOnUse" x1="-962.9344" y1="143.6273" x2="-862.1775" y2="143.6273" gradientTransform="matrix(1 0 0 1 1337.9375 0)">
			<stop  offset="8.333330e-02" style="stop-color:#E7AD47"/>
			<stop  offset="0.3709" style="stop-color:#E39938"/>
			<stop  offset="0.7457" style="stop-color:#DE8529"/>
			<stop  offset="1" style="stop-color:#DC7E24"/>
		</linearGradient>
		<path class="st57" d="M475.8,172.2h-24.1c4.4-45.7-56.3-46.2-50.2,0H375V115h100.8V172.2z"/>
		<path class="st24" d="M415.8,172.2h-14.4c-3.6-27.1,15.8-38.1,31.6-33.4C422.1,142.2,413.3,153.2,415.8,172.2z M475.8,115v57.2
			h14.4V115H475.8z"/>
		<defs>
			<filter id="Adobe_OpacityMaskFilter_18_" filterUnits="userSpaceOnUse" x="377.3" y="117.5" width="94.3" height="51.9">
				<feFlood  style="flood-color:white;flood-opacity:1" result="back"/>
				<feBlend  in="SourceGraphic" in2="back" mode="normal"/>
			</filter>
		</defs>
		<mask maskUnits="userSpaceOnUse" x="377.3" y="117.5" width="94.3" height="51.9" id="SVGID_38_">
			<g class="st58">
				<defs>
					<filter id="Adobe_OpacityMaskFilter_19_" filterUnits="userSpaceOnUse" x="377.3" y="117.5" width="94.3" height="51.9">
						<feFlood  style="flood-color:white;flood-opacity:1" result="back"/>
						<feBlend  in="SourceGraphic" in2="back" mode="normal"/>
					</filter>
				</defs>
				<mask maskUnits="userSpaceOnUse" x="377.3" y="117.5" width="94.3" height="51.9" id="SVGID_38_">
					<g class="st59">
					</g>
				</mask>
				
					<linearGradient id="SVGID_39_" gradientUnits="userSpaceOnUse" x1="-996.6207" y1="97.8333" x2="-854.3146" y2="176.671" gradientTransform="matrix(1 0 0 1 1337.9375 0)">
					<stop  offset="0.127" style="stop-color:#FFFFFF"/>
					<stop  offset="0.1764" style="stop-color:#ECECEC"/>
					<stop  offset="0.4448" style="stop-color:#888888"/>
					<stop  offset="0.6614" style="stop-color:#3F3F3F"/>
					<stop  offset="0.8155" style="stop-color:#111111"/>
					<stop  offset="0.8929" style="stop-color:#000000"/>
				</linearGradient>
				<polygon class="st60" points="378.3,169.5 377.3,117.5 471.6,118.9 471.6,133.4 468,125.4 386.9,123.8 385.1,169.5 				"/>
			</g>
		</mask>
		
			<linearGradient id="SVGID_40_" gradientUnits="userSpaceOnUse" x1="-996.6207" y1="97.8333" x2="-854.3146" y2="176.671" gradientTransform="matrix(1 0 0 1 1337.9375 0)">
			<stop  offset="0.127" style="stop-color:#FDF7CD"/>
			<stop  offset="0.8929" style="stop-color:#FDF7CD"/>
		</linearGradient>
		<polygon class="st61" points="378.3,169.5 377.3,117.5 471.6,118.9 471.6,133.4 468,125.4 386.9,123.8 385.1,169.5 		"/>
		<polygon class="st41" points="471.6,135.8 473.4,169.5 457,169.5 467.2,167.6 		"/>
		<polygon class="st41" points="399.5,156.1 398.6,169.5 386.3,169.5 394.2,167.2 		"/>
	</g>
	<g>
		
			<linearGradient id="SVGID_41_" gradientUnits="userSpaceOnUse" x1="-868.9636" y1="224.5648" x2="-764.8753" y2="316.1625" gradientTransform="matrix(1 0 0 1 1337.9375 0)">
			<stop  offset="0" style="stop-color:#D46024"/>
			<stop  offset="0.5324" style="stop-color:#AE1B1D"/>
			<stop  offset="1" style="stop-color:#68153B"/>
		</linearGradient>
		<polygon class="st62" points="533.8,286.1 479,286.1 476.6,228.9 533.8,228.9 		"/>
		<polygon class="st36" points="533.8,228.9 548.2,228.9 546.2,286.1 533.8,286.1 		"/>
		<defs>
			<filter id="Adobe_OpacityMaskFilter_20_" filterUnits="userSpaceOnUse" x="479.9" y="232.4" width="50.7" height="51.3">
				<feFlood  style="flood-color:white;flood-opacity:1" result="back"/>
				<feBlend  in="SourceGraphic" in2="back" mode="normal"/>
			</filter>
		</defs>
		<mask maskUnits="userSpaceOnUse" x="479.9" y="232.4" width="50.7" height="51.3" id="SVGID_42_">
			<g class="st63">
				<defs>
					<filter id="Adobe_OpacityMaskFilter_21_" filterUnits="userSpaceOnUse" x="479.9" y="232.4" width="50.7" height="51.3">
						<feFlood  style="flood-color:white;flood-opacity:1" result="back"/>
						<feBlend  in="SourceGraphic" in2="back" mode="normal"/>
					</filter>
				</defs>
				<mask maskUnits="userSpaceOnUse" x="479.9" y="232.4" width="50.7" height="51.3" id="SVGID_42_">
					<g class="st64">
					</g>
				</mask>
				
					<linearGradient id="SVGID_43_" gradientUnits="userSpaceOnUse" x1="-876.4339" y1="207.5536" x2="-815.0219" y2="276.4599" gradientTransform="matrix(1 0 0 1 1337.9375 0)">
					<stop  offset="0.127" style="stop-color:#FFFFFF"/>
					<stop  offset="0.1764" style="stop-color:#ECECEC"/>
					<stop  offset="0.4448" style="stop-color:#888888"/>
					<stop  offset="0.6614" style="stop-color:#3F3F3F"/>
					<stop  offset="0.8155" style="stop-color:#111111"/>
					<stop  offset="0.8929" style="stop-color:#000000"/>
				</linearGradient>
				<polygon class="st65" points="482.5,283.7 479.9,232.4 530.5,232.4 487.5,239.2 				"/>
			</g>
		</mask>
		
			<linearGradient id="SVGID_44_" gradientUnits="userSpaceOnUse" x1="-876.4339" y1="207.5536" x2="-815.0219" y2="276.4599" gradientTransform="matrix(1 0 0 1 1337.9375 0)">
			<stop  offset="0.127" style="stop-color:#FDF7CD"/>
			<stop  offset="0.8929" style="stop-color:#FDF7CD"/>
		</linearGradient>
		<polygon class="st66" points="482.5,283.7 479.9,232.4 530.5,232.4 487.5,239.2 		"/>
		<polygon class="st41" points="530.5,232.4 530.5,283.7 482.5,283.7 524.6,280.1 		"/>
	</g>
	<g>
		
			<linearGradient id="SVGID_45_" gradientUnits="userSpaceOnUse" x1="-1000.8083" y1="167.3858" x2="-896.7203" y2="258.9835" gradientTransform="matrix(1 0 0 1 1337.9375 0)">
			<stop  offset="0" style="stop-color:#D46024"/>
			<stop  offset="0.5324" style="stop-color:#AE1B1D"/>
			<stop  offset="1" style="stop-color:#68153B"/>
		</linearGradient>
		<polygon class="st67" points="401.9,228.9 347.2,228.9 344.7,171.7 401.9,171.7 		"/>
		<polygon class="st36" points="401.9,171.7 416.4,171.7 414.4,228.9 401.9,228.9 		"/>
		<defs>
			<filter id="Adobe_OpacityMaskFilter_22_" filterUnits="userSpaceOnUse" x="348" y="175.2" width="50.7" height="51.3">
				<feFlood  style="flood-color:white;flood-opacity:1" result="back"/>
				<feBlend  in="SourceGraphic" in2="back" mode="normal"/>
			</filter>
		</defs>
		<mask maskUnits="userSpaceOnUse" x="348" y="175.2" width="50.7" height="51.3" id="SVGID_46_">
			<g class="st68">
				<defs>
					<filter id="Adobe_OpacityMaskFilter_23_" filterUnits="userSpaceOnUse" x="348" y="175.2" width="50.7" height="51.3">
						<feFlood  style="flood-color:white;flood-opacity:1" result="back"/>
						<feBlend  in="SourceGraphic" in2="back" mode="normal"/>
					</filter>
				</defs>
				<mask maskUnits="userSpaceOnUse" x="348" y="175.2" width="50.7" height="51.3" id="SVGID_46_">
					<g class="st69">
					</g>
				</mask>
				
					<linearGradient id="SVGID_47_" gradientUnits="userSpaceOnUse" x1="-1008.2787" y1="150.3746" x2="-946.8666" y2="219.2808" gradientTransform="matrix(1 0 0 1 1337.9375 0)">
					<stop  offset="0.127" style="stop-color:#FFFFFF"/>
					<stop  offset="0.1764" style="stop-color:#ECECEC"/>
					<stop  offset="0.4448" style="stop-color:#888888"/>
					<stop  offset="0.6614" style="stop-color:#3F3F3F"/>
					<stop  offset="0.8155" style="stop-color:#111111"/>
					<stop  offset="0.8929" style="stop-color:#000000"/>
				</linearGradient>
				<polygon class="st70" points="350.6,226.5 348,175.2 398.7,175.2 355.6,182 				"/>
			</g>
		</mask>
		
			<linearGradient id="SVGID_48_" gradientUnits="userSpaceOnUse" x1="-1008.2787" y1="150.3746" x2="-946.8666" y2="219.2808" gradientTransform="matrix(1 0 0 1 1337.9375 0)">
			<stop  offset="0.127" style="stop-color:#FDF7CD"/>
			<stop  offset="0.8929" style="stop-color:#FDF7CD"/>
		</linearGradient>
		<polygon class="st71" points="350.6,226.5 348,175.2 398.7,175.2 355.6,182 		"/>
		<polygon class="st41" points="398.7,175.2 398.7,226.5 350.6,226.5 392.8,222.9 		"/>
	</g>
	<g>
		
			<linearGradient id="SVGID_49_" gradientUnits="userSpaceOnUse" x1="-826.054" y1="282.0191" x2="-779.4225" y2="338.088" gradientTransform="matrix(1 0 0 1 1337.9375 0)">
			<stop  offset="8.333330e-02" style="stop-color:#E7AD47"/>
			<stop  offset="0.3709" style="stop-color:#E39938"/>
			<stop  offset="0.7457" style="stop-color:#DE8529"/>
			<stop  offset="1" style="stop-color:#DC7E24"/>
		</linearGradient>
		<polygon class="st72" points="566.5,343.4 511.8,343.4 509.3,286.2 566.5,286.2 		"/>
		<polygon class="st24" points="566.5,286.2 581,286.2 579,343.4 566.5,343.4 		"/>
		<defs>
			<filter id="Adobe_OpacityMaskFilter_24_" filterUnits="userSpaceOnUse" x="512.6" y="289.7" width="50.7" height="51.3">
				<feFlood  style="flood-color:white;flood-opacity:1" result="back"/>
				<feBlend  in="SourceGraphic" in2="back" mode="normal"/>
			</filter>
		</defs>
		<mask maskUnits="userSpaceOnUse" x="512.6" y="289.7" width="50.7" height="51.3" id="SVGID_50_">
			<g class="st73">
				<defs>
					<filter id="Adobe_OpacityMaskFilter_25_" filterUnits="userSpaceOnUse" x="512.6" y="289.7" width="50.7" height="51.3">
						<feFlood  style="flood-color:white;flood-opacity:1" result="back"/>
						<feBlend  in="SourceGraphic" in2="back" mode="normal"/>
					</filter>
				</defs>
				<mask maskUnits="userSpaceOnUse" x="512.6" y="289.7" width="50.7" height="51.3" id="SVGID_50_">
					<g class="st74">
					</g>
				</mask>
				
					<linearGradient id="SVGID_51_" gradientUnits="userSpaceOnUse" x1="-843.6809" y1="264.8626" x2="-782.2689" y2="333.7689" gradientTransform="matrix(1 0 0 1 1337.9375 0)">
					<stop  offset="0.127" style="stop-color:#FFFFFF"/>
					<stop  offset="0.1764" style="stop-color:#ECECEC"/>
					<stop  offset="0.4448" style="stop-color:#888888"/>
					<stop  offset="0.6614" style="stop-color:#3F3F3F"/>
					<stop  offset="0.8155" style="stop-color:#111111"/>
					<stop  offset="0.8929" style="stop-color:#000000"/>
				</linearGradient>
				<polygon class="st75" points="515.2,341 512.6,289.7 563.3,289.7 520.2,296.5 				"/>
			</g>
		</mask>
		
			<linearGradient id="SVGID_52_" gradientUnits="userSpaceOnUse" x1="-843.6809" y1="264.8626" x2="-782.2689" y2="333.7689" gradientTransform="matrix(1 0 0 1 1337.9375 0)">
			<stop  offset="0.127" style="stop-color:#FDF7CD"/>
			<stop  offset="0.8929" style="stop-color:#FDF7CD"/>
		</linearGradient>
		<polygon class="st76" points="515.2,341 512.6,289.7 563.3,289.7 520.2,296.5 		"/>
		<polygon class="st29" points="563.3,289.7 563.3,341 515.2,341 557.4,337.4 		"/>
	</g>
	<g>
		
			<linearGradient id="SVGID_53_" gradientUnits="userSpaceOnUse" x1="-957.4701" y1="33.2705" x2="-869.2033" y2="148.6001" gradientTransform="matrix(1 0 0 1 1337.9375 0)">
			<stop  offset="0" style="stop-color:#6FB4D2"/>
			<stop  offset="0.2156" style="stop-color:#68A0C3"/>
			<stop  offset="0.6511" style="stop-color:#556F9E"/>
			<stop  offset="1" style="stop-color:#44437D"/>
		</linearGradient>
		<polygon class="st77" points="375,115 426.9,5 475.8,115 		"/>
		<polygon class="st78" points="426.9,5 445.5,5 490.2,115 475.8,115 		"/>
		<defs>
			<filter id="Adobe_OpacityMaskFilter_26_" filterUnits="userSpaceOnUse" x="380.6" y="16.2" width="70.8" height="95.8">
				<feFlood  style="flood-color:white;flood-opacity:1" result="back"/>
				<feBlend  in="SourceGraphic" in2="back" mode="normal"/>
			</filter>
		</defs>
		<mask maskUnits="userSpaceOnUse" x="380.6" y="16.2" width="70.8" height="95.8" id="SVGID_54_">
			<g class="st79">
				<defs>
					<filter id="Adobe_OpacityMaskFilter_27_" filterUnits="userSpaceOnUse" x="380.6" y="16.2" width="70.8" height="95.8">
						<feFlood  style="flood-color:white;flood-opacity:1" result="back"/>
						<feBlend  in="SourceGraphic" in2="back" mode="normal"/>
					</filter>
				</defs>
				<mask maskUnits="userSpaceOnUse" x="380.6" y="16.2" width="70.8" height="95.8" id="SVGID_54_">
					<g class="st80">
					</g>
				</mask>
				
					<linearGradient id="SVGID_55_" gradientUnits="userSpaceOnUse" x1="-966.785" y1="30.5074" x2="-881.5258" y2="118.2824" gradientTransform="matrix(1 0 0 1 1337.9375 0)">
					<stop  offset="0.127" style="stop-color:#FFFFFF"/>
					<stop  offset="0.1764" style="stop-color:#ECECEC"/>
					<stop  offset="0.4448" style="stop-color:#888888"/>
					<stop  offset="0.6614" style="stop-color:#3F3F3F"/>
					<stop  offset="0.8155" style="stop-color:#111111"/>
					<stop  offset="0.8929" style="stop-color:#000000"/>
				</linearGradient>
				<polygon class="st81" points="426.9,16.2 451.3,74.2 426.9,50.3 386.3,111.9 380.6,111.9 				"/>
			</g>
		</mask>
		
			<linearGradient id="SVGID_56_" gradientUnits="userSpaceOnUse" x1="-966.785" y1="30.5074" x2="-881.5258" y2="118.2824" gradientTransform="matrix(1 0 0 1 1337.9375 0)">
			<stop  offset="0.127" style="stop-color:#FDF7CD"/>
			<stop  offset="0.8929" style="stop-color:#FDF7CD"/>
		</linearGradient>
		<polygon class="st82" points="426.9,16.2 451.3,74.2 426.9,50.3 386.3,111.9 380.6,111.9 		"/>
		<polygon class="st29" points="460.5,92.2 471.6,113.2 393.5,113.2 460.1,108.7 		"/>
	</g>
</g>
<g>
	
		<linearGradient id="SVGID_57_" gradientUnits="userSpaceOnUse" x1="-1143.4431" y1="297.6653" x2="-1096.8118" y2="353.7341" gradientTransform="matrix(1 0 0 1 1337.9375 0)">
		<stop  offset="8.333330e-02" style="stop-color:#E7AD47"/>
		<stop  offset="0.3709" style="stop-color:#E39938"/>
		<stop  offset="0.7457" style="stop-color:#DE8529"/>
		<stop  offset="1" style="stop-color:#DC7E24"/>
	</linearGradient>
	<polygon class="st83" points="249.1,359 194.4,359 192,301.9 249.1,301.9 	"/>
	<polygon class="st24" points="249.1,301.9 263.6,301.9 261.6,359 249.1,359 	"/>
	<defs>
		<filter id="Adobe_OpacityMaskFilter_28_" filterUnits="userSpaceOnUse" x="195.2" y="305.3" width="50.7" height="51.3">
			<feFlood  style="flood-color:white;flood-opacity:1" result="back"/>
			<feBlend  in="SourceGraphic" in2="back" mode="normal"/>
		</filter>
	</defs>
	<mask maskUnits="userSpaceOnUse" x="195.2" y="305.3" width="50.7" height="51.3" id="SVGID_58_">
		<g class="st84">
			<defs>
				<filter id="Adobe_OpacityMaskFilter_29_" filterUnits="userSpaceOnUse" x="195.2" y="305.3" width="50.7" height="51.3">
					<feFlood  style="flood-color:white;flood-opacity:1" result="back"/>
					<feBlend  in="SourceGraphic" in2="back" mode="normal"/>
				</filter>
			</defs>
			<mask maskUnits="userSpaceOnUse" x="195.2" y="305.3" width="50.7" height="51.3" id="SVGID_58_">
				<g class="st85">
				</g>
			</mask>
			
				<linearGradient id="SVGID_59_" gradientUnits="userSpaceOnUse" x1="-1161.0699" y1="280.5091" x2="-1099.6582" y2="349.4151" gradientTransform="matrix(1 0 0 1 1337.9375 0)">
				<stop  offset="0.127" style="stop-color:#FFFFFF"/>
				<stop  offset="0.1764" style="stop-color:#ECECEC"/>
				<stop  offset="0.4448" style="stop-color:#888888"/>
				<stop  offset="0.6614" style="stop-color:#3F3F3F"/>
				<stop  offset="0.8155" style="stop-color:#111111"/>
				<stop  offset="0.8929" style="stop-color:#000000"/>
			</linearGradient>
			<polygon class="st86" points="197.8,356.7 195.2,305.3 245.9,305.3 202.8,312.1 			"/>
		</g>
	</mask>
	
		<linearGradient id="SVGID_60_" gradientUnits="userSpaceOnUse" x1="-1161.0699" y1="280.5091" x2="-1099.6582" y2="349.4151" gradientTransform="matrix(1 0 0 1 1337.9375 0)">
		<stop  offset="0.127" style="stop-color:#FDF7CD"/>
		<stop  offset="0.8929" style="stop-color:#FDF7CD"/>
	</linearGradient>
	<polygon class="st87" points="197.8,356.7 195.2,305.3 245.9,305.3 202.8,312.1 	"/>
	<polygon class="st29" points="245.9,305.3 245.9,356.7 197.8,356.7 240,353 	"/>
</g>
<g>
	
		<linearGradient id="SVGID_61_" gradientUnits="userSpaceOnUse" x1="-814.8379" y1="319.5953" x2="-710.7496" y2="411.1931" gradientTransform="matrix(1 0 0 1 1337.9375 0)">
		<stop  offset="0" style="stop-color:#D46024"/>
		<stop  offset="0.5324" style="stop-color:#AE1B1D"/>
		<stop  offset="1" style="stop-color:#68153B"/>
	</linearGradient>
	<polygon class="st88" points="587.9,381.1 533.2,381.1 530.7,323.9 587.9,323.9 	"/>
	<polygon class="st36" points="587.9,323.9 602.3,323.9 600.3,381.1 587.9,381.1 	"/>
	<defs>
		<filter id="Adobe_OpacityMaskFilter_30_" filterUnits="userSpaceOnUse" x="534" y="327.4" width="50.7" height="51.3">
			<feFlood  style="flood-color:white;flood-opacity:1" result="back"/>
			<feBlend  in="SourceGraphic" in2="back" mode="normal"/>
		</filter>
	</defs>
	<mask maskUnits="userSpaceOnUse" x="534" y="327.4" width="50.7" height="51.3" id="SVGID_62_">
		<g class="st89">
			<defs>
				<filter id="Adobe_OpacityMaskFilter_31_" filterUnits="userSpaceOnUse" x="534" y="327.4" width="50.7" height="51.3">
					<feFlood  style="flood-color:white;flood-opacity:1" result="back"/>
					<feBlend  in="SourceGraphic" in2="back" mode="normal"/>
				</filter>
			</defs>
			<mask maskUnits="userSpaceOnUse" x="534" y="327.4" width="50.7" height="51.3" id="SVGID_62_">
				<g class="st90">
				</g>
			</mask>
			
				<linearGradient id="SVGID_63_" gradientUnits="userSpaceOnUse" x1="-822.3081" y1="302.5842" x2="-760.8961" y2="371.4905" gradientTransform="matrix(1 0 0 1 1337.9375 0)">
				<stop  offset="0.127" style="stop-color:#FFFFFF"/>
				<stop  offset="0.1764" style="stop-color:#ECECEC"/>
				<stop  offset="0.4448" style="stop-color:#888888"/>
				<stop  offset="0.6614" style="stop-color:#3F3F3F"/>
				<stop  offset="0.8155" style="stop-color:#111111"/>
				<stop  offset="0.8929" style="stop-color:#000000"/>
			</linearGradient>
			<polygon class="st91" points="536.6,378.7 534,327.4 584.7,327.4 541.6,334.2 			"/>
		</g>
	</mask>
	
		<linearGradient id="SVGID_64_" gradientUnits="userSpaceOnUse" x1="-822.3081" y1="302.5842" x2="-760.8961" y2="371.4905" gradientTransform="matrix(1 0 0 1 1337.9375 0)">
		<stop  offset="0.127" style="stop-color:#FDF7CD"/>
		<stop  offset="0.8929" style="stop-color:#FDF7CD"/>
	</linearGradient>
	<polygon class="st92" points="536.6,378.7 534,327.4 584.7,327.4 541.6,334.2 	"/>
	<polygon class="st41" points="584.7,327.4 584.7,378.7 536.6,378.7 578.7,375.1 	"/>
</g>
</svg>
